{"glyphs":{"0":{"ha":868,"x_min":63,"x_max":806,"o":"m 435 -17 q 264 13 335 -17 q 149 103 193 43 q 83 257 104 164 q 63 478 63 350 q 83 697 63 604 q 149 851 104 790 q 264 941 193 911 q 435 971 335 971 q 605 941 535 971 q 719 851 675 911 q 785 697 764 790 q 806 478 806 604 q 785 257 806 350 q 719 103 764 164 q 605 13 675 43 q 435 -17 535 -17 m 435 149 q 522 178 490 149 q 565 269 553 208 q 576 422 576 329 l 576 531 q 565 686 576 625 q 522 776 553 747 q 435 806 490 806 q 348 776 379 806 q 304 687 317 747 q 292 532 292 626 l 292 425 q 304 269 292 331 q 348 178 317 208 q 435 149 379 149 z "},"1":{"ha":868,"x_min":140,"x_max":813,"o":"m 142 0 l 142 179 l 369 179 l 369 689 l 140 689 l 140 824 q 262 847 196 828 q 392 895 328 867 q 508 956 457 924 l 597 956 l 597 179 l 813 179 l 813 0 l 142 0 z "},"2":{"ha":868,"x_min":69,"x_max":803,"o":"m 69 0 l 69 57 q 93 169 69 118 q 157 265 117 221 q 247 351 197 310 q 346 429 296 392 q 453 510 403 471 q 534 592 503 549 q 565 688 565 635 q 552 741 565 715 q 510 783 539 767 q 435 800 482 800 q 356 783 388 800 q 307 735 324 765 q 290 663 290 704 l 290 621 l 79 621 q 77 640 78 629 q 76 664 76 650 q 122 832 76 764 q 252 935 168 900 q 453 971 336 971 q 606 947 542 971 q 713 883 671 924 q 774 792 754 843 q 794 688 794 742 q 771 569 794 622 q 706 470 747 517 q 608 381 664 424 q 489 296 553 339 q 431 255 457 274 q 390 222 406 236 q 368 197 375 208 l 803 197 l 803 0 l 69 0 z "},"3":{"ha":868,"x_min":60,"x_max":807,"o":"m 436 -17 q 227 20 311 -17 q 101 120 143 57 q 60 264 60 183 l 60 289 l 271 289 l 271 263 q 310 181 271 211 q 425 150 349 150 q 539 185 501 150 q 576 286 576 221 q 558 358 576 332 q 510 397 540 385 q 444 408 481 408 l 354 408 l 354 564 l 435 564 q 497 577 469 564 q 540 617 524 590 q 556 683 556 643 q 540 748 556 721 q 495 790 525 775 q 425 804 465 804 q 356 790 388 804 q 308 751 325 776 q 290 693 290 726 l 290 675 l 86 675 l 86 710 q 128 844 86 785 q 250 937 171 903 q 438 971 329 971 q 622 938 544 971 q 742 847 700 906 q 783 711 783 788 q 765 617 783 660 q 713 546 746 575 q 638 499 681 517 l 638 493 q 761 409 715 469 q 807 258 807 349 q 763 116 806 178 q 638 19 719 54 q 436 -17 556 -17 z "},"4":{"ha":869,"x_min":38,"x_max":829,"o":"m 482 0 l 482 203 l 38 203 l 38 379 q 135 551 88 457 q 226 751 183 644 q 299 971 269 858 l 528 971 q 490 845 517 913 q 428 709 464 778 q 353 577 393 640 q 277 462 314 514 q 210 378 240 410 l 482 378 l 482 596 q 515 654 497 621 q 549 724 532 688 q 580 794 567 760 q 601 857 593 828 l 703 857 l 703 378 l 829 378 l 829 203 l 703 203 l 703 0 l 482 0 z "},"5":{"ha":868,"x_min":58,"x_max":806,"o":"m 440 -17 q 234 23 319 -17 q 103 134 149 63 q 58 303 58 206 l 271 303 q 289 224 271 258 q 342 170 307 189 q 425 151 376 151 q 507 171 474 151 q 558 227 540 190 q 576 314 576 264 q 558 399 576 364 q 507 452 540 433 q 428 471 474 471 q 360 458 388 471 q 317 429 333 446 q 289 397 300 413 l 96 422 l 136 954 l 744 954 l 744 756 l 315 756 l 303 569 q 335 590 311 576 q 401 617 360 604 q 496 629 442 629 q 657 593 588 629 q 766 486 726 557 q 806 313 806 415 q 761 141 806 215 q 635 25 717 67 q 440 -17 553 -17 z "},"6":{"ha":868,"x_min":64,"x_max":815,"o":"m 449 -17 q 283 10 354 -17 q 162 92 211 36 q 88 237 113 147 q 64 451 64 326 q 88 694 64 594 q 160 854 113 793 q 280 943 208 915 q 444 971 351 971 q 631 933 554 971 q 747 825 707 894 q 788 660 788 756 l 575 660 q 560 740 575 708 q 515 789 544 772 q 444 806 486 806 q 351 775 383 806 q 306 684 318 744 q 294 532 294 624 q 346 569 314 551 q 417 599 378 588 q 499 610 457 610 q 667 573 596 610 q 776 469 738 536 q 815 308 815 401 q 769 133 815 206 q 640 22 722 61 q 449 -17 558 -17 m 444 149 q 525 167 493 149 q 573 221 557 186 q 589 301 589 256 q 573 383 589 349 q 525 438 557 418 q 444 458 493 458 q 365 439 397 458 q 316 385 332 419 q 300 303 300 351 q 316 222 300 257 q 365 168 332 188 q 444 149 397 149 z "},"7":{"ha":868,"x_min":63,"x_max":811,"o":"m 213 0 q 238 210 213 107 q 307 409 263 313 q 408 592 351 506 q 529 754 465 679 l 63 754 l 63 954 l 811 954 l 811 835 q 711 705 761 774 q 617 562 661 636 q 538 408 572 488 q 483 246 503 329 q 464 76 464 163 l 464 0 l 213 0 z "},"8":{"ha":868,"x_min":58,"x_max":810,"o":"m 433 -17 q 228 18 311 -17 q 101 115 144 53 q 58 263 58 178 q 98 398 58 344 q 211 486 138 451 q 117 583 144 533 q 89 697 89 633 q 132 842 89 781 q 252 937 175 903 q 433 971 329 971 q 614 937 536 971 q 735 842 692 903 q 779 697 779 781 q 751 581 779 632 q 656 486 722 531 q 770 398 731 451 q 810 263 810 344 q 766 115 810 178 q 639 18 722 53 q 433 -17 556 -17 m 433 149 q 540 182 500 149 q 579 278 579 215 q 539 374 579 342 q 433 407 499 407 q 329 374 369 407 q 289 278 289 342 q 328 182 289 215 q 433 149 367 149 m 433 567 q 531 596 492 567 q 571 686 571 625 q 533 776 571 746 q 433 807 494 807 q 335 776 372 807 q 299 686 299 746 q 336 596 299 625 q 433 567 374 567 z "},"9":{"ha":868,"x_min":54,"x_max":806,"o":"m 424 -17 q 239 22 315 -17 q 122 129 163 60 q 81 294 81 199 l 294 294 q 309 215 294 247 q 353 165 324 182 q 425 149 383 149 q 518 179 486 149 q 562 271 550 210 q 574 422 574 332 q 524 386 556 404 q 452 356 492 368 q 371 344 413 344 q 203 381 274 344 q 93 486 132 418 q 54 646 54 554 q 100 822 54 749 q 228 933 146 894 q 419 971 311 971 q 586 944 514 971 q 707 863 658 918 q 781 718 756 807 q 806 503 806 629 q 781 260 806 360 q 709 100 757 161 q 590 11 661 39 q 424 -17 518 -17 m 424 497 q 503 516 471 497 q 552 569 536 535 q 568 650 568 603 q 552 732 568 697 q 504 786 536 767 q 424 806 472 806 q 344 786 376 806 q 296 733 313 767 q 279 651 279 699 q 295 569 279 604 q 343 516 311 535 q 424 497 375 497 z "},"A":{"ha":1036,"x_min":11,"x_max":1026,"o":"m 11 0 l 369 954 l 668 954 l 1026 0 l 761 0 l 704 165 l 324 165 l 267 0 l 11 0 m 383 351 l 643 351 l 575 553 q 562 591 569 568 q 547 640 554 614 q 532 692 539 665 q 518 738 525 718 l 508 738 q 492 678 503 711 q 472 611 482 644 q 453 553 461 578 l 383 351 z "},"Á":{"ha":1036,"x_min":11,"x_max":1026,"o":"m 11 0 l 369 954 l 668 954 l 1026 0 l 761 0 l 704 165 l 324 165 l 267 0 l 11 0 m 383 351 l 643 351 l 575 553 q 562 591 569 568 q 547 640 554 614 q 532 692 539 665 q 518 738 525 718 l 508 738 q 492 678 503 711 q 472 611 482 644 q 453 553 461 578 l 383 351 m 411 1035 l 532 1218 l 772 1218 l 775 1214 l 585 1035 l 411 1035 z "},"Ă":{"ha":1036,"x_min":11,"x_max":1026,"o":"m 11 0 l 369 954 l 668 954 l 1026 0 l 761 0 l 704 165 l 324 165 l 267 0 l 11 0 m 383 351 l 643 351 l 575 553 q 562 591 569 568 q 547 640 554 614 q 532 692 539 665 q 518 738 525 718 l 508 738 q 492 678 503 711 q 472 611 482 644 q 453 553 461 578 l 383 351 m 518 1026 q 386 1056 439 1026 q 307 1130 333 1085 q 281 1218 281 1175 l 404 1218 q 421 1188 407 1204 q 460 1160 435 1171 q 518 1149 485 1149 q 579 1160 554 1149 q 619 1188 604 1171 q 635 1218 633 1204 l 758 1218 q 731 1130 758 1175 q 651 1056 704 1085 q 518 1026 599 1026 z "},"Ắ":{"ha":1036,"x_min":11,"x_max":1026,"o":"m 11 0 l 369 954 l 668 954 l 1026 0 l 761 0 l 704 165 l 324 165 l 267 0 l 11 0 m 383 351 l 643 351 l 575 553 q 562 591 569 568 q 547 640 554 614 q 532 692 539 665 q 518 738 525 718 l 508 738 q 492 678 503 711 q 472 611 482 644 q 453 553 461 578 l 383 351 m 518 1026 q 386 1056 439 1026 q 307 1130 333 1085 q 281 1218 281 1175 l 404 1218 q 421 1188 407 1204 q 460 1160 435 1171 q 518 1149 485 1149 q 579 1160 554 1149 q 619 1188 604 1171 q 635 1218 633 1204 l 758 1218 q 731 1130 758 1175 q 651 1056 704 1085 q 518 1026 599 1026 m 411 1254 l 532 1439 l 772 1439 l 775 1433 l 585 1254 l 411 1254 z "},"Ặ":{"ha":1036,"x_min":11,"x_max":1026,"o":"m 11 0 l 369 954 l 668 954 l 1026 0 l 761 0 l 704 165 l 324 165 l 267 0 l 11 0 m 383 351 l 643 351 l 575 553 q 562 591 569 568 q 547 640 554 614 q 532 692 539 665 q 518 738 525 718 l 508 738 q 492 678 503 711 q 472 611 482 644 q 453 553 461 578 l 383 351 m 424 -271 l 424 -96 l 614 -96 l 614 -271 l 424 -271 m 518 1026 q 386 1056 439 1026 q 307 1130 333 1085 q 281 1218 281 1175 l 404 1218 q 421 1188 407 1204 q 460 1160 435 1171 q 518 1149 485 1149 q 579 1160 554 1149 q 619 1188 604 1171 q 635 1218 633 1204 l 758 1218 q 731 1130 758 1175 q 651 1056 704 1085 q 518 1026 599 1026 z "},"Ằ":{"ha":1036,"x_min":11,"x_max":1026,"o":"m 11 0 l 369 954 l 668 954 l 1026 0 l 761 0 l 704 165 l 324 165 l 267 0 l 11 0 m 383 351 l 643 351 l 575 553 q 562 591 569 568 q 547 640 554 614 q 532 692 539 665 q 518 738 525 718 l 508 738 q 492 678 503 711 q 472 611 482 644 q 453 553 461 578 l 383 351 m 518 1026 q 386 1056 439 1026 q 307 1130 333 1085 q 281 1218 281 1175 l 404 1218 q 421 1188 407 1204 q 460 1160 435 1171 q 518 1149 485 1149 q 579 1160 554 1149 q 619 1188 604 1171 q 635 1218 633 1204 l 758 1218 q 731 1130 758 1175 q 651 1056 704 1085 q 518 1026 599 1026 m 644 1254 l 469 1254 l 281 1433 l 282 1439 l 524 1439 l 644 1254 z "},"Ẳ":{"ha":1036,"x_min":11,"x_max":1026,"o":"m 11 0 l 369 954 l 668 954 l 1026 0 l 761 0 l 704 165 l 324 165 l 267 0 l 11 0 m 383 351 l 643 351 l 575 553 q 562 591 569 568 q 547 640 554 614 q 532 692 539 665 q 518 738 525 718 l 508 738 q 492 678 503 711 q 472 611 482 644 q 453 553 461 578 l 383 351 m 518 1026 q 386 1056 439 1026 q 307 1130 333 1085 q 281 1218 281 1175 l 404 1218 q 421 1188 407 1204 q 460 1160 435 1171 q 518 1149 485 1149 q 579 1160 554 1149 q 619 1188 604 1171 q 635 1218 633 1204 l 758 1218 q 731 1130 758 1175 q 651 1056 704 1085 q 518 1026 599 1026 m 469 1251 l 469 1329 l 485 1329 q 519 1335 510 1329 q 528 1354 528 1340 q 515 1374 528 1369 q 481 1378 503 1378 l 399 1378 l 399 1444 q 438 1451 415 1449 q 481 1454 460 1453 q 519 1456 503 1456 q 573 1451 544 1456 q 627 1436 601 1446 q 669 1410 653 1426 q 685 1367 685 1393 q 668 1323 685 1340 q 625 1297 651 1306 q 569 1286 599 1289 l 569 1251 l 469 1251 z "},"Ẵ":{"ha":1036,"x_min":11,"x_max":1026,"o":"m 11 0 l 369 954 l 668 954 l 1026 0 l 761 0 l 704 165 l 324 165 l 267 0 l 11 0 m 383 351 l 643 351 l 575 553 q 562 591 569 568 q 547 640 554 614 q 532 692 539 665 q 518 738 525 718 l 508 738 q 492 678 503 711 q 472 611 482 644 q 453 553 461 578 l 383 351 m 518 1026 q 386 1056 439 1026 q 307 1130 333 1085 q 281 1218 281 1175 l 404 1218 q 421 1188 407 1204 q 460 1160 435 1171 q 518 1149 485 1149 q 579 1160 554 1149 q 619 1188 604 1171 q 635 1218 633 1204 l 758 1218 q 731 1130 758 1175 q 651 1056 704 1085 q 518 1026 599 1026 m 246 1260 q 265 1349 246 1307 q 321 1416 283 1390 q 411 1442 358 1442 q 488 1428 451 1442 q 558 1402 524 1415 q 629 1389 593 1389 q 667 1402 651 1389 q 688 1442 682 1415 l 792 1442 q 772 1353 792 1394 q 716 1286 753 1313 q 626 1260 679 1260 q 549 1273 586 1260 q 478 1299 513 1286 q 408 1313 444 1313 q 371 1299 386 1313 q 350 1260 356 1285 l 246 1260 z "},"Ǎ":{"ha":1036,"x_min":11,"x_max":1026,"o":"m 11 0 l 369 954 l 668 954 l 1026 0 l 761 0 l 704 165 l 324 165 l 267 0 l 11 0 m 383 351 l 643 351 l 575 553 q 562 591 569 568 q 547 640 554 614 q 532 692 539 665 q 518 738 525 718 l 508 738 q 492 678 503 711 q 472 611 482 644 q 453 553 461 578 l 383 351 m 244 1218 l 428 1218 l 558 1085 l 479 1085 l 608 1218 l 793 1218 l 626 1035 l 413 1035 l 244 1218 z "},"Â":{"ha":1036,"x_min":11,"x_max":1026,"o":"m 11 0 l 369 954 l 668 954 l 1026 0 l 761 0 l 704 165 l 324 165 l 267 0 l 11 0 m 383 351 l 643 351 l 575 553 q 562 591 569 568 q 547 640 554 614 q 532 692 539 665 q 518 738 525 718 l 508 738 q 492 678 503 711 q 472 611 482 644 q 453 553 461 578 l 383 351 m 244 1035 l 413 1218 l 626 1218 l 793 1035 l 608 1035 l 479 1168 l 558 1168 l 428 1035 l 244 1035 z "},"Ấ":{"ha":1036,"x_min":11,"x_max":1026,"o":"m 11 0 l 369 954 l 668 954 l 1026 0 l 761 0 l 704 165 l 324 165 l 267 0 l 11 0 m 383 351 l 643 351 l 575 553 q 562 591 569 568 q 547 640 554 614 q 532 692 539 665 q 518 738 525 718 l 508 738 q 492 678 503 711 q 472 611 482 644 q 453 553 461 578 l 383 351 m 244 1035 l 413 1218 l 626 1218 l 793 1035 l 608 1035 l 479 1168 l 558 1168 l 428 1035 l 244 1035 m 411 1261 l 532 1444 l 772 1444 l 775 1440 l 585 1261 l 411 1261 z "},"Ậ":{"ha":1036,"x_min":11,"x_max":1026,"o":"m 11 0 l 369 954 l 668 954 l 1026 0 l 761 0 l 704 165 l 324 165 l 267 0 l 11 0 m 383 351 l 643 351 l 575 553 q 562 591 569 568 q 547 640 554 614 q 532 692 539 665 q 518 738 525 718 l 508 738 q 492 678 503 711 q 472 611 482 644 q 453 553 461 578 l 383 351 m 424 -271 l 424 -96 l 614 -96 l 614 -271 l 424 -271 m 244 1035 l 413 1218 l 626 1218 l 793 1035 l 608 1035 l 479 1168 l 558 1168 l 428 1035 l 244 1035 z "},"Ầ":{"ha":1036,"x_min":11,"x_max":1026,"o":"m 11 0 l 369 954 l 668 954 l 1026 0 l 761 0 l 704 165 l 324 165 l 267 0 l 11 0 m 383 351 l 643 351 l 575 553 q 562 591 569 568 q 547 640 554 614 q 532 692 539 665 q 518 738 525 718 l 508 738 q 492 678 503 711 q 472 611 482 644 q 453 553 461 578 l 383 351 m 244 1035 l 413 1218 l 626 1218 l 793 1035 l 608 1035 l 479 1168 l 558 1168 l 428 1035 l 244 1035 m 644 1261 l 469 1261 l 281 1440 l 282 1444 l 524 1444 l 644 1261 z "},"Ẩ":{"ha":1036,"x_min":11,"x_max":1026,"o":"m 11 0 l 369 954 l 668 954 l 1026 0 l 761 0 l 704 165 l 324 165 l 267 0 l 11 0 m 383 351 l 643 351 l 575 553 q 562 591 569 568 q 547 640 554 614 q 532 692 539 665 q 518 738 525 718 l 508 738 q 492 678 503 711 q 472 611 482 644 q 453 553 461 578 l 383 351 m 244 1035 l 413 1218 l 626 1218 l 793 1035 l 608 1035 l 479 1168 l 558 1168 l 428 1035 l 244 1035 m 469 1257 l 469 1335 l 485 1335 q 519 1340 510 1335 q 528 1360 528 1346 q 515 1380 528 1375 q 481 1385 503 1385 l 399 1385 l 399 1450 q 438 1456 415 1454 q 481 1460 460 1458 q 519 1461 503 1461 q 573 1457 544 1461 q 627 1443 601 1453 q 669 1416 653 1433 q 685 1372 685 1399 q 668 1329 685 1346 q 625 1304 651 1313 q 569 1293 599 1296 l 569 1257 l 469 1257 z "},"Ẫ":{"ha":1036,"x_min":11,"x_max":1026,"o":"m 11 0 l 369 954 l 668 954 l 1026 0 l 761 0 l 704 165 l 324 165 l 267 0 l 11 0 m 383 351 l 643 351 l 575 553 q 562 591 569 568 q 547 640 554 614 q 532 692 539 665 q 518 738 525 718 l 508 738 q 492 678 503 711 q 472 611 482 644 q 453 553 461 578 l 383 351 m 244 1035 l 413 1218 l 626 1218 l 793 1035 l 608 1035 l 479 1168 l 558 1168 l 428 1035 l 244 1035 m 246 1265 q 265 1355 246 1313 q 321 1422 283 1397 q 411 1447 358 1447 q 488 1435 451 1447 q 558 1409 524 1422 q 629 1396 593 1396 q 667 1409 651 1396 q 688 1447 682 1422 l 792 1447 q 772 1360 792 1401 q 716 1292 753 1318 q 626 1265 679 1265 q 549 1278 586 1265 q 478 1305 513 1292 q 408 1318 444 1318 q 371 1305 386 1318 q 350 1265 356 1292 l 246 1265 z "},"Ȁ":{"ha":1036,"x_min":11,"x_max":1026,"o":"m 11 0 l 369 954 l 668 954 l 1026 0 l 761 0 l 704 165 l 324 165 l 267 0 l 11 0 m 383 351 l 643 351 l 575 553 q 562 591 569 568 q 547 640 554 614 q 532 692 539 665 q 518 738 525 718 l 508 738 q 492 678 503 711 q 472 611 482 644 q 453 553 461 578 l 383 351 m 608 1035 l 439 1214 l 440 1218 l 667 1218 l 771 1035 l 608 1035 m 318 1035 l 147 1214 l 150 1218 l 375 1218 l 479 1035 l 318 1035 z "},"Ä":{"ha":1036,"x_min":11,"x_max":1026,"o":"m 11 0 l 369 954 l 668 954 l 1026 0 l 761 0 l 704 165 l 324 165 l 267 0 l 11 0 m 383 351 l 643 351 l 575 553 q 562 591 569 568 q 547 640 554 614 q 532 692 539 665 q 518 738 525 718 l 508 738 q 492 678 503 711 q 472 611 482 644 q 453 553 461 578 l 383 351 m 279 1043 l 279 1218 l 464 1218 l 464 1043 l 279 1043 m 574 1043 l 574 1218 l 758 1218 l 758 1043 l 574 1043 z "},"Ạ":{"ha":1036,"x_min":11,"x_max":1026,"o":"m 11 0 l 369 954 l 668 954 l 1026 0 l 761 0 l 704 165 l 324 165 l 267 0 l 11 0 m 383 351 l 643 351 l 575 553 q 562 591 569 568 q 547 640 554 614 q 532 692 539 665 q 518 738 525 718 l 508 738 q 492 678 503 711 q 472 611 482 644 q 453 553 461 578 l 383 351 m 424 -271 l 424 -96 l 614 -96 l 614 -271 l 424 -271 z "},"À":{"ha":1036,"x_min":11,"x_max":1026,"o":"m 11 0 l 369 954 l 668 954 l 1026 0 l 761 0 l 704 165 l 324 165 l 267 0 l 11 0 m 383 351 l 643 351 l 575 553 q 562 591 569 568 q 547 640 554 614 q 532 692 539 665 q 518 738 525 718 l 508 738 q 492 678 503 711 q 472 611 482 644 q 453 553 461 578 l 383 351 m 644 1035 l 469 1035 l 281 1214 l 282 1218 l 524 1218 l 644 1035 z "},"Ả":{"ha":1036,"x_min":11,"x_max":1026,"o":"m 11 0 l 369 954 l 668 954 l 1026 0 l 761 0 l 704 165 l 324 165 l 267 0 l 11 0 m 383 351 l 643 351 l 575 553 q 562 591 569 568 q 547 640 554 614 q 532 692 539 665 q 518 738 525 718 l 508 738 q 492 678 503 711 q 472 611 482 644 q 453 553 461 578 l 383 351 m 469 1032 l 469 1110 l 485 1110 q 519 1115 510 1110 q 528 1133 528 1119 q 515 1153 528 1149 q 481 1158 503 1158 l 399 1158 l 399 1224 q 438 1230 415 1228 q 481 1233 460 1232 q 519 1235 503 1235 q 573 1231 544 1235 q 627 1217 601 1226 q 669 1190 653 1207 q 685 1147 685 1174 q 668 1103 685 1121 q 625 1078 651 1086 q 569 1067 599 1069 l 569 1032 l 469 1032 z "},"Ȃ":{"ha":1036,"x_min":11,"x_max":1026,"o":"m 11 0 l 369 954 l 668 954 l 1026 0 l 761 0 l 704 165 l 324 165 l 267 0 l 11 0 m 383 351 l 643 351 l 575 553 q 562 591 569 568 q 547 640 554 614 q 532 692 539 665 q 518 738 525 718 l 508 738 q 492 678 503 711 q 472 611 482 644 q 453 553 461 578 l 383 351 m 281 1026 q 308 1116 281 1072 q 388 1189 335 1160 q 519 1218 442 1218 q 653 1189 600 1218 q 732 1116 706 1160 q 758 1026 758 1072 l 635 1026 q 618 1058 632 1042 q 580 1085 604 1074 q 519 1096 556 1096 q 460 1085 486 1096 q 420 1058 435 1074 q 404 1026 406 1042 l 281 1026 z "},"Ā":{"ha":1036,"x_min":11,"x_max":1026,"o":"m 11 0 l 369 954 l 668 954 l 1026 0 l 761 0 l 704 165 l 324 165 l 267 0 l 11 0 m 383 351 l 643 351 l 575 553 q 562 591 569 568 q 547 640 554 614 q 532 692 539 665 q 518 738 525 718 l 508 738 q 492 678 503 711 q 472 611 482 644 q 453 553 461 578 l 383 351 m 301 1043 l 301 1171 l 735 1171 l 735 1043 l 301 1043 z "},"Ą":{"ha":1036,"x_min":11,"x_max":1026,"o":"m 11 0 l 369 954 l 668 954 l 1026 0 l 761 0 l 704 165 l 324 165 l 267 0 l 11 0 m 383 351 l 643 351 l 575 553 q 562 591 569 568 q 547 640 554 614 q 532 692 539 665 q 518 738 525 718 l 508 738 q 492 678 503 711 q 472 611 482 644 q 453 553 461 578 l 383 351 m 864 -275 q 787 -261 824 -275 q 726 -216 750 -247 q 703 -132 703 -185 q 726 -46 703 -81 q 774 17 749 -11 l 903 17 l 903 11 q 869 -31 883 -4 q 854 -86 854 -58 q 872 -140 854 -117 q 925 -162 889 -162 l 996 -162 l 996 -254 q 931 -269 967 -264 q 864 -275 894 -275 z "},"Å":{"ha":1036,"x_min":11,"x_max":1026,"o":"m 11 0 l 369 954 l 668 954 l 1026 0 l 761 0 l 704 165 l 324 165 l 267 0 l 11 0 m 383 351 l 643 351 l 575 553 q 562 591 569 568 q 547 640 554 614 q 532 692 539 665 q 518 738 525 718 l 508 738 q 492 678 503 711 q 472 611 482 644 q 453 553 461 578 l 383 351 m 518 1011 q 408 1052 451 1011 q 364 1156 364 1093 q 408 1260 364 1218 q 518 1301 451 1301 q 629 1260 586 1301 q 672 1156 672 1218 q 629 1052 672 1093 q 518 1011 586 1011 m 518 1100 q 561 1116 544 1100 q 578 1156 578 1132 q 561 1196 578 1181 q 518 1211 544 1211 q 476 1195 493 1211 q 460 1154 460 1179 q 476 1115 460 1131 q 518 1100 493 1100 z "},"Ǻ":{"ha":1036,"x_min":11,"x_max":1026,"o":"m 11 0 l 369 954 l 668 954 l 1026 0 l 761 0 l 704 165 l 324 165 l 267 0 l 11 0 m 383 351 l 643 351 l 575 553 q 562 591 569 568 q 547 640 554 614 q 532 692 539 665 q 518 738 525 718 l 508 738 q 492 678 503 711 q 472 611 482 644 q 453 553 461 578 l 383 351 m 518 1011 q 408 1052 451 1011 q 364 1156 364 1093 q 408 1260 364 1218 q 518 1301 451 1301 q 629 1260 586 1301 q 672 1156 672 1218 q 629 1052 672 1093 q 518 1011 586 1011 m 518 1100 q 561 1116 544 1100 q 578 1156 578 1132 q 561 1196 578 1181 q 518 1211 544 1211 q 476 1195 493 1211 q 460 1154 460 1179 q 476 1115 460 1131 q 518 1100 493 1100 m 411 1344 l 532 1528 l 772 1528 l 775 1524 l 585 1344 l 411 1344 z "},"Ã":{"ha":1036,"x_min":11,"x_max":1026,"o":"m 11 0 l 369 954 l 668 954 l 1026 0 l 761 0 l 704 165 l 324 165 l 267 0 l 11 0 m 383 351 l 643 351 l 575 553 q 562 591 569 568 q 547 640 554 614 q 532 692 539 665 q 518 738 525 718 l 508 738 q 492 678 503 711 q 472 611 482 644 q 453 553 461 578 l 383 351 m 246 1039 q 265 1129 246 1088 q 321 1197 283 1171 q 411 1222 358 1222 q 488 1209 451 1222 q 558 1183 524 1196 q 629 1169 593 1169 q 667 1183 651 1169 q 688 1222 682 1196 l 792 1222 q 772 1133 792 1175 q 716 1065 753 1092 q 626 1039 679 1039 q 549 1052 586 1039 q 478 1079 513 1065 q 408 1093 444 1093 q 371 1079 386 1093 q 350 1039 356 1065 l 246 1039 z "},"Æ":{"ha":1403,"x_min":-3,"x_max":1336,"o":"m -3 0 l 429 954 l 1326 954 l 1326 760 l 796 760 l 842 581 l 1257 581 l 1257 390 l 888 390 l 938 194 l 1336 194 l 1336 0 l 743 0 l 701 167 l 322 167 l 253 0 l -3 0 m 396 351 l 658 351 l 578 681 q 574 694 576 688 q 570 709 572 701 q 567 724 568 717 q 564 739 565 732 l 557 739 q 551 724 554 732 q 544 709 547 717 q 539 694 542 701 q 533 681 536 688 l 396 351 z "},"Ǽ":{"ha":1403,"x_min":-3,"x_max":1336,"o":"m -3 0 l 429 954 l 1326 954 l 1326 760 l 796 760 l 842 581 l 1257 581 l 1257 390 l 888 390 l 938 194 l 1336 194 l 1336 0 l 743 0 l 701 167 l 322 167 l 253 0 l -3 0 m 396 351 l 658 351 l 578 681 q 574 694 576 688 q 570 709 572 701 q 567 724 568 717 q 564 739 565 732 l 557 739 q 551 724 554 732 q 544 709 547 717 q 539 694 542 701 q 533 681 536 688 l 396 351 m 597 1035 l 718 1218 l 958 1218 l 960 1214 l 771 1035 l 597 1035 z "},"B":{"ha":1035,"x_min":104,"x_max":976,"o":"m 104 0 l 104 954 l 688 954 q 821 925 761 954 q 916 843 881 896 q 951 719 951 790 q 930 613 951 657 q 873 540 908 568 q 793 499 838 513 l 793 493 q 886 453 844 482 q 952 376 928 425 q 976 258 976 328 q 938 119 976 176 q 835 31 899 61 q 692 0 771 0 l 104 0 m 353 192 l 624 192 q 695 218 668 192 q 722 299 722 244 q 710 351 722 328 q 676 386 699 374 q 619 399 653 399 l 353 399 l 353 192 m 353 575 l 601 575 q 653 588 632 575 q 687 622 675 600 q 699 675 699 644 q 672 744 699 719 q 606 769 646 769 l 353 769 l 353 575 z "},"C":{"ha":1044,"x_min":63,"x_max":985,"o":"m 543 -17 q 281 37 389 -17 q 118 200 174 90 q 63 478 63 310 q 187 848 63 725 q 543 971 311 971 q 772 927 672 971 q 928 797 872 883 q 985 581 985 710 l 742 581 q 717 685 742 642 q 649 753 693 729 q 543 776 606 776 q 415 744 465 776 q 342 653 365 713 q 318 508 318 593 l 318 446 q 342 301 318 361 q 415 209 365 240 q 542 178 464 178 q 655 200 608 178 q 726 266 701 222 q 750 371 750 310 l 985 371 q 930 156 985 242 q 776 26 875 69 q 543 -17 676 -17 z "},"Ć":{"ha":1044,"x_min":63,"x_max":985,"o":"m 543 -17 q 281 37 389 -17 q 118 200 174 90 q 63 478 63 310 q 187 848 63 725 q 543 971 311 971 q 772 927 672 971 q 928 797 872 883 q 985 581 985 710 l 742 581 q 717 685 742 642 q 649 753 693 729 q 543 776 606 776 q 415 744 465 776 q 342 653 365 713 q 318 508 318 593 l 318 446 q 342 301 318 361 q 415 209 365 240 q 542 178 464 178 q 655 200 608 178 q 726 266 701 222 q 750 371 750 310 l 985 371 q 930 156 985 242 q 776 26 875 69 q 543 -17 676 -17 m 429 1035 l 550 1218 l 790 1218 l 793 1214 l 604 1035 l 429 1035 z "},"Č":{"ha":1044,"x_min":63,"x_max":985,"o":"m 543 -17 q 281 37 389 -17 q 118 200 174 90 q 63 478 63 310 q 187 848 63 725 q 543 971 311 971 q 772 927 672 971 q 928 797 872 883 q 985 581 985 710 l 742 581 q 717 685 742 642 q 649 753 693 729 q 543 776 606 776 q 415 744 465 776 q 342 653 365 713 q 318 508 318 593 l 318 446 q 342 301 318 361 q 415 209 365 240 q 542 178 464 178 q 655 200 608 178 q 726 266 701 222 q 750 371 750 310 l 985 371 q 930 156 985 242 q 776 26 875 69 q 543 -17 676 -17 m 263 1218 l 446 1218 l 576 1085 l 497 1085 l 626 1218 l 811 1218 l 644 1035 l 431 1035 l 263 1218 z "},"Ç":{"ha":1044,"x_min":63,"x_max":985,"o":"m 543 -17 q 281 37 389 -17 q 118 200 174 90 q 63 478 63 310 q 187 848 63 725 q 543 971 311 971 q 772 927 672 971 q 928 797 872 883 q 985 581 985 710 l 742 581 q 717 685 742 642 q 649 753 693 729 q 543 776 606 776 q 415 744 465 776 q 342 653 365 713 q 318 508 318 593 l 318 446 q 342 301 318 361 q 415 209 365 240 q 542 178 464 178 q 655 200 608 178 q 726 266 701 222 q 750 371 750 310 l 985 371 q 930 156 985 242 q 776 26 875 69 q 543 -17 676 -17 m 542 -275 q 454 -270 500 -275 q 378 -257 408 -265 l 378 -183 l 515 -183 q 557 -178 542 -183 q 572 -151 572 -172 q 561 -126 572 -133 q 518 -118 550 -118 l 460 -118 l 483 36 l 606 36 l 593 -43 q 652 -58 624 -46 q 699 -92 681 -69 q 717 -153 717 -115 q 699 -215 717 -190 q 655 -251 682 -239 q 598 -269 628 -264 q 542 -275 568 -275 z "},"Ĉ":{"ha":1044,"x_min":63,"x_max":985,"o":"m 543 -17 q 281 37 389 -17 q 118 200 174 90 q 63 478 63 310 q 187 848 63 725 q 543 971 311 971 q 772 927 672 971 q 928 797 872 883 q 985 581 985 710 l 742 581 q 717 685 742 642 q 649 753 693 729 q 543 776 606 776 q 415 744 465 776 q 342 653 365 713 q 318 508 318 593 l 318 446 q 342 301 318 361 q 415 209 365 240 q 542 178 464 178 q 655 200 608 178 q 726 266 701 222 q 750 371 750 310 l 985 371 q 930 156 985 242 q 776 26 875 69 q 543 -17 676 -17 m 263 1035 l 431 1218 l 644 1218 l 811 1035 l 626 1035 l 497 1168 l 576 1168 l 446 1035 l 263 1035 z "},"Ċ":{"ha":1044,"x_min":63,"x_max":985,"o":"m 543 -17 q 281 37 389 -17 q 118 200 174 90 q 63 478 63 310 q 187 848 63 725 q 543 971 311 971 q 772 927 672 971 q 928 797 872 883 q 985 581 985 710 l 742 581 q 717 685 742 642 q 649 753 693 729 q 543 776 606 776 q 415 744 465 776 q 342 653 365 713 q 318 508 318 593 l 318 446 q 342 301 318 361 q 415 209 365 240 q 542 178 464 178 q 655 200 608 178 q 726 266 701 222 q 750 371 750 310 l 985 371 q 930 156 985 242 q 776 26 875 69 q 543 -17 676 -17 m 443 1043 l 443 1224 l 633 1224 l 633 1043 l 443 1043 z "},"D":{"ha":1049,"x_min":104,"x_max":986,"o":"m 104 0 l 104 954 l 503 954 q 766 903 658 954 q 930 747 874 851 q 986 478 986 642 q 930 209 986 315 q 766 51 874 103 q 503 0 658 0 l 104 0 m 353 194 l 500 194 q 601 211 558 194 q 674 260 644 228 q 717 339 703 292 q 731 447 731 386 l 731 506 q 717 615 731 568 q 674 694 703 663 q 601 743 644 726 q 500 760 558 760 l 353 760 l 353 194 z "},"Ǆ":{"ha":1982,"x_min":104,"x_max":1935,"o":"m 104 0 l 104 954 l 503 954 q 766 903 658 954 q 930 747 874 851 q 986 478 986 642 q 930 209 986 315 q 766 51 874 103 q 503 0 658 0 l 104 0 m 353 194 l 500 194 q 601 211 558 194 q 674 260 644 228 q 717 339 703 292 q 731 447 731 386 l 731 506 q 717 615 731 568 q 674 694 703 663 q 601 743 644 726 q 500 760 558 760 l 353 760 l 353 194 m 1071 0 l 1071 93 l 1544 760 l 1106 760 l 1106 954 l 1924 954 l 1924 861 l 1450 194 l 1935 194 l 1935 0 l 1071 0 m 1236 1218 l 1421 1218 l 1550 1085 l 1471 1085 l 1600 1218 l 1786 1218 l 1618 1035 l 1406 1035 l 1236 1218 z "},"Ð":{"ha":1049,"x_min":0,"x_max":986,"o":"m 0 400 l 0 567 l 538 567 l 538 400 l 0 400 m 104 0 l 104 954 l 503 954 q 766 903 658 954 q 930 747 874 851 q 986 478 986 642 q 930 209 986 315 q 766 51 874 103 q 503 0 658 0 l 104 0 m 353 194 l 500 194 q 601 211 558 194 q 674 260 644 228 q 717 339 703 292 q 731 447 731 386 l 731 506 q 717 615 731 568 q 674 694 703 663 q 601 743 644 726 q 500 760 558 760 l 353 760 l 353 194 z "},"Ď":{"ha":1049,"x_min":104,"x_max":986,"o":"m 104 0 l 104 954 l 503 954 q 766 903 658 954 q 930 747 874 851 q 986 478 986 642 q 930 209 986 315 q 766 51 874 103 q 503 0 658 0 l 104 0 m 353 194 l 500 194 q 601 211 558 194 q 674 260 644 228 q 717 339 703 292 q 731 447 731 386 l 731 506 q 717 615 731 568 q 674 694 703 663 q 601 743 644 726 q 500 760 558 760 l 353 760 l 353 194 m 246 1218 l 429 1218 l 560 1085 l 481 1085 l 610 1218 l 794 1218 l 628 1035 l 414 1035 l 246 1218 z "},"Đ":{"ha":1049,"x_min":0,"x_max":986,"o":"m 0 400 l 0 567 l 538 567 l 538 400 l 0 400 m 104 0 l 104 954 l 503 954 q 766 903 658 954 q 930 747 874 851 q 986 478 986 642 q 930 209 986 315 q 766 51 874 103 q 503 0 658 0 l 104 0 m 353 194 l 500 194 q 601 211 558 194 q 674 260 644 228 q 717 339 703 292 q 731 447 731 386 l 731 506 q 717 615 731 568 q 674 694 703 663 q 601 743 644 726 q 500 760 558 760 l 353 760 l 353 194 z "},"ǅ":{"ha":1792,"x_min":104,"x_max":1757,"o":"m 104 0 l 104 954 l 503 954 q 766 903 658 954 q 930 747 874 851 q 986 478 986 642 q 930 209 986 315 q 766 51 874 103 q 503 0 658 0 l 104 0 m 353 194 l 500 194 q 601 211 558 194 q 674 260 644 228 q 717 339 703 292 q 731 447 731 386 l 731 506 q 717 615 731 568 q 674 694 703 663 q 601 743 644 726 q 500 760 558 760 l 353 760 l 353 194 m 1079 0 l 1079 85 l 1415 567 l 1099 567 l 1099 732 l 1743 732 l 1743 650 l 1404 165 l 1757 165 l 1757 0 l 1079 0 m 1153 1006 l 1331 1006 l 1460 872 l 1381 872 l 1510 1006 l 1689 1006 l 1521 822 l 1322 822 l 1153 1006 z "},"E":{"ha":971,"x_min":107,"x_max":904,"o":"m 107 0 l 107 954 l 894 954 l 894 760 l 356 760 l 356 581 l 826 581 l 826 390 l 356 390 l 356 194 l 904 194 l 904 0 l 107 0 z "},"É":{"ha":971,"x_min":107,"x_max":904,"o":"m 107 0 l 107 954 l 894 954 l 894 760 l 356 760 l 356 581 l 826 581 l 826 390 l 356 390 l 356 194 l 904 194 l 904 0 l 107 0 m 397 1035 l 518 1218 l 758 1218 l 761 1214 l 571 1035 l 397 1035 z "},"Ĕ":{"ha":971,"x_min":107,"x_max":904,"o":"m 107 0 l 107 954 l 894 954 l 894 760 l 356 760 l 356 581 l 826 581 l 826 390 l 356 390 l 356 194 l 904 194 l 904 0 l 107 0 m 504 1026 q 372 1056 425 1026 q 293 1130 319 1085 q 267 1218 267 1175 l 390 1218 q 407 1188 393 1204 q 445 1160 421 1171 q 506 1149 469 1149 q 565 1160 540 1149 q 605 1188 590 1171 q 621 1218 619 1204 l 744 1218 q 717 1130 744 1175 q 638 1056 690 1085 q 504 1026 585 1026 z "},"Ě":{"ha":971,"x_min":107,"x_max":904,"o":"m 107 0 l 107 954 l 894 954 l 894 760 l 356 760 l 356 581 l 826 581 l 826 390 l 356 390 l 356 194 l 904 194 l 904 0 l 107 0 m 231 1218 l 414 1218 l 544 1085 l 465 1085 l 594 1218 l 779 1218 l 613 1035 l 399 1035 l 231 1218 z "},"Ê":{"ha":971,"x_min":107,"x_max":904,"o":"m 107 0 l 107 954 l 894 954 l 894 760 l 356 760 l 356 581 l 826 581 l 826 390 l 356 390 l 356 194 l 904 194 l 904 0 l 107 0 m 231 1035 l 399 1218 l 613 1218 l 779 1035 l 594 1035 l 465 1168 l 544 1168 l 414 1035 l 231 1035 z "},"Ế":{"ha":971,"x_min":107,"x_max":904,"o":"m 107 0 l 107 954 l 894 954 l 894 760 l 356 760 l 356 581 l 826 581 l 826 390 l 356 390 l 356 194 l 904 194 l 904 0 l 107 0 m 231 1035 l 399 1218 l 613 1218 l 779 1035 l 594 1035 l 465 1168 l 544 1168 l 414 1035 l 231 1035 m 397 1261 l 518 1444 l 758 1444 l 761 1440 l 571 1261 l 397 1261 z "},"Ệ":{"ha":971,"x_min":107,"x_max":904,"o":"m 107 0 l 107 954 l 894 954 l 894 760 l 356 760 l 356 581 l 826 581 l 826 390 l 356 390 l 356 194 l 904 194 l 904 0 l 107 0 m 411 -271 l 411 -96 l 601 -96 l 601 -271 l 411 -271 m 231 1035 l 399 1218 l 613 1218 l 779 1035 l 594 1035 l 465 1168 l 544 1168 l 414 1035 l 231 1035 z "},"Ề":{"ha":971,"x_min":107,"x_max":904,"o":"m 107 0 l 107 954 l 894 954 l 894 760 l 356 760 l 356 581 l 826 581 l 826 390 l 356 390 l 356 194 l 904 194 l 904 0 l 107 0 m 231 1035 l 399 1218 l 613 1218 l 779 1035 l 594 1035 l 465 1168 l 544 1168 l 414 1035 l 231 1035 m 629 1261 l 456 1261 l 267 1440 l 268 1444 l 508 1444 l 629 1261 z "},"Ể":{"ha":971,"x_min":107,"x_max":904,"o":"m 107 0 l 107 954 l 894 954 l 894 760 l 356 760 l 356 581 l 826 581 l 826 390 l 356 390 l 356 194 l 904 194 l 904 0 l 107 0 m 231 1035 l 399 1218 l 613 1218 l 779 1035 l 594 1035 l 465 1168 l 544 1168 l 414 1035 l 231 1035 m 454 1257 l 454 1335 l 471 1335 q 505 1340 496 1335 q 514 1360 514 1346 q 501 1380 514 1375 q 467 1385 489 1385 l 385 1385 l 385 1450 q 424 1456 401 1454 q 467 1460 446 1458 q 507 1461 489 1461 q 559 1457 531 1461 q 613 1443 588 1453 q 654 1417 638 1433 q 671 1372 671 1400 q 654 1329 671 1346 q 611 1304 638 1313 q 556 1293 585 1296 l 556 1257 l 454 1257 z "},"Ễ":{"ha":971,"x_min":107,"x_max":904,"o":"m 107 0 l 107 954 l 894 954 l 894 760 l 356 760 l 356 581 l 826 581 l 826 390 l 356 390 l 356 194 l 904 194 l 904 0 l 107 0 m 231 1035 l 399 1218 l 613 1218 l 779 1035 l 594 1035 l 465 1168 l 544 1168 l 414 1035 l 231 1035 m 232 1265 q 251 1355 232 1313 q 307 1422 269 1397 q 396 1447 344 1447 q 474 1435 438 1447 q 544 1409 510 1422 q 615 1396 579 1396 q 653 1409 638 1396 q 674 1447 668 1422 l 778 1447 q 758 1360 778 1401 q 702 1292 739 1318 q 613 1265 665 1265 q 535 1278 572 1265 q 464 1305 499 1292 q 394 1318 429 1318 q 357 1305 372 1318 q 336 1265 342 1292 l 232 1265 z "},"Ȅ":{"ha":971,"x_min":107,"x_max":904,"o":"m 107 0 l 107 954 l 894 954 l 894 760 l 356 760 l 356 581 l 826 581 l 826 390 l 356 390 l 356 194 l 904 194 l 904 0 l 107 0 m 594 1035 l 425 1214 l 426 1218 l 653 1218 l 757 1035 l 594 1035 m 304 1035 l 133 1214 l 136 1218 l 361 1218 l 465 1035 l 304 1035 z "},"Ë":{"ha":971,"x_min":107,"x_max":904,"o":"m 107 0 l 107 954 l 894 954 l 894 760 l 356 760 l 356 581 l 826 581 l 826 390 l 356 390 l 356 194 l 904 194 l 904 0 l 107 0 m 265 1043 l 265 1218 l 449 1218 l 449 1043 l 265 1043 m 560 1043 l 560 1218 l 744 1218 l 744 1043 l 560 1043 z "},"Ė":{"ha":971,"x_min":107,"x_max":904,"o":"m 107 0 l 107 954 l 894 954 l 894 760 l 356 760 l 356 581 l 826 581 l 826 390 l 356 390 l 356 194 l 904 194 l 904 0 l 107 0 m 411 1043 l 411 1224 l 601 1224 l 601 1043 l 411 1043 z "},"Ẹ":{"ha":971,"x_min":107,"x_max":904,"o":"m 107 0 l 107 954 l 894 954 l 894 760 l 356 760 l 356 581 l 826 581 l 826 390 l 356 390 l 356 194 l 904 194 l 904 0 l 107 0 m 411 -271 l 411 -96 l 601 -96 l 601 -271 l 411 -271 z "},"È":{"ha":971,"x_min":107,"x_max":904,"o":"m 107 0 l 107 954 l 894 954 l 894 760 l 356 760 l 356 581 l 826 581 l 826 390 l 356 390 l 356 194 l 904 194 l 904 0 l 107 0 m 629 1035 l 456 1035 l 267 1214 l 268 1218 l 508 1218 l 629 1035 z "},"Ẻ":{"ha":971,"x_min":107,"x_max":904,"o":"m 107 0 l 107 954 l 894 954 l 894 760 l 356 760 l 356 581 l 826 581 l 826 390 l 356 390 l 356 194 l 904 194 l 904 0 l 107 0 m 454 1032 l 454 1110 l 471 1110 q 505 1115 496 1110 q 514 1133 514 1119 q 501 1153 514 1149 q 467 1158 489 1158 l 385 1158 l 385 1224 q 424 1230 401 1228 q 467 1233 446 1232 q 507 1235 489 1235 q 559 1231 531 1235 q 613 1217 588 1226 q 654 1190 638 1207 q 671 1147 671 1174 q 654 1103 671 1119 q 611 1078 638 1086 q 556 1067 585 1069 l 556 1032 l 454 1032 z "},"Ȇ":{"ha":971,"x_min":107,"x_max":904,"o":"m 107 0 l 107 954 l 894 954 l 894 760 l 356 760 l 356 581 l 826 581 l 826 390 l 356 390 l 356 194 l 904 194 l 904 0 l 107 0 m 267 1026 q 294 1116 267 1072 q 374 1189 321 1160 q 506 1218 428 1218 q 639 1189 586 1218 q 718 1116 692 1160 q 744 1026 744 1072 l 619 1026 q 603 1058 617 1042 q 566 1085 590 1074 q 506 1096 542 1096 q 446 1085 471 1096 q 406 1058 421 1074 q 390 1026 392 1042 l 267 1026 z "},"Ē":{"ha":971,"x_min":107,"x_max":904,"o":"m 107 0 l 107 954 l 894 954 l 894 760 l 356 760 l 356 581 l 826 581 l 826 390 l 356 390 l 356 194 l 904 194 l 904 0 l 107 0 m 288 1043 l 288 1171 l 721 1171 l 721 1043 l 288 1043 z "},"Ę":{"ha":971,"x_min":107,"x_max":904,"o":"m 107 0 l 107 954 l 894 954 l 894 760 l 356 760 l 356 581 l 826 581 l 826 390 l 356 390 l 356 194 l 904 194 l 904 0 l 107 0 m 772 -275 q 695 -261 732 -275 q 635 -216 658 -247 q 611 -132 611 -185 q 634 -46 611 -81 q 682 17 657 -11 l 811 17 l 811 11 q 777 -31 792 -4 q 763 -86 763 -58 q 780 -140 763 -117 q 833 -162 797 -162 l 904 -162 l 904 -254 q 838 -269 875 -264 q 772 -275 801 -275 z "},"Ẽ":{"ha":971,"x_min":107,"x_max":904,"o":"m 107 0 l 107 954 l 894 954 l 894 760 l 356 760 l 356 581 l 826 581 l 826 390 l 356 390 l 356 194 l 904 194 l 904 0 l 107 0 m 232 1039 q 251 1129 232 1088 q 307 1197 269 1171 q 396 1222 344 1222 q 474 1209 438 1222 q 544 1183 510 1196 q 615 1169 579 1169 q 653 1183 638 1169 q 674 1222 668 1196 l 778 1222 q 758 1133 778 1175 q 702 1065 739 1092 q 613 1039 665 1039 q 535 1052 572 1039 q 464 1079 499 1065 q 394 1093 429 1093 q 357 1079 372 1093 q 336 1039 342 1065 l 232 1039 z "},"F":{"ha":890,"x_min":104,"x_max":836,"o":"m 104 0 l 104 954 l 836 954 l 836 760 l 353 760 l 353 554 l 778 554 l 778 364 l 353 364 l 353 0 l 104 0 z "},"G":{"ha":1132,"x_min":68,"x_max":1040,"o":"m 539 -17 q 188 106 308 -17 q 68 478 68 228 q 127 752 68 643 q 299 916 186 861 q 572 971 413 971 q 753 949 668 971 q 903 883 838 926 q 1004 773 968 839 q 1040 618 1040 707 l 796 618 q 779 685 796 656 q 733 735 763 715 q 664 766 703 756 q 582 776 625 776 q 469 760 518 776 q 388 708 419 743 q 340 624 356 674 q 324 507 324 574 l 324 446 q 351 297 324 357 q 435 208 379 238 q 574 178 492 178 q 688 197 638 178 q 769 253 739 217 q 799 342 799 290 l 799 349 l 542 349 l 542 524 l 1040 524 l 1040 0 l 896 0 l 872 100 q 780 35 829 61 q 672 -4 731 8 q 539 -17 613 -17 z "},"Ğ":{"ha":1132,"x_min":68,"x_max":1040,"o":"m 539 -17 q 188 106 308 -17 q 68 478 68 228 q 127 752 68 643 q 299 916 186 861 q 572 971 413 971 q 753 949 668 971 q 903 883 838 926 q 1004 773 968 839 q 1040 618 1040 707 l 796 618 q 779 685 796 656 q 733 735 763 715 q 664 766 703 756 q 582 776 625 776 q 469 760 518 776 q 388 708 419 743 q 340 624 356 674 q 324 507 324 574 l 324 446 q 351 297 324 357 q 435 208 379 238 q 574 178 492 178 q 688 197 638 178 q 769 253 739 217 q 799 342 799 290 l 799 349 l 542 349 l 542 524 l 1040 524 l 1040 0 l 896 0 l 872 100 q 780 35 829 61 q 672 -4 731 8 q 539 -17 613 -17 m 563 1026 q 429 1056 482 1026 q 350 1130 376 1085 q 324 1218 324 1175 l 449 1218 q 465 1188 451 1204 q 503 1160 478 1171 q 563 1149 528 1149 q 622 1160 597 1149 q 662 1188 647 1171 q 678 1218 676 1204 l 801 1218 q 774 1130 801 1175 q 694 1056 747 1085 q 563 1026 642 1026 z "},"Ǧ":{"ha":1132,"x_min":68,"x_max":1040,"o":"m 539 -17 q 188 106 308 -17 q 68 478 68 228 q 127 752 68 643 q 299 916 186 861 q 572 971 413 971 q 753 949 668 971 q 903 883 838 926 q 1004 773 968 839 q 1040 618 1040 707 l 796 618 q 779 685 796 656 q 733 735 763 715 q 664 766 703 756 q 582 776 625 776 q 469 760 518 776 q 388 708 419 743 q 340 624 356 674 q 324 507 324 574 l 324 446 q 351 297 324 357 q 435 208 379 238 q 574 178 492 178 q 688 197 638 178 q 769 253 739 217 q 799 342 799 290 l 799 349 l 542 349 l 542 524 l 1040 524 l 1040 0 l 896 0 l 872 100 q 780 35 829 61 q 672 -4 731 8 q 539 -17 613 -17 m 288 1218 l 471 1218 l 601 1085 l 522 1085 l 651 1218 l 838 1218 l 669 1035 l 456 1035 l 288 1218 z "},"Ĝ":{"ha":1132,"x_min":68,"x_max":1040,"o":"m 539 -17 q 188 106 308 -17 q 68 478 68 228 q 127 752 68 643 q 299 916 186 861 q 572 971 413 971 q 753 949 668 971 q 903 883 838 926 q 1004 773 968 839 q 1040 618 1040 707 l 796 618 q 779 685 796 656 q 733 735 763 715 q 664 766 703 756 q 582 776 625 776 q 469 760 518 776 q 388 708 419 743 q 340 624 356 674 q 324 507 324 574 l 324 446 q 351 297 324 357 q 435 208 379 238 q 574 178 492 178 q 688 197 638 178 q 769 253 739 217 q 799 342 799 290 l 799 349 l 542 349 l 542 524 l 1040 524 l 1040 0 l 896 0 l 872 100 q 780 35 829 61 q 672 -4 731 8 q 539 -17 613 -17 m 288 1035 l 456 1218 l 669 1218 l 838 1035 l 651 1035 l 522 1168 l 601 1168 l 471 1035 l 288 1035 z "},"Ģ":{"ha":1132,"x_min":68,"x_max":1040,"o":"m 539 -17 q 188 106 308 -17 q 68 478 68 228 q 127 752 68 643 q 299 916 186 861 q 572 971 413 971 q 753 949 668 971 q 903 883 838 926 q 1004 773 968 839 q 1040 618 1040 707 l 796 618 q 779 685 796 656 q 733 735 763 715 q 664 766 703 756 q 582 776 625 776 q 469 760 518 776 q 388 708 419 743 q 340 624 356 674 q 324 507 324 574 l 324 446 q 351 297 324 357 q 435 208 379 238 q 574 178 492 178 q 688 197 638 178 q 769 253 739 217 q 799 342 799 290 l 799 349 l 542 349 l 542 524 l 1040 524 l 1040 0 l 896 0 l 872 100 q 780 35 829 61 q 672 -4 731 8 q 539 -17 613 -17 m 460 -446 l 460 -364 q 533 -340 511 -364 q 554 -271 554 -317 l 465 -271 l 465 -90 l 656 -90 l 656 -233 q 633 -358 656 -311 q 567 -425 611 -404 q 460 -446 524 -446 z "},"Ġ":{"ha":1132,"x_min":68,"x_max":1040,"o":"m 539 -17 q 188 106 308 -17 q 68 478 68 228 q 127 752 68 643 q 299 916 186 861 q 572 971 413 971 q 753 949 668 971 q 903 883 838 926 q 1004 773 968 839 q 1040 618 1040 707 l 796 618 q 779 685 796 656 q 733 735 763 715 q 664 766 703 756 q 582 776 625 776 q 469 760 518 776 q 388 708 419 743 q 340 624 356 674 q 324 507 324 574 l 324 446 q 351 297 324 357 q 435 208 379 238 q 574 178 492 178 q 688 197 638 178 q 769 253 739 217 q 799 342 799 290 l 799 349 l 542 349 l 542 524 l 1040 524 l 1040 0 l 896 0 l 872 100 q 780 35 829 61 q 672 -4 731 8 q 539 -17 613 -17 m 468 1043 l 468 1224 l 658 1224 l 658 1043 l 468 1043 z "},"H":{"ha":1093,"x_min":104,"x_max":989,"o":"m 104 0 l 104 954 l 353 954 l 353 588 l 740 588 l 740 954 l 989 954 l 989 0 l 740 0 l 740 385 l 353 385 l 353 0 l 104 0 z "},"Ħ":{"ha":1093,"x_min":8,"x_max":1083,"o":"m 104 0 l 104 954 l 353 954 l 353 588 l 740 588 l 740 954 l 989 954 l 989 0 l 740 0 l 740 385 l 353 385 l 353 0 l 104 0 m 8 706 l 8 857 l 1083 857 l 1083 706 l 8 706 z "},"Ĥ":{"ha":1093,"x_min":104,"x_max":989,"o":"m 104 0 l 104 954 l 353 954 l 353 588 l 740 588 l 740 954 l 989 954 l 989 0 l 740 0 l 740 385 l 353 385 l 353 0 l 104 0 m 272 1035 l 440 1218 l 653 1218 l 821 1035 l 636 1035 l 507 1168 l 586 1168 l 456 1035 l 272 1035 z "},"Ḥ":{"ha":1093,"x_min":104,"x_max":989,"o":"m 104 0 l 104 954 l 353 954 l 353 588 l 740 588 l 740 954 l 989 954 l 989 0 l 740 0 l 740 385 l 353 385 l 353 0 l 104 0 m 449 -271 l 449 -96 l 640 -96 l 640 -271 l 449 -271 z "},"I":{"ha":457,"x_min":104,"x_max":353,"o":"m 104 0 l 104 954 l 353 954 l 353 0 l 104 0 z "},"Ĳ":{"ha":1332,"x_min":104,"x_max":1231,"o":"m 104 0 l 104 954 l 353 954 l 353 0 l 104 0 m 864 -17 q 667 17 749 -17 q 541 122 585 51 q 497 301 497 192 l 497 332 l 736 332 l 736 301 q 767 208 736 238 q 858 178 797 178 q 950 215 919 178 q 981 331 981 253 l 981 954 l 1231 954 l 1231 329 q 1187 134 1231 211 q 1061 20 1143 57 q 864 -17 979 -17 z "},"Í":{"ha":457,"x_min":104,"x_max":485,"o":"m 104 0 l 104 954 l 353 954 l 353 0 l 104 0 m 121 1035 l 242 1218 l 483 1218 l 485 1214 l 296 1035 l 121 1035 z "},"Ĭ":{"ha":457,"x_min":-8,"x_max":468,"o":"m 104 0 l 104 954 l 353 954 l 353 0 l 104 0 m 229 1026 q 96 1056 149 1026 q 17 1130 43 1085 q -8 1218 -8 1175 l 115 1218 q 131 1188 118 1204 q 169 1160 144 1171 q 229 1149 194 1149 q 290 1160 264 1149 q 329 1188 315 1171 q 346 1218 343 1204 l 468 1218 q 442 1130 468 1175 q 362 1056 415 1085 q 229 1026 308 1026 z "},"Ǐ":{"ha":457,"x_min":-44,"x_max":504,"o":"m 104 0 l 104 954 l 353 954 l 353 0 l 104 0 m -44 1218 l 139 1218 l 268 1085 l 189 1085 l 319 1218 l 504 1218 l 336 1035 l 124 1035 l -44 1218 z "},"Î":{"ha":457,"x_min":-44,"x_max":504,"o":"m 104 0 l 104 954 l 353 954 l 353 0 l 104 0 m -44 1035 l 124 1218 l 336 1218 l 504 1035 l 319 1035 l 189 1168 l 268 1168 l 139 1035 l -44 1035 z "},"Ȉ":{"ha":457,"x_min":-142,"x_max":481,"o":"m 104 0 l 104 954 l 353 954 l 353 0 l 104 0 m 319 1035 l 149 1214 l 151 1218 l 376 1218 l 481 1035 l 319 1035 m 28 1035 l -142 1214 l -140 1218 l 86 1218 l 190 1035 l 28 1035 z "},"Ï":{"ha":457,"x_min":-10,"x_max":468,"o":"m 104 0 l 104 954 l 353 954 l 353 0 l 104 0 m -10 1043 l -10 1218 l 174 1218 l 174 1043 l -10 1043 m 285 1043 l 285 1218 l 468 1218 l 468 1043 l 285 1043 z "},"İ":{"ha":457,"x_min":104,"x_max":353,"o":"m 104 0 l 104 954 l 353 954 l 353 0 l 104 0 m 135 1043 l 135 1224 l 326 1224 l 326 1043 l 135 1043 z "},"Ị":{"ha":457,"x_min":104,"x_max":353,"o":"m 104 0 l 104 954 l 353 954 l 353 0 l 104 0 m 133 -271 l 133 -96 l 324 -96 l 324 -271 l 133 -271 z "},"Ì":{"ha":457,"x_min":-10,"x_max":354,"o":"m 104 0 l 104 954 l 353 954 l 353 0 l 104 0 m 354 1035 l 179 1035 l -10 1214 l -7 1218 l 233 1218 l 354 1035 z "},"Ỉ":{"ha":457,"x_min":104,"x_max":396,"o":"m 104 0 l 104 954 l 353 954 l 353 0 l 104 0 m 179 1032 l 179 1110 l 196 1110 q 228 1115 219 1110 q 238 1133 238 1119 q 226 1153 238 1149 q 190 1158 214 1158 l 110 1158 l 110 1224 q 148 1230 126 1228 q 192 1233 169 1232 q 231 1235 214 1235 q 283 1231 254 1235 q 338 1217 313 1226 q 379 1190 363 1207 q 396 1147 396 1174 q 379 1103 396 1119 q 336 1078 363 1086 q 279 1067 310 1069 l 279 1032 l 179 1032 z "},"Ȋ":{"ha":457,"x_min":-8,"x_max":468,"o":"m 104 0 l 104 954 l 353 954 l 353 0 l 104 0 m -8 1026 q 18 1116 -8 1072 q 98 1189 44 1160 q 231 1218 151 1218 q 364 1189 311 1218 q 442 1116 417 1160 q 468 1026 468 1072 l 344 1026 q 328 1058 342 1042 q 290 1085 314 1074 q 231 1096 265 1096 q 170 1085 196 1096 q 131 1058 144 1074 q 114 1026 117 1042 l -8 1026 z "},"Ī":{"ha":457,"x_min":13,"x_max":444,"o":"m 104 0 l 104 954 l 353 954 l 353 0 l 104 0 m 13 1043 l 13 1171 l 444 1171 l 444 1043 l 13 1043 z "},"Į":{"ha":457,"x_min":63,"x_max":356,"o":"m 104 0 l 104 954 l 353 954 l 353 0 l 104 0 m 225 -275 q 147 -261 185 -275 q 86 -216 110 -247 q 63 -132 63 -185 q 85 -46 63 -81 q 135 17 108 -11 l 264 17 l 264 11 q 229 -31 243 -4 q 215 -86 215 -58 q 232 -140 215 -117 q 286 -162 249 -162 l 356 -162 l 356 -254 q 290 -269 326 -264 q 225 -275 254 -275 z "},"Ĩ":{"ha":457,"x_min":-44,"x_max":501,"o":"m 104 0 l 104 954 l 353 954 l 353 0 l 104 0 m -44 1039 q -25 1129 -44 1088 q 31 1197 -6 1171 q 121 1222 68 1222 q 198 1209 161 1222 q 269 1183 235 1196 q 339 1169 304 1169 q 378 1183 363 1169 q 397 1222 393 1196 l 501 1222 q 483 1133 501 1175 q 427 1065 464 1092 q 336 1039 390 1039 q 260 1052 297 1039 q 188 1079 222 1065 q 119 1093 154 1093 q 81 1079 97 1093 q 61 1039 65 1065 l -44 1039 z "},"J":{"ha":875,"x_min":40,"x_max":772,"o":"m 407 -17 q 209 17 292 -17 q 83 122 126 51 q 40 301 40 192 l 40 332 l 278 332 l 278 301 q 309 208 278 238 q 401 178 340 178 q 492 215 461 178 q 524 331 524 253 l 524 954 l 772 954 l 772 329 q 729 134 772 211 q 604 20 686 57 q 407 -17 522 -17 z "},"Ĵ":{"ha":875,"x_min":40,"x_max":924,"o":"m 407 -17 q 209 17 292 -17 q 83 122 126 51 q 40 301 40 192 l 40 332 l 278 332 l 278 301 q 309 208 278 238 q 401 178 340 178 q 492 215 461 178 q 524 331 524 253 l 524 954 l 772 954 l 772 329 q 729 134 772 211 q 604 20 686 57 q 407 -17 522 -17 m 375 1035 l 543 1218 l 756 1218 l 924 1035 l 739 1035 l 608 1168 l 689 1168 l 558 1035 l 375 1035 z "},"K":{"ha":1069,"x_min":104,"x_max":1046,"o":"m 104 0 l 104 954 l 353 954 l 353 531 l 731 954 l 1039 954 l 683 564 l 1046 0 l 751 0 l 511 394 l 353 249 l 353 0 l 104 0 z "},"Ķ":{"ha":1069,"x_min":104,"x_max":1046,"o":"m 104 0 l 104 954 l 353 954 l 353 531 l 731 954 l 1039 954 l 683 564 l 1046 0 l 751 0 l 511 394 l 353 249 l 353 0 l 104 0 m 449 -446 l 449 -364 q 520 -340 499 -364 q 542 -271 542 -317 l 453 -271 l 453 -90 l 644 -90 l 644 -233 q 622 -358 644 -311 q 556 -425 599 -404 q 449 -446 513 -446 z "},"L":{"ha":865,"x_min":104,"x_max":838,"o":"m 104 0 l 104 954 l 353 954 l 353 204 l 838 204 l 838 0 l 104 0 z "},"Ǉ":{"ha":1711,"x_min":104,"x_max":1610,"o":"m 104 0 l 104 954 l 353 954 l 353 204 l 838 204 l 838 0 l 104 0 m 1244 -17 q 1047 17 1129 -17 q 921 122 964 51 q 878 301 878 192 l 878 332 l 1115 332 l 1115 301 q 1146 208 1115 238 q 1239 178 1176 178 q 1329 215 1299 178 q 1360 331 1360 253 l 1360 954 l 1610 954 l 1610 329 q 1567 134 1610 211 q 1442 20 1524 57 q 1244 -17 1360 -17 z "},"Ĺ":{"ha":865,"x_min":104,"x_max":838,"o":"m 104 0 l 104 954 l 353 954 l 353 204 l 838 204 l 838 0 l 104 0 m 121 1035 l 242 1218 l 482 1218 l 485 1214 l 294 1035 l 121 1035 z "},"Ľ":{"ha":865,"x_min":104,"x_max":838,"o":"m 104 0 l 104 954 l 353 954 l 353 204 l 838 204 l 838 0 l 104 0 m 567 771 l 567 1006 l 761 1006 l 708 771 l 567 771 z "},"Ļ":{"ha":865,"x_min":104,"x_max":838,"o":"m 104 0 l 104 954 l 353 954 l 353 204 l 838 204 l 838 0 l 104 0 m 378 -446 l 378 -364 q 449 -340 428 -364 q 471 -271 471 -317 l 382 -271 l 382 -90 l 574 -90 l 574 -235 q 551 -358 574 -311 q 485 -425 528 -404 q 378 -446 442 -446 z "},"Ŀ":{"ha":865,"x_min":104,"x_max":838,"o":"m 104 0 l 104 954 l 353 954 l 353 204 l 838 204 l 838 0 l 104 0 m 560 438 l 560 614 l 756 614 l 756 438 l 560 438 z "},"ǈ":{"ha":1263,"x_min":104,"x_max":1179,"o":"m 104 0 l 104 954 l 353 954 l 353 204 l 838 204 l 838 0 l 104 0 m 951 831 l 951 1006 l 1179 1006 l 1179 831 l 951 831 m 958 -274 q 910 -271 938 -274 q 856 -262 882 -268 q 810 -251 829 -257 l 810 -108 l 881 -108 q 934 -88 917 -108 q 951 -31 951 -68 l 951 732 l 1179 732 l 1179 -51 q 1158 -171 1179 -121 q 1088 -247 1136 -221 q 958 -274 1039 -274 z "},"Ł":{"ha":865,"x_min":0,"x_max":838,"o":"m 104 0 l 104 954 l 353 954 l 353 204 l 838 204 l 838 0 l 104 0 m 0 243 l 0 378 l 556 729 l 556 593 l 0 243 z "},"M":{"ha":1269,"x_min":104,"x_max":1165,"o":"m 104 0 l 104 954 l 467 954 l 582 529 q 599 469 589 507 q 618 389 608 431 q 635 314 628 347 l 646 314 q 660 377 651 340 q 678 455 668 414 q 696 531 688 496 l 813 954 l 1165 954 l 1165 0 l 924 0 l 924 407 q 924 528 924 467 q 926 639 925 589 q 928 711 928 689 l 917 711 q 903 651 913 690 q 884 569 894 611 q 865 496 874 526 l 726 0 l 526 0 l 386 496 q 369 563 379 524 q 351 642 360 601 q 335 710 342 682 l 324 710 q 326 622 325 674 q 329 513 328 569 q 331 407 331 457 l 331 0 l 104 0 z "},"N":{"ha":1093,"x_min":104,"x_max":989,"o":"m 104 0 l 104 954 l 325 954 l 672 511 q 698 479 682 500 q 729 437 714 458 q 751 403 744 415 l 758 404 q 758 463 758 435 q 758 511 758 492 l 758 954 l 989 954 l 989 0 l 769 0 l 401 467 q 367 513 383 489 q 342 551 351 536 l 335 550 q 335 505 335 528 q 335 467 335 482 l 335 0 l 104 0 z "},"Ǌ":{"ha":1967,"x_min":104,"x_max":1865,"o":"m 104 0 l 104 954 l 325 954 l 672 511 q 698 479 682 500 q 729 437 714 458 q 751 403 744 415 l 758 404 q 758 463 758 435 q 758 511 758 492 l 758 954 l 989 954 l 989 0 l 769 0 l 401 467 q 367 513 383 489 q 342 551 351 536 l 335 550 q 335 505 335 528 q 335 467 335 482 l 335 0 l 104 0 m 1500 -17 q 1302 17 1385 -17 q 1176 122 1219 51 q 1133 301 1133 192 l 1133 332 l 1371 332 l 1371 301 q 1402 208 1371 238 q 1494 178 1433 178 q 1585 215 1554 178 q 1615 331 1615 253 l 1615 954 l 1865 954 l 1865 329 q 1822 134 1865 211 q 1697 20 1779 57 q 1500 -17 1615 -17 z "},"Ń":{"ha":1093,"x_min":104,"x_max":989,"o":"m 104 0 l 104 954 l 325 954 l 672 511 q 698 479 682 500 q 729 437 714 458 q 751 403 744 415 l 758 404 q 758 463 758 435 q 758 511 758 492 l 758 954 l 989 954 l 989 0 l 769 0 l 401 467 q 367 513 383 489 q 342 551 351 536 l 335 550 q 335 505 335 528 q 335 467 335 482 l 335 0 l 104 0 m 439 1035 l 560 1218 l 800 1218 l 803 1214 l 614 1035 l 439 1035 z "},"Ň":{"ha":1093,"x_min":104,"x_max":989,"o":"m 104 0 l 104 954 l 325 954 l 672 511 q 698 479 682 500 q 729 437 714 458 q 751 403 744 415 l 758 404 q 758 463 758 435 q 758 511 758 492 l 758 954 l 989 954 l 989 0 l 769 0 l 401 467 q 367 513 383 489 q 342 551 351 536 l 335 550 q 335 505 335 528 q 335 467 335 482 l 335 0 l 104 0 m 272 1218 l 457 1218 l 586 1085 l 507 1085 l 636 1218 l 822 1218 l 654 1035 l 442 1035 l 272 1218 z "},"Ņ":{"ha":1093,"x_min":104,"x_max":989,"o":"m 104 0 l 104 954 l 325 954 l 672 511 q 698 479 682 500 q 729 437 714 458 q 751 403 744 415 l 758 404 q 758 463 758 435 q 758 511 758 492 l 758 954 l 989 954 l 989 0 l 769 0 l 401 467 q 367 513 383 489 q 342 551 351 536 l 335 550 q 335 505 335 528 q 335 467 335 482 l 335 0 l 104 0 m 444 -446 l 444 -364 q 516 -340 494 -364 q 538 -271 538 -317 l 449 -271 l 449 -90 l 640 -90 l 640 -233 q 618 -358 640 -311 q 552 -425 596 -404 q 444 -446 508 -446 z "},"Ŋ":{"ha":1093,"x_min":104,"x_max":989,"o":"m 768 -274 q 719 -271 747 -274 q 665 -262 692 -268 q 618 -251 638 -257 l 618 -107 l 689 -107 q 742 -87 725 -107 q 760 -31 760 -68 l 760 10 l 400 467 q 369 508 383 486 q 343 544 354 531 l 336 542 q 336 505 336 524 q 336 467 336 486 l 336 0 l 104 0 l 104 954 l 326 954 l 674 511 q 697 481 682 500 q 727 442 713 461 q 750 410 742 422 l 757 411 q 757 462 757 438 q 757 511 757 486 l 757 954 l 989 954 l 989 -51 q 977 -144 989 -103 q 938 -215 965 -186 q 869 -258 911 -243 q 768 -274 828 -274 z "},"Ɲ":{"ha":1093,"x_min":-36,"x_max":989,"o":"m 113 -274 q 64 -271 92 -274 q 9 -262 36 -268 q -36 -251 -18 -257 l -36 -107 l 33 -107 q 87 -87 69 -107 q 104 -31 104 -68 l 104 954 l 326 954 l 674 511 q 697 481 682 500 q 727 442 713 461 q 750 410 742 422 l 757 413 q 757 462 757 438 q 757 511 757 486 l 757 954 l 989 954 l 989 0 l 768 0 l 400 467 q 369 508 383 486 q 343 544 354 531 l 336 542 q 336 504 336 522 q 336 467 336 486 l 336 -51 q 324 -144 336 -103 q 284 -215 311 -186 q 215 -258 257 -243 q 113 -274 172 -274 z "},"ǋ":{"ha":1490,"x_min":104,"x_max":1407,"o":"m 104 0 l 104 954 l 325 954 l 672 511 q 698 479 682 500 q 729 437 714 458 q 751 403 744 415 l 758 404 q 758 463 758 435 q 758 511 758 492 l 758 954 l 989 954 l 989 0 l 769 0 l 401 467 q 367 513 383 489 q 342 551 351 536 l 335 550 q 335 505 335 528 q 335 467 335 482 l 335 0 l 104 0 m 1179 831 l 1179 1006 l 1407 1006 l 1407 831 l 1179 831 m 1186 -274 q 1138 -271 1165 -274 q 1084 -262 1111 -268 q 1039 -251 1057 -257 l 1039 -108 l 1110 -108 q 1163 -88 1146 -108 q 1179 -31 1179 -68 l 1179 732 l 1407 732 l 1407 -51 q 1385 -171 1407 -121 q 1315 -247 1364 -221 q 1186 -274 1267 -274 z "},"Ñ":{"ha":1093,"x_min":104,"x_max":989,"o":"m 104 0 l 104 954 l 325 954 l 672 511 q 698 479 682 500 q 729 437 714 458 q 751 403 744 415 l 758 404 q 758 463 758 435 q 758 511 758 492 l 758 954 l 989 954 l 989 0 l 769 0 l 401 467 q 367 513 383 489 q 342 551 351 536 l 335 550 q 335 505 335 528 q 335 467 335 482 l 335 0 l 104 0 m 274 1039 q 293 1129 274 1088 q 349 1197 313 1171 q 439 1222 386 1222 q 516 1209 479 1222 q 588 1183 553 1196 q 657 1169 622 1169 q 695 1183 681 1169 q 715 1222 710 1196 l 819 1222 q 800 1133 819 1175 q 744 1065 781 1092 q 654 1039 707 1039 q 577 1052 614 1039 q 506 1079 540 1065 q 438 1093 472 1093 q 399 1079 414 1093 q 378 1039 383 1065 l 274 1039 z "},"O":{"ha":1125,"x_min":63,"x_max":1063,"o":"m 563 -17 q 294 38 406 -17 q 122 203 182 93 q 63 478 63 313 q 122 752 63 643 q 294 916 182 861 q 563 971 406 971 q 831 916 719 971 q 1003 752 943 861 q 1063 478 1063 643 q 1003 203 1063 313 q 831 38 943 93 q 563 -17 719 -17 m 563 178 q 668 196 622 178 q 745 249 714 214 q 792 333 776 283 q 807 446 807 383 l 807 507 q 792 621 807 571 q 745 706 776 671 q 668 758 714 740 q 563 776 622 776 q 456 758 501 776 q 379 706 410 740 q 333 621 349 671 q 318 507 318 571 l 318 446 q 333 333 318 383 q 379 249 349 283 q 456 196 410 214 q 563 178 501 178 z "},"Ó":{"ha":1125,"x_min":63,"x_max":1063,"o":"m 563 -17 q 294 38 406 -17 q 122 203 182 93 q 63 478 63 313 q 122 752 63 643 q 294 916 182 861 q 563 971 406 971 q 831 916 719 971 q 1003 752 943 861 q 1063 478 1063 643 q 1003 203 1063 313 q 831 38 943 93 q 563 -17 719 -17 m 563 178 q 668 196 622 178 q 745 249 714 214 q 792 333 776 283 q 807 446 807 383 l 807 507 q 792 621 807 571 q 745 706 776 671 q 668 758 714 740 q 563 776 622 776 q 456 758 501 776 q 379 706 410 740 q 333 621 349 671 q 318 507 318 571 l 318 446 q 333 333 318 383 q 379 249 349 283 q 456 196 410 214 q 563 178 501 178 m 454 1035 l 575 1218 l 815 1218 l 818 1214 l 629 1035 l 454 1035 z "},"Ŏ":{"ha":1125,"x_min":63,"x_max":1063,"o":"m 563 -17 q 294 38 406 -17 q 122 203 182 93 q 63 478 63 313 q 122 752 63 643 q 294 916 182 861 q 563 971 406 971 q 831 916 719 971 q 1003 752 943 861 q 1063 478 1063 643 q 1003 203 1063 313 q 831 38 943 93 q 563 -17 719 -17 m 563 178 q 668 196 622 178 q 745 249 714 214 q 792 333 776 283 q 807 446 807 383 l 807 507 q 792 621 807 571 q 745 706 776 671 q 668 758 714 740 q 563 776 622 776 q 456 758 501 776 q 379 706 410 740 q 333 621 349 671 q 318 507 318 571 l 318 446 q 333 333 318 383 q 379 249 349 283 q 456 196 410 214 q 563 178 501 178 m 563 1026 q 429 1056 482 1026 q 350 1130 376 1085 q 324 1218 324 1175 l 449 1218 q 465 1188 451 1204 q 503 1160 478 1171 q 563 1149 528 1149 q 622 1160 597 1149 q 662 1188 647 1171 q 678 1218 676 1204 l 801 1218 q 774 1130 801 1175 q 694 1056 747 1085 q 563 1026 642 1026 z "},"Ǒ":{"ha":1125,"x_min":63,"x_max":1063,"o":"m 563 -17 q 294 38 406 -17 q 122 203 182 93 q 63 478 63 313 q 122 752 63 643 q 294 916 182 861 q 563 971 406 971 q 831 916 719 971 q 1003 752 943 861 q 1063 478 1063 643 q 1003 203 1063 313 q 831 38 943 93 q 563 -17 719 -17 m 563 178 q 668 196 622 178 q 745 249 714 214 q 792 333 776 283 q 807 446 807 383 l 807 507 q 792 621 807 571 q 745 706 776 671 q 668 758 714 740 q 563 776 622 776 q 456 758 501 776 q 379 706 410 740 q 333 621 349 671 q 318 507 318 571 l 318 446 q 333 333 318 383 q 379 249 349 283 q 456 196 410 214 q 563 178 501 178 m 288 1218 l 471 1218 l 601 1085 l 522 1085 l 651 1218 l 838 1218 l 669 1035 l 456 1035 l 288 1218 z "},"Ô":{"ha":1125,"x_min":63,"x_max":1063,"o":"m 563 -17 q 294 38 406 -17 q 122 203 182 93 q 63 478 63 313 q 122 752 63 643 q 294 916 182 861 q 563 971 406 971 q 831 916 719 971 q 1003 752 943 861 q 1063 478 1063 643 q 1003 203 1063 313 q 831 38 943 93 q 563 -17 719 -17 m 563 178 q 668 196 622 178 q 745 249 714 214 q 792 333 776 283 q 807 446 807 383 l 807 507 q 792 621 807 571 q 745 706 776 671 q 668 758 714 740 q 563 776 622 776 q 456 758 501 776 q 379 706 410 740 q 333 621 349 671 q 318 507 318 571 l 318 446 q 333 333 318 383 q 379 249 349 283 q 456 196 410 214 q 563 178 501 178 m 288 1035 l 456 1218 l 669 1218 l 838 1035 l 651 1035 l 522 1168 l 601 1168 l 471 1035 l 288 1035 z "},"Ố":{"ha":1125,"x_min":63,"x_max":1063,"o":"m 563 -17 q 294 38 406 -17 q 122 203 182 93 q 63 478 63 313 q 122 752 63 643 q 294 916 182 861 q 563 971 406 971 q 831 916 719 971 q 1003 752 943 861 q 1063 478 1063 643 q 1003 203 1063 313 q 831 38 943 93 q 563 -17 719 -17 m 563 178 q 668 196 622 178 q 745 249 714 214 q 792 333 776 283 q 807 446 807 383 l 807 507 q 792 621 807 571 q 745 706 776 671 q 668 758 714 740 q 563 776 622 776 q 456 758 501 776 q 379 706 410 740 q 333 621 349 671 q 318 507 318 571 l 318 446 q 333 333 318 383 q 379 249 349 283 q 456 196 410 214 q 563 178 501 178 m 288 1035 l 456 1218 l 669 1218 l 838 1035 l 651 1035 l 522 1168 l 601 1168 l 471 1035 l 288 1035 m 454 1261 l 575 1444 l 815 1444 l 818 1440 l 629 1261 l 454 1261 z "},"Ộ":{"ha":1125,"x_min":63,"x_max":1063,"o":"m 563 -17 q 294 38 406 -17 q 122 203 182 93 q 63 478 63 313 q 122 752 63 643 q 294 916 182 861 q 563 971 406 971 q 831 916 719 971 q 1003 752 943 861 q 1063 478 1063 643 q 1003 203 1063 313 q 831 38 943 93 q 563 -17 719 -17 m 563 178 q 668 196 622 178 q 745 249 714 214 q 792 333 776 283 q 807 446 807 383 l 807 507 q 792 621 807 571 q 745 706 776 671 q 668 758 714 740 q 563 776 622 776 q 456 758 501 776 q 379 706 410 740 q 333 621 349 671 q 318 507 318 571 l 318 446 q 333 333 318 383 q 379 249 349 283 q 456 196 410 214 q 563 178 501 178 m 467 -271 l 467 -96 l 658 -96 l 658 -271 l 467 -271 m 288 1035 l 456 1218 l 669 1218 l 838 1035 l 651 1035 l 522 1168 l 601 1168 l 471 1035 l 288 1035 z "},"Ồ":{"ha":1125,"x_min":63,"x_max":1063,"o":"m 563 -17 q 294 38 406 -17 q 122 203 182 93 q 63 478 63 313 q 122 752 63 643 q 294 916 182 861 q 563 971 406 971 q 831 916 719 971 q 1003 752 943 861 q 1063 478 1063 643 q 1003 203 1063 313 q 831 38 943 93 q 563 -17 719 -17 m 563 178 q 668 196 622 178 q 745 249 714 214 q 792 333 776 283 q 807 446 807 383 l 807 507 q 792 621 807 571 q 745 706 776 671 q 668 758 714 740 q 563 776 622 776 q 456 758 501 776 q 379 706 410 740 q 333 621 349 671 q 318 507 318 571 l 318 446 q 333 333 318 383 q 379 249 349 283 q 456 196 410 214 q 563 178 501 178 m 288 1035 l 456 1218 l 669 1218 l 838 1035 l 651 1035 l 522 1168 l 601 1168 l 471 1035 l 288 1035 m 688 1261 l 513 1261 l 324 1440 l 325 1444 l 567 1444 l 688 1261 z "},"Ổ":{"ha":1125,"x_min":63,"x_max":1063,"o":"m 563 -17 q 294 38 406 -17 q 122 203 182 93 q 63 478 63 313 q 122 752 63 643 q 294 916 182 861 q 563 971 406 971 q 831 916 719 971 q 1003 752 943 861 q 1063 478 1063 643 q 1003 203 1063 313 q 831 38 943 93 q 563 -17 719 -17 m 563 178 q 668 196 622 178 q 745 249 714 214 q 792 333 776 283 q 807 446 807 383 l 807 507 q 792 621 807 571 q 745 706 776 671 q 668 758 714 740 q 563 776 622 776 q 456 758 501 776 q 379 706 410 740 q 333 621 349 671 q 318 507 318 571 l 318 446 q 333 333 318 383 q 379 249 349 283 q 456 196 410 214 q 563 178 501 178 m 288 1035 l 456 1218 l 669 1218 l 838 1035 l 651 1035 l 522 1168 l 601 1168 l 471 1035 l 288 1035 m 513 1257 l 513 1335 l 529 1335 q 562 1340 553 1335 q 571 1360 571 1346 q 559 1380 571 1375 q 524 1385 547 1385 l 443 1385 l 443 1450 q 481 1456 460 1454 q 525 1460 503 1458 q 564 1461 547 1461 q 616 1457 588 1461 q 670 1443 644 1453 q 712 1416 696 1433 q 728 1372 728 1399 q 711 1329 728 1346 q 668 1304 694 1313 q 613 1293 642 1296 l 613 1257 l 513 1257 z "},"Ỗ":{"ha":1125,"x_min":63,"x_max":1063,"o":"m 563 -17 q 294 38 406 -17 q 122 203 182 93 q 63 478 63 313 q 122 752 63 643 q 294 916 182 861 q 563 971 406 971 q 831 916 719 971 q 1003 752 943 861 q 1063 478 1063 643 q 1003 203 1063 313 q 831 38 943 93 q 563 -17 719 -17 m 563 178 q 668 196 622 178 q 745 249 714 214 q 792 333 776 283 q 807 446 807 383 l 807 507 q 792 621 807 571 q 745 706 776 671 q 668 758 714 740 q 563 776 622 776 q 456 758 501 776 q 379 706 410 740 q 333 621 349 671 q 318 507 318 571 l 318 446 q 333 333 318 383 q 379 249 349 283 q 456 196 410 214 q 563 178 501 178 m 288 1035 l 456 1218 l 669 1218 l 838 1035 l 651 1035 l 522 1168 l 601 1168 l 471 1035 l 288 1035 m 289 1265 q 308 1355 289 1313 q 364 1422 326 1397 q 454 1447 401 1447 q 531 1435 494 1447 q 603 1409 568 1422 q 672 1396 638 1396 q 710 1409 694 1396 q 731 1447 725 1422 l 835 1447 q 815 1360 835 1401 q 759 1292 796 1318 q 669 1265 722 1265 q 592 1278 629 1265 q 522 1305 556 1292 q 451 1318 488 1318 q 414 1305 429 1318 q 393 1265 399 1292 l 289 1265 z "},"Ȍ":{"ha":1125,"x_min":63,"x_max":1063,"o":"m 563 -17 q 294 38 406 -17 q 122 203 182 93 q 63 478 63 313 q 122 752 63 643 q 294 916 182 861 q 563 971 406 971 q 831 916 719 971 q 1003 752 943 861 q 1063 478 1063 643 q 1003 203 1063 313 q 831 38 943 93 q 563 -17 719 -17 m 563 178 q 668 196 622 178 q 745 249 714 214 q 792 333 776 283 q 807 446 807 383 l 807 507 q 792 621 807 571 q 745 706 776 671 q 668 758 714 740 q 563 776 622 776 q 456 758 501 776 q 379 706 410 740 q 333 621 349 671 q 318 507 318 571 l 318 446 q 333 333 318 383 q 379 249 349 283 q 456 196 410 214 q 563 178 501 178 m 651 1035 l 482 1214 l 483 1218 l 710 1218 l 814 1035 l 651 1035 m 361 1035 l 190 1214 l 193 1218 l 418 1218 l 522 1035 l 361 1035 z "},"Ö":{"ha":1125,"x_min":63,"x_max":1063,"o":"m 563 -17 q 294 38 406 -17 q 122 203 182 93 q 63 478 63 313 q 122 752 63 643 q 294 916 182 861 q 563 971 406 971 q 831 916 719 971 q 1003 752 943 861 q 1063 478 1063 643 q 1003 203 1063 313 q 831 38 943 93 q 563 -17 719 -17 m 563 178 q 668 196 622 178 q 745 249 714 214 q 792 333 776 283 q 807 446 807 383 l 807 507 q 792 621 807 571 q 745 706 776 671 q 668 758 714 740 q 563 776 622 776 q 456 758 501 776 q 379 706 410 740 q 333 621 349 671 q 318 507 318 571 l 318 446 q 333 333 318 383 q 379 249 349 283 q 456 196 410 214 q 563 178 501 178 m 322 1043 l 322 1218 l 507 1218 l 507 1043 l 322 1043 m 618 1043 l 618 1218 l 801 1218 l 801 1043 l 618 1043 z "},"Ȫ":{"ha":1125,"x_min":63,"x_max":1063,"o":"m 563 -17 q 294 38 406 -17 q 122 203 182 93 q 63 478 63 313 q 122 752 63 643 q 294 916 182 861 q 563 971 406 971 q 831 916 719 971 q 1003 752 943 861 q 1063 478 1063 643 q 1003 203 1063 313 q 831 38 943 93 q 563 -17 719 -17 m 563 178 q 668 196 622 178 q 745 249 714 214 q 792 333 776 283 q 807 446 807 383 l 807 507 q 792 621 807 571 q 745 706 776 671 q 668 758 714 740 q 563 776 622 776 q 456 758 501 776 q 379 706 410 740 q 333 621 349 671 q 318 507 318 571 l 318 446 q 333 333 318 383 q 379 249 349 283 q 456 196 410 214 q 563 178 501 178 m 322 1043 l 322 1218 l 507 1218 l 507 1043 l 322 1043 m 618 1043 l 618 1218 l 801 1218 l 801 1043 l 618 1043 m 344 1290 l 344 1419 l 778 1419 l 778 1290 l 344 1290 z "},"Ȱ":{"ha":1125,"x_min":63,"x_max":1063,"o":"m 563 -17 q 294 38 406 -17 q 122 203 182 93 q 63 478 63 313 q 122 752 63 643 q 294 916 182 861 q 563 971 406 971 q 831 916 719 971 q 1003 752 943 861 q 1063 478 1063 643 q 1003 203 1063 313 q 831 38 943 93 q 563 -17 719 -17 m 563 178 q 668 196 622 178 q 745 249 714 214 q 792 333 776 283 q 807 446 807 383 l 807 507 q 792 621 807 571 q 745 706 776 671 q 668 758 714 740 q 563 776 622 776 q 456 758 501 776 q 379 706 410 740 q 333 621 349 671 q 318 507 318 571 l 318 446 q 333 333 318 383 q 379 249 349 283 q 456 196 410 214 q 563 178 501 178 m 468 1043 l 468 1224 l 658 1224 l 658 1043 l 468 1043 m 346 1290 l 346 1419 l 779 1419 l 779 1290 l 346 1290 z "},"Ọ":{"ha":1125,"x_min":63,"x_max":1063,"o":"m 563 -17 q 294 38 406 -17 q 122 203 182 93 q 63 478 63 313 q 122 752 63 643 q 294 916 182 861 q 563 971 406 971 q 831 916 719 971 q 1003 752 943 861 q 1063 478 1063 643 q 1003 203 1063 313 q 831 38 943 93 q 563 -17 719 -17 m 563 178 q 668 196 622 178 q 745 249 714 214 q 792 333 776 283 q 807 446 807 383 l 807 507 q 792 621 807 571 q 745 706 776 671 q 668 758 714 740 q 563 776 622 776 q 456 758 501 776 q 379 706 410 740 q 333 621 349 671 q 318 507 318 571 l 318 446 q 333 333 318 383 q 379 249 349 283 q 456 196 410 214 q 563 178 501 178 m 467 -271 l 467 -96 l 658 -96 l 658 -271 l 467 -271 z "},"Ò":{"ha":1125,"x_min":63,"x_max":1063,"o":"m 563 -17 q 294 38 406 -17 q 122 203 182 93 q 63 478 63 313 q 122 752 63 643 q 294 916 182 861 q 563 971 406 971 q 831 916 719 971 q 1003 752 943 861 q 1063 478 1063 643 q 1003 203 1063 313 q 831 38 943 93 q 563 -17 719 -17 m 563 178 q 668 196 622 178 q 745 249 714 214 q 792 333 776 283 q 807 446 807 383 l 807 507 q 792 621 807 571 q 745 706 776 671 q 668 758 714 740 q 563 776 622 776 q 456 758 501 776 q 379 706 410 740 q 333 621 349 671 q 318 507 318 571 l 318 446 q 333 333 318 383 q 379 249 349 283 q 456 196 410 214 q 563 178 501 178 m 688 1035 l 513 1035 l 324 1214 l 325 1218 l 567 1218 l 688 1035 z "},"Ỏ":{"ha":1125,"x_min":63,"x_max":1063,"o":"m 563 -17 q 294 38 406 -17 q 122 203 182 93 q 63 478 63 313 q 122 752 63 643 q 294 916 182 861 q 563 971 406 971 q 831 916 719 971 q 1003 752 943 861 q 1063 478 1063 643 q 1003 203 1063 313 q 831 38 943 93 q 563 -17 719 -17 m 563 178 q 668 196 622 178 q 745 249 714 214 q 792 333 776 283 q 807 446 807 383 l 807 507 q 792 621 807 571 q 745 706 776 671 q 668 758 714 740 q 563 776 622 776 q 456 758 501 776 q 379 706 410 740 q 333 621 349 671 q 318 507 318 571 l 318 446 q 333 333 318 383 q 379 249 349 283 q 456 196 410 214 q 563 178 501 178 m 513 1032 l 513 1110 l 529 1110 q 562 1115 553 1110 q 571 1133 571 1119 q 559 1153 571 1149 q 524 1158 547 1158 l 443 1158 l 443 1224 q 481 1230 460 1228 q 525 1233 503 1232 q 564 1235 547 1235 q 616 1231 588 1235 q 670 1217 644 1226 q 712 1190 696 1207 q 728 1147 728 1174 q 711 1103 728 1121 q 668 1078 694 1086 q 613 1067 642 1069 l 613 1032 l 513 1032 z "},"Ơ":{"ha":1125,"x_min":63,"x_max":1171,"o":"m 563 -17 q 294 38 406 -17 q 122 203 182 93 q 63 478 63 313 q 122 752 63 643 q 294 916 182 861 q 563 971 406 971 q 831 916 719 971 q 1003 752 943 861 q 1063 478 1063 643 q 1003 203 1063 313 q 831 38 943 93 q 563 -17 719 -17 m 563 178 q 668 196 622 178 q 745 249 714 214 q 792 333 776 283 q 807 446 807 383 l 807 507 q 792 621 807 571 q 745 706 776 671 q 668 758 714 740 q 563 776 622 776 q 456 758 501 776 q 379 706 410 740 q 333 621 349 671 q 318 507 318 571 l 318 446 q 333 333 318 383 q 379 249 349 283 q 456 196 410 214 q 563 178 501 178 m 876 761 l 876 868 q 988 892 944 868 q 1036 960 1031 915 l 943 960 l 943 1151 l 1171 1151 l 1171 1026 q 1137 883 1171 943 q 1037 792 1103 824 q 876 761 971 761 z "},"Ớ":{"ha":1125,"x_min":63,"x_max":1171,"o":"m 563 -17 q 294 38 406 -17 q 122 203 182 93 q 63 478 63 313 q 122 752 63 643 q 294 916 182 861 q 563 971 406 971 q 831 916 719 971 q 1003 752 943 861 q 1063 478 1063 643 q 1003 203 1063 313 q 831 38 943 93 q 563 -17 719 -17 m 563 178 q 668 196 622 178 q 745 249 714 214 q 792 333 776 283 q 807 446 807 383 l 807 507 q 792 621 807 571 q 745 706 776 671 q 668 758 714 740 q 563 776 622 776 q 456 758 501 776 q 379 706 410 740 q 333 621 349 671 q 318 507 318 571 l 318 446 q 333 333 318 383 q 379 249 349 283 q 456 196 410 214 q 563 178 501 178 m 876 761 l 876 868 q 988 892 944 868 q 1036 960 1031 915 l 943 960 l 943 1151 l 1171 1151 l 1171 1026 q 1137 883 1171 943 q 1037 792 1103 824 q 876 761 971 761 m 456 1035 l 576 1218 l 817 1218 l 818 1214 l 629 1035 l 456 1035 z "},"Ợ":{"ha":1125,"x_min":63,"x_max":1171,"o":"m 563 -17 q 294 38 406 -17 q 122 203 182 93 q 63 478 63 313 q 122 752 63 643 q 294 916 182 861 q 563 971 406 971 q 831 916 719 971 q 1003 752 943 861 q 1063 478 1063 643 q 1003 203 1063 313 q 831 38 943 93 q 563 -17 719 -17 m 563 178 q 668 196 622 178 q 745 249 714 214 q 792 333 776 283 q 807 446 807 383 l 807 507 q 792 621 807 571 q 745 706 776 671 q 668 758 714 740 q 563 776 622 776 q 456 758 501 776 q 379 706 410 740 q 333 621 349 671 q 318 507 318 571 l 318 446 q 333 333 318 383 q 379 249 349 283 q 456 196 410 214 q 563 178 501 178 m 876 761 l 876 868 q 988 892 944 868 q 1036 960 1031 915 l 943 960 l 943 1151 l 1171 1151 l 1171 1026 q 1137 883 1171 943 q 1037 792 1103 824 q 876 761 971 761 m 467 -271 l 467 -96 l 658 -96 l 658 -271 l 467 -271 z "},"Ờ":{"ha":1125,"x_min":63,"x_max":1171,"o":"m 563 -17 q 294 38 406 -17 q 122 203 182 93 q 63 478 63 313 q 122 752 63 643 q 294 916 182 861 q 563 971 406 971 q 831 916 719 971 q 1003 752 943 861 q 1063 478 1063 643 q 1003 203 1063 313 q 831 38 943 93 q 563 -17 719 -17 m 563 178 q 668 196 622 178 q 745 249 714 214 q 792 333 776 283 q 807 446 807 383 l 807 507 q 792 621 807 571 q 745 706 776 671 q 668 758 714 740 q 563 776 622 776 q 456 758 501 776 q 379 706 410 740 q 333 621 349 671 q 318 507 318 571 l 318 446 q 333 333 318 383 q 379 249 349 283 q 456 196 410 214 q 563 178 501 178 m 876 761 l 876 868 q 988 892 944 868 q 1036 960 1031 915 l 943 960 l 943 1151 l 1171 1151 l 1171 1026 q 1137 883 1171 943 q 1037 792 1103 824 q 876 761 971 761 m 688 1035 l 514 1035 l 324 1214 l 326 1218 l 567 1218 l 688 1035 z "},"Ở":{"ha":1125,"x_min":63,"x_max":1171,"o":"m 563 -17 q 294 38 406 -17 q 122 203 182 93 q 63 478 63 313 q 122 752 63 643 q 294 916 182 861 q 563 971 406 971 q 831 916 719 971 q 1003 752 943 861 q 1063 478 1063 643 q 1003 203 1063 313 q 831 38 943 93 q 563 -17 719 -17 m 563 178 q 668 196 622 178 q 745 249 714 214 q 792 333 776 283 q 807 446 807 383 l 807 507 q 792 621 807 571 q 745 706 776 671 q 668 758 714 740 q 563 776 622 776 q 456 758 501 776 q 379 706 410 740 q 333 621 349 671 q 318 507 318 571 l 318 446 q 333 333 318 383 q 379 249 349 283 q 456 196 410 214 q 563 178 501 178 m 876 761 l 876 868 q 988 892 944 868 q 1036 960 1031 915 l 943 960 l 943 1151 l 1171 1151 l 1171 1026 q 1137 883 1171 943 q 1037 792 1103 824 q 876 761 971 761 m 513 1032 l 513 1110 l 529 1110 q 563 1115 554 1110 q 572 1133 572 1119 q 560 1153 572 1149 q 525 1158 547 1158 l 443 1158 l 443 1224 q 481 1230 460 1228 q 525 1233 503 1232 q 564 1235 547 1235 q 617 1231 589 1235 q 671 1217 646 1226 q 713 1190 696 1207 q 729 1147 729 1174 q 713 1103 729 1121 q 669 1078 696 1086 q 613 1067 643 1069 l 613 1032 l 513 1032 z "},"Ỡ":{"ha":1125,"x_min":63,"x_max":1171,"o":"m 563 -17 q 294 38 406 -17 q 122 203 182 93 q 63 478 63 313 q 122 752 63 643 q 294 916 182 861 q 563 971 406 971 q 831 916 719 971 q 1003 752 943 861 q 1063 478 1063 643 q 1003 203 1063 313 q 831 38 943 93 q 563 -17 719 -17 m 563 178 q 668 196 622 178 q 745 249 714 214 q 792 333 776 283 q 807 446 807 383 l 807 507 q 792 621 807 571 q 745 706 776 671 q 668 758 714 740 q 563 776 622 776 q 456 758 501 776 q 379 706 410 740 q 333 621 349 671 q 318 507 318 571 l 318 446 q 333 333 318 383 q 379 249 349 283 q 456 196 410 214 q 563 178 501 178 m 876 761 l 876 868 q 988 892 944 868 q 1036 960 1031 915 l 943 960 l 943 1151 l 1171 1151 l 1171 1026 q 1137 883 1171 943 q 1037 792 1103 824 q 876 761 971 761 m 289 1039 q 308 1129 289 1088 q 365 1197 328 1171 q 454 1222 401 1222 q 531 1209 494 1222 q 603 1183 568 1196 q 672 1169 638 1169 q 711 1183 696 1169 q 731 1222 726 1196 l 836 1222 q 817 1133 836 1175 q 760 1065 797 1092 q 671 1039 724 1039 q 594 1052 631 1039 q 522 1079 557 1065 q 453 1093 488 1093 q 415 1079 431 1093 q 394 1039 399 1065 l 289 1039 z "},"Ő":{"ha":1125,"x_min":63,"x_max":1063,"o":"m 563 -17 q 294 38 406 -17 q 122 203 182 93 q 63 478 63 313 q 122 752 63 643 q 294 916 182 861 q 563 971 406 971 q 831 916 719 971 q 1003 752 943 861 q 1063 478 1063 643 q 1003 203 1063 313 q 831 38 943 93 q 563 -17 719 -17 m 563 178 q 668 196 622 178 q 745 249 714 214 q 792 333 776 283 q 807 446 807 383 l 807 507 q 792 621 807 571 q 745 706 776 671 q 668 758 714 740 q 563 776 622 776 q 456 758 501 776 q 379 706 410 740 q 333 621 349 671 q 318 507 318 571 l 318 446 q 333 333 318 383 q 379 249 349 283 q 456 196 410 214 q 563 178 501 178 m 621 1035 l 725 1218 l 951 1218 l 953 1214 l 783 1035 l 621 1035 m 331 1035 l 435 1218 l 660 1218 l 663 1214 l 492 1035 l 331 1035 z "},"Ȏ":{"ha":1125,"x_min":63,"x_max":1063,"o":"m 563 -17 q 294 38 406 -17 q 122 203 182 93 q 63 478 63 313 q 122 752 63 643 q 294 916 182 861 q 563 971 406 971 q 831 916 719 971 q 1003 752 943 861 q 1063 478 1063 643 q 1003 203 1063 313 q 831 38 943 93 q 563 -17 719 -17 m 563 178 q 668 196 622 178 q 745 249 714 214 q 792 333 776 283 q 807 446 807 383 l 807 507 q 792 621 807 571 q 745 706 776 671 q 668 758 714 740 q 563 776 622 776 q 456 758 501 776 q 379 706 410 740 q 333 621 349 671 q 318 507 318 571 l 318 446 q 333 333 318 383 q 379 249 349 283 q 456 196 410 214 q 563 178 501 178 m 324 1026 q 351 1116 324 1072 q 431 1189 378 1160 q 564 1218 485 1218 q 697 1189 644 1218 q 775 1116 749 1160 q 801 1026 801 1072 l 678 1026 q 661 1058 675 1042 q 623 1085 647 1074 q 564 1096 599 1096 q 503 1085 529 1096 q 464 1058 478 1074 q 447 1026 450 1042 l 324 1026 z "},"Ō":{"ha":1125,"x_min":63,"x_max":1063,"o":"m 563 -17 q 294 38 406 -17 q 122 203 182 93 q 63 478 63 313 q 122 752 63 643 q 294 916 182 861 q 563 971 406 971 q 831 916 719 971 q 1003 752 943 861 q 1063 478 1063 643 q 1003 203 1063 313 q 831 38 943 93 q 563 -17 719 -17 m 563 178 q 668 196 622 178 q 745 249 714 214 q 792 333 776 283 q 807 446 807 383 l 807 507 q 792 621 807 571 q 745 706 776 671 q 668 758 714 740 q 563 776 622 776 q 456 758 501 776 q 379 706 410 740 q 333 621 349 671 q 318 507 318 571 l 318 446 q 333 333 318 383 q 379 249 349 283 q 456 196 410 214 q 563 178 501 178 m 344 1043 l 344 1171 l 778 1171 l 778 1043 l 344 1043 z "},"Ǫ":{"ha":1125,"x_min":63,"x_max":1063,"o":"m 563 -17 q 294 38 406 -17 q 122 203 182 93 q 63 478 63 313 q 122 752 63 643 q 294 916 182 861 q 563 971 406 971 q 831 916 719 971 q 1003 752 943 861 q 1063 478 1063 643 q 1003 203 1063 313 q 831 38 943 93 q 563 -17 719 -17 m 563 178 q 668 196 622 178 q 745 249 714 214 q 792 333 776 283 q 807 446 807 383 l 807 507 q 792 621 807 571 q 745 706 776 671 q 668 758 714 740 q 563 776 622 776 q 456 758 501 776 q 379 706 410 740 q 333 621 349 671 q 318 507 318 571 l 318 446 q 333 333 318 383 q 379 249 349 283 q 456 196 410 214 q 563 178 501 178 m 722 -275 q 645 -261 682 -275 q 584 -216 608 -247 q 560 -132 560 -185 q 583 -46 560 -81 q 632 17 606 -11 l 761 17 l 761 11 q 727 -31 742 -4 q 713 -86 713 -58 q 730 -140 713 -117 q 783 -162 747 -162 l 853 -162 l 853 -254 q 788 -269 825 -264 q 722 -275 751 -275 z "},"Ø":{"ha":1125,"x_min":63,"x_max":1063,"o":"m 563 -17 q 294 38 406 -17 q 122 203 182 93 q 63 478 63 313 q 122 752 63 643 q 294 916 182 861 q 563 971 406 971 q 831 916 719 971 q 1003 752 943 861 q 1063 478 1063 643 q 1003 203 1063 313 q 831 38 943 93 q 563 -17 719 -17 m 563 178 q 668 196 622 178 q 745 249 714 214 q 792 333 776 283 q 807 446 807 383 l 807 507 q 792 621 807 571 q 745 706 776 671 q 668 758 714 740 q 563 776 622 776 q 456 758 501 776 q 379 706 410 740 q 333 621 349 671 q 318 507 318 571 l 318 446 q 333 333 318 383 q 379 249 349 283 q 456 196 410 214 q 563 178 501 178 m 71 -58 l 906 1013 l 1051 1013 l 217 -58 l 71 -58 z "},"Ǿ":{"ha":1125,"x_min":63,"x_max":1063,"o":"m 563 -17 q 294 38 406 -17 q 122 203 182 93 q 63 478 63 313 q 122 752 63 643 q 294 916 182 861 q 563 971 406 971 q 831 916 719 971 q 1003 752 943 861 q 1063 478 1063 643 q 1003 203 1063 313 q 831 38 943 93 q 563 -17 719 -17 m 563 178 q 668 196 622 178 q 745 249 714 214 q 792 333 776 283 q 807 446 807 383 l 807 507 q 792 621 807 571 q 745 706 776 671 q 668 758 714 740 q 563 776 622 776 q 456 758 501 776 q 379 706 410 740 q 333 621 349 671 q 318 507 318 571 l 318 446 q 333 333 318 383 q 379 249 349 283 q 456 196 410 214 q 563 178 501 178 m 71 -58 l 906 1013 l 1051 1013 l 217 -58 l 71 -58 m 454 1035 l 575 1218 l 815 1218 l 818 1214 l 629 1035 l 454 1035 z "},"Õ":{"ha":1125,"x_min":63,"x_max":1063,"o":"m 563 -17 q 294 38 406 -17 q 122 203 182 93 q 63 478 63 313 q 122 752 63 643 q 294 916 182 861 q 563 971 406 971 q 831 916 719 971 q 1003 752 943 861 q 1063 478 1063 643 q 1003 203 1063 313 q 831 38 943 93 q 563 -17 719 -17 m 563 178 q 668 196 622 178 q 745 249 714 214 q 792 333 776 283 q 807 446 807 383 l 807 507 q 792 621 807 571 q 745 706 776 671 q 668 758 714 740 q 563 776 622 776 q 456 758 501 776 q 379 706 410 740 q 333 621 349 671 q 318 507 318 571 l 318 446 q 333 333 318 383 q 379 249 349 283 q 456 196 410 214 q 563 178 501 178 m 289 1039 q 308 1129 289 1088 q 364 1197 326 1171 q 454 1222 401 1222 q 531 1209 494 1222 q 603 1183 568 1196 q 672 1169 638 1169 q 710 1183 694 1169 q 731 1222 725 1196 l 835 1222 q 815 1133 835 1175 q 759 1065 796 1092 q 669 1039 722 1039 q 592 1052 629 1039 q 522 1079 556 1065 q 451 1093 488 1093 q 414 1079 429 1093 q 393 1039 399 1065 l 289 1039 z "},"Ȭ":{"ha":1125,"x_min":63,"x_max":1063,"o":"m 563 -17 q 294 38 406 -17 q 122 203 182 93 q 63 478 63 313 q 122 752 63 643 q 294 916 182 861 q 563 971 406 971 q 831 916 719 971 q 1003 752 943 861 q 1063 478 1063 643 q 1003 203 1063 313 q 831 38 943 93 q 563 -17 719 -17 m 563 178 q 668 196 622 178 q 745 249 714 214 q 792 333 776 283 q 807 446 807 383 l 807 507 q 792 621 807 571 q 745 706 776 671 q 668 758 714 740 q 563 776 622 776 q 456 758 501 776 q 379 706 410 740 q 333 621 349 671 q 318 507 318 571 l 318 446 q 333 333 318 383 q 379 249 349 283 q 456 196 410 214 q 563 178 501 178 m 289 1039 q 308 1129 289 1088 q 364 1197 326 1171 q 454 1222 401 1222 q 531 1209 494 1222 q 603 1183 568 1196 q 672 1169 638 1169 q 710 1183 694 1169 q 731 1222 725 1196 l 835 1222 q 815 1133 835 1175 q 759 1065 796 1092 q 669 1039 722 1039 q 592 1052 629 1039 q 522 1079 556 1065 q 451 1093 488 1093 q 414 1079 429 1093 q 393 1039 399 1065 l 289 1039 m 344 1285 l 344 1413 l 778 1413 l 778 1285 l 344 1285 z "},"Œ":{"ha":1672,"x_min":63,"x_max":1604,"o":"m 532 -17 q 271 38 375 -17 q 115 203 167 93 q 63 478 63 313 q 115 752 63 643 q 271 916 167 861 q 532 971 375 971 q 685 951 615 971 q 807 894 754 932 l 807 954 l 1596 954 l 1596 760 l 1056 760 l 1056 581 l 1526 581 l 1526 390 l 1056 390 l 1056 194 l 1604 194 l 1604 0 l 807 0 l 807 60 q 685 3 754 22 q 532 -17 615 -17 m 563 178 q 668 196 622 178 q 745 249 714 214 q 792 333 776 283 q 807 446 807 383 l 807 507 q 792 621 807 571 q 745 706 776 671 q 668 758 714 740 q 563 776 622 776 q 456 758 501 776 q 379 706 410 740 q 333 621 349 671 q 318 507 318 571 l 318 446 q 333 333 318 383 q 379 249 349 283 q 456 196 410 214 q 563 178 501 178 z "},"P":{"ha":969,"x_min":104,"x_max":938,"o":"m 104 0 l 104 954 l 629 954 q 795 915 726 954 q 901 805 864 875 q 938 640 938 735 q 899 472 938 543 q 791 362 861 401 q 624 322 721 322 l 353 322 l 353 0 l 104 0 m 353 514 l 565 514 q 654 547 624 514 q 685 638 685 579 q 672 706 685 679 q 632 747 658 732 q 565 761 606 761 l 353 761 l 353 514 z "},"Þ":{"ha":982,"x_min":107,"x_max":915,"o":"m 107 0 l 107 954 l 357 954 l 357 808 l 607 808 q 773 769 704 808 q 878 660 842 731 q 915 494 915 589 q 878 326 915 397 q 770 216 840 256 q 603 176 700 176 l 357 176 l 357 0 l 107 0 m 357 368 l 544 368 q 633 401 603 368 q 664 493 664 433 q 651 559 664 532 q 611 601 638 586 q 544 615 585 615 l 357 615 l 357 368 z "},"Q":{"ha":1125,"x_min":63,"x_max":1063,"o":"m 728 -182 l 575 -12 q 557 -15 567 -14 q 539 -15 547 -15 q 283 40 390 -15 q 119 206 176 96 q 63 478 63 317 q 122 752 63 643 q 294 916 182 861 q 563 971 406 971 q 831 916 719 971 q 1003 752 943 861 q 1063 478 1063 643 q 999 198 1063 308 q 821 32 936 88 l 1036 -182 l 728 -182 m 563 178 q 668 196 622 178 q 745 249 714 214 q 792 333 776 283 q 807 446 807 383 l 807 507 q 792 621 807 571 q 745 706 776 671 q 668 758 714 740 q 563 776 622 776 q 456 758 501 776 q 379 706 410 740 q 333 621 349 671 q 318 507 318 571 l 318 446 q 333 333 318 383 q 379 249 349 283 q 456 196 410 214 q 563 178 501 178 z "},"R":{"ha":1042,"x_min":104,"x_max":1007,"o":"m 104 0 l 104 954 l 658 954 q 835 915 764 954 q 941 806 906 875 q 976 653 976 738 q 934 490 976 561 q 815 378 892 418 l 1007 0 l 729 0 l 571 336 l 353 336 l 353 0 l 104 0 m 353 521 l 610 521 q 692 555 661 521 q 724 646 724 589 q 710 710 724 683 q 671 751 696 736 q 610 765 646 765 l 353 765 l 353 521 z "},"Ŕ":{"ha":1042,"x_min":104,"x_max":1007,"o":"m 104 0 l 104 954 l 658 954 q 835 915 764 954 q 941 806 906 875 q 976 653 976 738 q 934 490 976 561 q 815 378 892 418 l 1007 0 l 729 0 l 571 336 l 353 336 l 353 0 l 104 0 m 353 521 l 610 521 q 692 555 661 521 q 724 646 724 589 q 710 710 724 683 q 671 751 696 736 q 610 765 646 765 l 353 765 l 353 521 m 406 1035 l 526 1218 l 767 1218 l 769 1214 l 579 1035 l 406 1035 z "},"Ř":{"ha":1042,"x_min":104,"x_max":1007,"o":"m 104 0 l 104 954 l 658 954 q 835 915 764 954 q 941 806 906 875 q 976 653 976 738 q 934 490 976 561 q 815 378 892 418 l 1007 0 l 729 0 l 571 336 l 353 336 l 353 0 l 104 0 m 353 521 l 610 521 q 692 555 661 521 q 724 646 724 589 q 710 710 724 683 q 671 751 696 736 q 610 765 646 765 l 353 765 l 353 521 m 239 1218 l 422 1218 l 553 1085 l 474 1085 l 603 1218 l 788 1218 l 621 1035 l 407 1035 l 239 1218 z "},"Ŗ":{"ha":1042,"x_min":104,"x_max":1007,"o":"m 104 0 l 104 954 l 658 954 q 835 915 764 954 q 941 806 906 875 q 976 653 976 738 q 934 490 976 561 q 815 378 892 418 l 1007 0 l 729 0 l 571 336 l 353 336 l 353 0 l 104 0 m 353 521 l 610 521 q 692 555 661 521 q 724 646 724 589 q 710 710 724 683 q 671 751 696 736 q 610 765 646 765 l 353 765 l 353 521 m 424 -446 l 424 -364 q 495 -340 474 -364 q 517 -271 517 -317 l 429 -271 l 429 -90 l 619 -90 l 619 -233 q 597 -358 619 -311 q 531 -425 575 -404 q 424 -446 488 -446 z "},"Ȑ":{"ha":1042,"x_min":104,"x_max":1007,"o":"m 104 0 l 104 954 l 658 954 q 835 915 764 954 q 941 806 906 875 q 976 653 976 738 q 934 490 976 561 q 815 378 892 418 l 1007 0 l 729 0 l 571 336 l 353 336 l 353 0 l 104 0 m 353 521 l 610 521 q 692 555 661 521 q 724 646 724 589 q 710 710 724 683 q 671 751 696 736 q 610 765 646 765 l 353 765 l 353 521 m 603 1035 l 433 1214 l 435 1218 l 661 1218 l 765 1035 l 603 1035 m 313 1035 l 142 1214 l 144 1218 l 369 1218 l 474 1035 l 313 1035 z "},"Ȓ":{"ha":1042,"x_min":104,"x_max":1007,"o":"m 104 0 l 104 954 l 658 954 q 835 915 764 954 q 941 806 906 875 q 976 653 976 738 q 934 490 976 561 q 815 378 892 418 l 1007 0 l 729 0 l 571 336 l 353 336 l 353 0 l 104 0 m 353 521 l 610 521 q 692 555 661 521 q 724 646 724 589 q 710 710 724 683 q 671 751 696 736 q 610 765 646 765 l 353 765 l 353 521 m 275 1026 q 302 1116 275 1072 q 383 1189 329 1160 q 514 1218 436 1218 q 647 1189 594 1218 q 726 1116 700 1160 q 753 1026 753 1072 l 628 1026 q 612 1058 625 1042 q 574 1085 599 1074 q 514 1096 550 1096 q 454 1085 479 1096 q 415 1058 429 1074 q 399 1026 400 1042 l 275 1026 z "},"S":{"ha":968,"x_min":61,"x_max":913,"o":"m 500 -17 q 331 -1 410 -17 q 191 51 251 15 q 96 147 131 88 q 61 292 61 206 q 61 304 61 297 q 63 315 61 311 l 303 315 q 302 305 303 311 q 301 294 301 299 q 324 223 301 250 q 389 184 347 196 q 486 172 431 172 q 543 175 517 172 q 590 185 569 178 q 627 202 611 192 q 651 227 643 213 q 658 261 658 242 q 634 314 658 293 q 569 349 610 335 q 476 375 528 363 q 369 401 425 388 q 263 436 314 415 q 170 489 211 457 q 105 569 129 521 q 81 685 81 617 q 113 815 81 760 q 201 904 144 869 q 331 955 257 939 q 488 971 404 971 q 641 954 569 971 q 768 902 713 938 q 855 813 824 867 q 888 685 886 760 l 888 668 l 649 668 l 649 678 q 631 734 649 710 q 579 773 614 758 q 493 788 544 788 q 406 778 442 788 q 352 750 371 768 q 333 707 333 732 q 358 657 333 676 q 424 624 382 638 q 517 598 465 610 q 623 573 568 586 q 729 540 678 560 q 822 488 781 519 q 888 411 864 457 q 913 300 913 365 q 859 117 913 186 q 712 15 806 47 q 500 -17 618 -17 z "},"Ś":{"ha":968,"x_min":61,"x_max":913,"o":"m 500 -17 q 331 -1 410 -17 q 191 51 251 15 q 96 147 131 88 q 61 292 61 206 q 61 304 61 297 q 63 315 61 311 l 303 315 q 302 305 303 311 q 301 294 301 299 q 324 223 301 250 q 389 184 347 196 q 486 172 431 172 q 543 175 517 172 q 590 185 569 178 q 627 202 611 192 q 651 227 643 213 q 658 261 658 242 q 634 314 658 293 q 569 349 610 335 q 476 375 528 363 q 369 401 425 388 q 263 436 314 415 q 170 489 211 457 q 105 569 129 521 q 81 685 81 617 q 113 815 81 760 q 201 904 144 869 q 331 955 257 939 q 488 971 404 971 q 641 954 569 971 q 768 902 713 938 q 855 813 824 867 q 888 685 886 760 l 888 668 l 649 668 l 649 678 q 631 734 649 710 q 579 773 614 758 q 493 788 544 788 q 406 778 442 788 q 352 750 371 768 q 333 707 333 732 q 358 657 333 676 q 424 624 382 638 q 517 598 465 610 q 623 573 568 586 q 729 540 678 560 q 822 488 781 519 q 888 411 864 457 q 913 300 913 365 q 859 117 913 186 q 712 15 806 47 q 500 -17 618 -17 m 382 1035 l 503 1218 l 744 1218 l 746 1214 l 557 1035 l 382 1035 z "},"Š":{"ha":968,"x_min":61,"x_max":913,"o":"m 500 -17 q 331 -1 410 -17 q 191 51 251 15 q 96 147 131 88 q 61 292 61 206 q 61 304 61 297 q 63 315 61 311 l 303 315 q 302 305 303 311 q 301 294 301 299 q 324 223 301 250 q 389 184 347 196 q 486 172 431 172 q 543 175 517 172 q 590 185 569 178 q 627 202 611 192 q 651 227 643 213 q 658 261 658 242 q 634 314 658 293 q 569 349 610 335 q 476 375 528 363 q 369 401 425 388 q 263 436 314 415 q 170 489 211 457 q 105 569 129 521 q 81 685 81 617 q 113 815 81 760 q 201 904 144 869 q 331 955 257 939 q 488 971 404 971 q 641 954 569 971 q 768 902 713 938 q 855 813 824 867 q 888 685 886 760 l 888 668 l 649 668 l 649 678 q 631 734 649 710 q 579 773 614 758 q 493 788 544 788 q 406 778 442 788 q 352 750 371 768 q 333 707 333 732 q 358 657 333 676 q 424 624 382 638 q 517 598 465 610 q 623 573 568 586 q 729 540 678 560 q 822 488 781 519 q 888 411 864 457 q 913 300 913 365 q 859 117 913 186 q 712 15 806 47 q 500 -17 618 -17 m 217 1218 l 400 1218 l 531 1085 l 450 1085 l 581 1218 l 765 1218 l 597 1035 l 385 1035 l 217 1218 z "},"Ş":{"ha":968,"x_min":61,"x_max":913,"o":"m 500 -17 q 331 -1 410 -17 q 191 51 251 15 q 96 147 131 88 q 61 292 61 206 q 61 304 61 297 q 63 315 61 311 l 303 315 q 302 305 303 311 q 301 294 301 299 q 324 223 301 250 q 389 184 347 196 q 486 172 431 172 q 543 175 517 172 q 590 185 569 178 q 627 202 611 192 q 651 227 643 213 q 658 261 658 242 q 634 314 658 293 q 569 349 610 335 q 476 375 528 363 q 369 401 425 388 q 263 436 314 415 q 170 489 211 457 q 105 569 129 521 q 81 685 81 617 q 113 815 81 760 q 201 904 144 869 q 331 955 257 939 q 488 971 404 971 q 641 954 569 971 q 768 902 713 938 q 855 813 824 867 q 888 685 886 760 l 888 668 l 649 668 l 649 678 q 631 734 649 710 q 579 773 614 758 q 493 788 544 788 q 406 778 442 788 q 352 750 371 768 q 333 707 333 732 q 358 657 333 676 q 424 624 382 638 q 517 598 465 610 q 623 573 568 586 q 729 540 678 560 q 822 488 781 519 q 888 411 864 457 q 913 300 913 365 q 859 117 913 186 q 712 15 806 47 q 500 -17 618 -17 m 485 -275 q 397 -270 443 -275 q 321 -257 351 -265 l 321 -183 l 458 -183 q 500 -178 485 -183 q 515 -151 515 -172 q 504 -126 515 -133 q 461 -118 493 -118 l 403 -118 l 426 36 l 549 36 l 538 -43 q 595 -58 567 -46 q 642 -92 624 -69 q 660 -153 660 -115 q 642 -215 660 -190 q 598 -251 625 -239 q 541 -269 571 -264 q 485 -275 511 -275 z "},"Ŝ":{"ha":968,"x_min":61,"x_max":913,"o":"m 500 -17 q 331 -1 410 -17 q 191 51 251 15 q 96 147 131 88 q 61 292 61 206 q 61 304 61 297 q 63 315 61 311 l 303 315 q 302 305 303 311 q 301 294 301 299 q 324 223 301 250 q 389 184 347 196 q 486 172 431 172 q 543 175 517 172 q 590 185 569 178 q 627 202 611 192 q 651 227 643 213 q 658 261 658 242 q 634 314 658 293 q 569 349 610 335 q 476 375 528 363 q 369 401 425 388 q 263 436 314 415 q 170 489 211 457 q 105 569 129 521 q 81 685 81 617 q 113 815 81 760 q 201 904 144 869 q 331 955 257 939 q 488 971 404 971 q 641 954 569 971 q 768 902 713 938 q 855 813 824 867 q 888 685 886 760 l 888 668 l 649 668 l 649 678 q 631 734 649 710 q 579 773 614 758 q 493 788 544 788 q 406 778 442 788 q 352 750 371 768 q 333 707 333 732 q 358 657 333 676 q 424 624 382 638 q 517 598 465 610 q 623 573 568 586 q 729 540 678 560 q 822 488 781 519 q 888 411 864 457 q 913 300 913 365 q 859 117 913 186 q 712 15 806 47 q 500 -17 618 -17 m 217 1035 l 385 1218 l 597 1218 l 765 1035 l 581 1035 l 450 1168 l 531 1168 l 400 1035 l 217 1035 z "},"Ș":{"ha":968,"x_min":61,"x_max":913,"o":"m 500 -17 q 331 -1 410 -17 q 191 51 251 15 q 96 147 131 88 q 61 292 61 206 q 61 304 61 297 q 63 315 61 311 l 303 315 q 302 305 303 311 q 301 294 301 299 q 324 223 301 250 q 389 184 347 196 q 486 172 431 172 q 543 175 517 172 q 590 185 569 178 q 627 202 611 192 q 651 227 643 213 q 658 261 658 242 q 634 314 658 293 q 569 349 610 335 q 476 375 528 363 q 369 401 425 388 q 263 436 314 415 q 170 489 211 457 q 105 569 129 521 q 81 685 81 617 q 113 815 81 760 q 201 904 144 869 q 331 955 257 939 q 488 971 404 971 q 641 954 569 971 q 768 902 713 938 q 855 813 824 867 q 888 685 886 760 l 888 668 l 649 668 l 649 678 q 631 734 649 710 q 579 773 614 758 q 493 788 544 788 q 406 778 442 788 q 352 750 371 768 q 333 707 333 732 q 358 657 333 676 q 424 624 382 638 q 517 598 465 610 q 623 573 568 586 q 729 540 678 560 q 822 488 781 519 q 888 411 864 457 q 913 300 913 365 q 859 117 913 186 q 712 15 806 47 q 500 -17 618 -17 m 383 -446 l 383 -364 q 455 -340 433 -364 q 476 -271 476 -317 l 388 -271 l 388 -90 l 579 -90 l 579 -233 q 556 -358 579 -311 q 490 -425 533 -404 q 383 -446 447 -446 z "},"Ṣ":{"ha":968,"x_min":61,"x_max":913,"o":"m 500 -17 q 331 -1 410 -17 q 191 51 251 15 q 96 147 131 88 q 61 292 61 206 q 61 304 61 297 q 63 315 61 311 l 303 315 q 302 305 303 311 q 301 294 301 299 q 324 223 301 250 q 389 184 347 196 q 486 172 431 172 q 543 175 517 172 q 590 185 569 178 q 627 202 611 192 q 651 227 643 213 q 658 261 658 242 q 634 314 658 293 q 569 349 610 335 q 476 375 528 363 q 369 401 425 388 q 263 436 314 415 q 170 489 211 457 q 105 569 129 521 q 81 685 81 617 q 113 815 81 760 q 201 904 144 869 q 331 955 257 939 q 488 971 404 971 q 641 954 569 971 q 768 902 713 938 q 855 813 824 867 q 888 685 886 760 l 888 668 l 649 668 l 649 678 q 631 734 649 710 q 579 773 614 758 q 493 788 544 788 q 406 778 442 788 q 352 750 371 768 q 333 707 333 732 q 358 657 333 676 q 424 624 382 638 q 517 598 465 610 q 623 573 568 586 q 729 540 678 560 q 822 488 781 519 q 888 411 864 457 q 913 300 913 365 q 859 117 913 186 q 712 15 806 47 q 500 -17 618 -17 m 388 -271 l 388 -96 l 578 -96 l 578 -271 l 388 -271 z "},"ẞ":{"ha":1168,"x_min":107,"x_max":1099,"o":"m 107 0 l 107 557 q 165 781 107 688 q 335 922 222 874 q 615 971 449 971 q 785 954 706 971 q 926 903 865 938 q 1022 819 988 869 q 1057 701 1057 768 q 1039 606 1057 647 q 992 535 1021 564 q 935 490 964 506 l 935 481 q 1056 403 1013 460 q 1099 263 1099 347 q 1062 128 1099 188 q 957 35 1025 69 q 793 0 889 0 l 457 0 l 457 192 l 731 192 q 794 204 769 192 q 832 238 819 217 q 844 286 844 258 q 830 337 844 317 q 788 368 815 357 q 718 379 760 379 l 457 379 l 457 558 l 692 558 q 774 591 744 558 q 804 668 804 624 q 756 757 804 728 q 608 786 708 786 q 461 759 517 786 q 381 679 406 732 q 356 547 356 626 l 356 0 l 107 0 z "},"Ə":{"ha":1108,"x_min":64,"x_max":1046,"o":"m 553 -17 q 349 14 439 -17 q 194 105 258 44 q 97 256 131 165 q 64 467 64 346 l 64 532 l 790 532 q 760 683 788 625 q 679 769 733 742 q 542 797 625 797 q 451 786 492 797 q 381 753 411 775 q 333 698 350 731 q 315 621 317 665 l 64 621 q 105 776 67 710 q 208 885 143 842 q 359 950 272 929 q 549 971 446 971 q 820 916 710 971 q 988 751 931 861 q 1046 475 1046 642 q 990 201 1046 310 q 824 38 933 92 q 553 -17 714 -17 m 556 175 q 675 198 625 175 q 753 266 725 221 q 786 376 782 311 l 319 376 q 337 288 319 326 q 386 225 354 250 q 461 188 418 200 q 556 175 504 175 z "},"T":{"ha":938,"x_min":33,"x_max":901,"o":"m 343 0 l 343 750 l 33 750 l 33 954 l 901 954 l 901 750 l 592 750 l 592 0 l 343 0 z "},"Ŧ":{"ha":938,"x_min":33,"x_max":901,"o":"m 343 0 l 343 750 l 33 750 l 33 954 l 901 954 l 901 750 l 592 750 l 592 0 l 343 0 m 199 369 l 199 515 l 738 515 l 738 369 l 199 369 z "},"Ť":{"ha":938,"x_min":33,"x_max":901,"o":"m 343 0 l 343 750 l 33 750 l 33 954 l 901 954 l 901 750 l 592 750 l 592 0 l 343 0 m 194 1218 l 378 1218 l 508 1085 l 429 1085 l 558 1218 l 743 1218 l 575 1035 l 363 1035 l 194 1218 z "},"Ţ":{"ha":938,"x_min":33,"x_max":901,"o":"m 343 0 l 343 750 l 33 750 l 33 954 l 901 954 l 901 750 l 592 750 l 592 0 l 343 0 m 471 -275 q 383 -270 429 -275 q 306 -257 336 -265 l 306 -183 l 443 -183 q 485 -178 469 -183 q 501 -151 501 -172 q 490 -126 501 -133 q 446 -118 478 -118 l 388 -118 l 413 36 l 533 36 l 522 -43 q 581 -58 551 -46 q 628 -92 610 -69 q 646 -153 646 -115 q 628 -215 646 -190 q 583 -251 610 -239 q 526 -269 556 -264 q 471 -275 496 -275 z "},"Ț":{"ha":938,"x_min":33,"x_max":901,"o":"m 343 0 l 343 750 l 33 750 l 33 954 l 901 954 l 901 750 l 592 750 l 592 0 l 343 0 m 368 -446 l 368 -364 q 440 -340 418 -364 q 461 -271 461 -317 l 372 -271 l 372 -90 l 564 -90 l 564 -235 q 542 -358 564 -311 q 476 -425 519 -404 q 368 -446 432 -446 z "},"Ṭ":{"ha":938,"x_min":33,"x_max":901,"o":"m 343 0 l 343 750 l 33 750 l 33 954 l 901 954 l 901 750 l 592 750 l 592 0 l 343 0 m 372 -271 l 372 -96 l 564 -96 l 564 -271 l 372 -271 z "},"U":{"ha":1088,"x_min":101,"x_max":986,"o":"m 543 -17 q 306 26 406 -17 q 154 156 207 69 q 101 369 101 242 l 101 954 l 351 954 l 351 375 q 400 231 351 283 q 543 178 449 178 q 688 231 638 178 q 738 375 738 283 l 738 954 l 986 954 l 986 369 q 933 156 986 242 q 782 26 881 69 q 543 -17 683 -17 z "},"Ú":{"ha":1088,"x_min":101,"x_max":986,"o":"m 543 -17 q 306 26 406 -17 q 154 156 207 69 q 101 369 101 242 l 101 954 l 351 954 l 351 375 q 400 231 351 283 q 543 178 449 178 q 688 231 638 178 q 738 375 738 283 l 738 954 l 986 954 l 986 369 q 933 156 986 242 q 782 26 881 69 q 543 -17 683 -17 m 438 1035 l 558 1218 l 799 1218 l 801 1214 l 611 1035 l 438 1035 z "},"Ŭ":{"ha":1088,"x_min":101,"x_max":986,"o":"m 543 -17 q 306 26 406 -17 q 154 156 207 69 q 101 369 101 242 l 101 954 l 351 954 l 351 375 q 400 231 351 283 q 543 178 449 178 q 688 231 638 178 q 738 375 738 283 l 738 954 l 986 954 l 986 369 q 933 156 986 242 q 782 26 881 69 q 543 -17 683 -17 m 544 1026 q 413 1056 465 1026 q 333 1130 360 1085 q 307 1218 307 1175 l 431 1218 q 447 1188 433 1204 q 486 1160 461 1171 q 544 1149 511 1149 q 606 1160 581 1149 q 644 1188 631 1171 q 661 1218 658 1204 l 785 1218 q 758 1130 785 1175 q 678 1056 731 1085 q 544 1026 625 1026 z "},"Ǔ":{"ha":1088,"x_min":101,"x_max":986,"o":"m 543 -17 q 306 26 406 -17 q 154 156 207 69 q 101 369 101 242 l 101 954 l 351 954 l 351 375 q 400 231 351 283 q 543 178 449 178 q 688 231 638 178 q 738 375 738 283 l 738 954 l 986 954 l 986 369 q 933 156 986 242 q 782 26 881 69 q 543 -17 683 -17 m 271 1218 l 454 1218 l 585 1085 l 506 1085 l 635 1218 l 819 1218 l 653 1035 l 439 1035 l 271 1218 z "},"Û":{"ha":1088,"x_min":101,"x_max":986,"o":"m 543 -17 q 306 26 406 -17 q 154 156 207 69 q 101 369 101 242 l 101 954 l 351 954 l 351 375 q 400 231 351 283 q 543 178 449 178 q 688 231 638 178 q 738 375 738 283 l 738 954 l 986 954 l 986 369 q 933 156 986 242 q 782 26 881 69 q 543 -17 683 -17 m 271 1035 l 439 1218 l 653 1218 l 819 1035 l 635 1035 l 506 1168 l 585 1168 l 454 1035 l 271 1035 z "},"Ȕ":{"ha":1088,"x_min":101,"x_max":986,"o":"m 543 -17 q 306 26 406 -17 q 154 156 207 69 q 101 369 101 242 l 101 954 l 351 954 l 351 375 q 400 231 351 283 q 543 178 449 178 q 688 231 638 178 q 738 375 738 283 l 738 954 l 986 954 l 986 369 q 933 156 986 242 q 782 26 881 69 q 543 -17 683 -17 m 635 1035 l 465 1214 l 467 1218 l 693 1218 l 797 1035 l 635 1035 m 344 1035 l 174 1214 l 176 1218 l 401 1218 l 506 1035 l 344 1035 z "},"Ü":{"ha":1088,"x_min":101,"x_max":986,"o":"m 543 -17 q 306 26 406 -17 q 154 156 207 69 q 101 369 101 242 l 101 954 l 351 954 l 351 375 q 400 231 351 283 q 543 178 449 178 q 688 231 638 178 q 738 375 738 283 l 738 954 l 986 954 l 986 369 q 933 156 986 242 q 782 26 881 69 q 543 -17 683 -17 m 306 1043 l 306 1218 l 489 1218 l 489 1043 l 306 1043 m 600 1043 l 600 1218 l 785 1218 l 785 1043 l 600 1043 z "},"Ǘ":{"ha":1088,"x_min":101,"x_max":986,"o":"m 543 -17 q 306 26 406 -17 q 154 156 207 69 q 101 369 101 242 l 101 954 l 351 954 l 351 375 q 400 231 351 283 q 543 178 449 178 q 688 231 638 178 q 738 375 738 283 l 738 954 l 986 954 l 986 369 q 933 156 986 242 q 782 26 881 69 q 543 -17 683 -17 m 306 1043 l 306 1218 l 489 1218 l 489 1043 l 306 1043 m 600 1043 l 600 1218 l 785 1218 l 785 1043 l 600 1043 m 438 1282 l 558 1467 l 799 1467 l 801 1461 l 611 1282 l 438 1282 z "},"Ǚ":{"ha":1088,"x_min":101,"x_max":986,"o":"m 543 -17 q 306 26 406 -17 q 154 156 207 69 q 101 369 101 242 l 101 954 l 351 954 l 351 375 q 400 231 351 283 q 543 178 449 178 q 688 231 638 178 q 738 375 738 283 l 738 954 l 986 954 l 986 369 q 933 156 986 242 q 782 26 881 69 q 543 -17 683 -17 m 306 1043 l 306 1218 l 489 1218 l 489 1043 l 306 1043 m 600 1043 l 600 1218 l 785 1218 l 785 1043 l 600 1043 m 271 1467 l 454 1467 l 585 1333 l 506 1332 l 635 1467 l 819 1467 l 653 1282 l 439 1282 l 271 1467 z "},"Ǜ":{"ha":1088,"x_min":101,"x_max":986,"o":"m 543 -17 q 306 26 406 -17 q 154 156 207 69 q 101 369 101 242 l 101 954 l 351 954 l 351 375 q 400 231 351 283 q 543 178 449 178 q 688 231 638 178 q 738 375 738 283 l 738 954 l 986 954 l 986 369 q 933 156 986 242 q 782 26 881 69 q 543 -17 683 -17 m 306 1043 l 306 1218 l 489 1218 l 489 1043 l 306 1043 m 600 1043 l 600 1218 l 785 1218 l 785 1043 l 600 1043 m 671 1282 l 496 1282 l 307 1461 l 308 1467 l 550 1467 l 671 1282 z "},"Ǖ":{"ha":1088,"x_min":101,"x_max":986,"o":"m 543 -17 q 306 26 406 -17 q 154 156 207 69 q 101 369 101 242 l 101 954 l 351 954 l 351 375 q 400 231 351 283 q 543 178 449 178 q 688 231 638 178 q 738 375 738 283 l 738 954 l 986 954 l 986 369 q 933 156 986 242 q 782 26 881 69 q 543 -17 683 -17 m 306 1043 l 306 1218 l 489 1218 l 489 1043 l 306 1043 m 600 1043 l 600 1218 l 785 1218 l 785 1043 l 600 1043 m 328 1290 l 328 1419 l 761 1419 l 761 1290 l 328 1290 z "},"Ụ":{"ha":1088,"x_min":101,"x_max":986,"o":"m 543 -17 q 306 26 406 -17 q 154 156 207 69 q 101 369 101 242 l 101 954 l 351 954 l 351 375 q 400 231 351 283 q 543 178 449 178 q 688 231 638 178 q 738 375 738 283 l 738 954 l 986 954 l 986 369 q 933 156 986 242 q 782 26 881 69 q 543 -17 683 -17 m 449 -271 l 449 -96 l 639 -96 l 639 -271 l 449 -271 z "},"Ù":{"ha":1088,"x_min":101,"x_max":986,"o":"m 543 -17 q 306 26 406 -17 q 154 156 207 69 q 101 369 101 242 l 101 954 l 351 954 l 351 375 q 400 231 351 283 q 543 178 449 178 q 688 231 638 178 q 738 375 738 283 l 738 954 l 986 954 l 986 369 q 933 156 986 242 q 782 26 881 69 q 543 -17 683 -17 m 671 1035 l 496 1035 l 307 1214 l 308 1218 l 550 1218 l 671 1035 z "},"Ủ":{"ha":1088,"x_min":101,"x_max":986,"o":"m 543 -17 q 306 26 406 -17 q 154 156 207 69 q 101 369 101 242 l 101 954 l 351 954 l 351 375 q 400 231 351 283 q 543 178 449 178 q 688 231 638 178 q 738 375 738 283 l 738 954 l 986 954 l 986 369 q 933 156 986 242 q 782 26 881 69 q 543 -17 683 -17 m 496 1032 l 496 1110 l 511 1110 q 545 1115 536 1110 q 554 1133 554 1119 q 542 1153 554 1149 q 507 1158 529 1158 l 425 1158 l 425 1224 q 464 1230 442 1228 q 508 1233 486 1232 q 546 1235 529 1235 q 599 1231 571 1235 q 653 1217 628 1226 q 694 1190 678 1207 q 711 1147 711 1174 q 694 1103 711 1121 q 651 1078 678 1086 q 596 1067 625 1069 l 596 1032 l 496 1032 z "},"Ư":{"ha":1088,"x_min":101,"x_max":1167,"o":"m 543 -17 q 306 26 406 -17 q 154 156 207 69 q 101 369 101 242 l 101 954 l 351 954 l 351 375 q 400 231 351 283 q 543 178 449 178 q 688 231 638 178 q 738 375 738 283 l 738 954 l 986 954 l 986 369 q 933 156 986 242 q 782 26 881 69 q 543 -17 683 -17 m 872 849 l 872 954 q 983 978 940 954 q 1032 1046 1025 1001 l 938 1046 l 938 1238 l 1167 1238 l 1167 1113 q 1132 971 1167 1031 q 1032 880 1097 911 q 872 849 967 849 z "},"Ứ":{"ha":1088,"x_min":101,"x_max":1167,"o":"m 543 -17 q 306 26 406 -17 q 154 156 207 69 q 101 369 101 242 l 101 954 l 351 954 l 351 375 q 400 231 351 283 q 543 178 449 178 q 688 231 638 178 q 738 375 738 283 l 738 954 l 986 954 l 986 369 q 933 156 986 242 q 782 26 881 69 q 543 -17 683 -17 m 872 849 l 872 954 q 983 978 940 954 q 1032 1046 1025 1001 l 938 1046 l 938 1238 l 1167 1238 l 1167 1113 q 1132 971 1167 1031 q 1032 880 1097 911 q 872 849 967 849 m 438 1035 l 558 1218 l 799 1218 l 801 1214 l 611 1035 l 438 1035 z "},"Ự":{"ha":1088,"x_min":101,"x_max":1167,"o":"m 543 -17 q 306 26 406 -17 q 154 156 207 69 q 101 369 101 242 l 101 954 l 351 954 l 351 375 q 400 231 351 283 q 543 178 449 178 q 688 231 638 178 q 738 375 738 283 l 738 954 l 986 954 l 986 369 q 933 156 986 242 q 782 26 881 69 q 543 -17 683 -17 m 872 849 l 872 954 q 983 978 940 954 q 1032 1046 1025 1001 l 938 1046 l 938 1238 l 1167 1238 l 1167 1113 q 1132 971 1167 1031 q 1032 880 1097 911 q 872 849 967 849 m 449 -271 l 449 -96 l 639 -96 l 639 -271 l 449 -271 z "},"Ừ":{"ha":1088,"x_min":101,"x_max":1167,"o":"m 543 -17 q 306 26 406 -17 q 154 156 207 69 q 101 369 101 242 l 101 954 l 351 954 l 351 375 q 400 231 351 283 q 543 178 449 178 q 688 231 638 178 q 738 375 738 283 l 738 954 l 986 954 l 986 369 q 933 156 986 242 q 782 26 881 69 q 543 -17 683 -17 m 872 849 l 872 954 q 983 978 940 954 q 1032 1046 1025 1001 l 938 1046 l 938 1238 l 1167 1238 l 1167 1113 q 1132 971 1167 1031 q 1032 880 1097 911 q 872 849 967 849 m 671 1035 l 496 1035 l 307 1214 l 308 1218 l 550 1218 l 671 1035 z "},"Ử":{"ha":1088,"x_min":101,"x_max":1167,"o":"m 543 -17 q 306 26 406 -17 q 154 156 207 69 q 101 369 101 242 l 101 954 l 351 954 l 351 375 q 400 231 351 283 q 543 178 449 178 q 688 231 638 178 q 738 375 738 283 l 738 954 l 986 954 l 986 369 q 933 156 986 242 q 782 26 881 69 q 543 -17 683 -17 m 872 849 l 872 954 q 983 978 940 954 q 1032 1046 1025 1001 l 938 1046 l 938 1238 l 1167 1238 l 1167 1113 q 1132 971 1167 1031 q 1032 880 1097 911 q 872 849 967 849 m 496 1032 l 496 1110 l 511 1110 q 545 1115 536 1110 q 554 1133 554 1119 q 542 1153 554 1149 q 507 1158 529 1158 l 425 1158 l 425 1224 q 464 1230 442 1228 q 508 1233 486 1232 q 546 1235 529 1235 q 599 1231 571 1235 q 653 1217 628 1226 q 694 1190 678 1207 q 711 1147 711 1174 q 694 1103 711 1121 q 651 1078 678 1086 q 596 1067 625 1069 l 596 1032 l 496 1032 z "},"Ữ":{"ha":1088,"x_min":101,"x_max":1167,"o":"m 543 -17 q 306 26 406 -17 q 154 156 207 69 q 101 369 101 242 l 101 954 l 351 954 l 351 375 q 400 231 351 283 q 543 178 449 178 q 688 231 638 178 q 738 375 738 283 l 738 954 l 986 954 l 986 369 q 933 156 986 242 q 782 26 881 69 q 543 -17 683 -17 m 872 849 l 872 954 q 983 978 940 954 q 1032 1046 1025 1001 l 938 1046 l 938 1238 l 1167 1238 l 1167 1113 q 1132 971 1167 1031 q 1032 880 1097 911 q 872 849 967 849 m 272 1039 q 291 1129 272 1088 q 347 1197 310 1171 q 438 1222 385 1222 q 514 1209 478 1222 q 585 1183 550 1196 q 656 1169 619 1169 q 693 1183 678 1169 q 714 1222 708 1196 l 818 1222 q 799 1133 818 1175 q 742 1065 779 1092 q 653 1039 706 1039 q 576 1052 613 1039 q 504 1079 539 1065 q 435 1093 469 1093 q 397 1079 413 1093 q 376 1039 382 1065 l 272 1039 z "},"Ű":{"ha":1088,"x_min":101,"x_max":986,"o":"m 543 -17 q 306 26 406 -17 q 154 156 207 69 q 101 369 101 242 l 101 954 l 351 954 l 351 375 q 400 231 351 283 q 543 178 449 178 q 688 231 638 178 q 738 375 738 283 l 738 954 l 986 954 l 986 369 q 933 156 986 242 q 782 26 881 69 q 543 -17 683 -17 m 604 1035 l 708 1218 l 933 1218 l 936 1214 l 765 1035 l 604 1035 m 313 1035 l 417 1218 l 643 1218 l 644 1214 l 475 1035 l 313 1035 z "},"Ȗ":{"ha":1088,"x_min":101,"x_max":986,"o":"m 543 -17 q 306 26 406 -17 q 154 156 207 69 q 101 369 101 242 l 101 954 l 351 954 l 351 375 q 400 231 351 283 q 543 178 449 178 q 688 231 638 178 q 738 375 738 283 l 738 954 l 986 954 l 986 369 q 933 156 986 242 q 782 26 881 69 q 543 -17 683 -17 m 307 1026 q 334 1116 307 1072 q 415 1189 361 1160 q 546 1218 468 1218 q 679 1189 626 1218 q 758 1116 732 1160 q 785 1026 785 1072 l 660 1026 q 644 1058 657 1042 q 606 1085 631 1074 q 546 1096 582 1096 q 487 1085 513 1096 q 447 1058 461 1074 q 431 1026 432 1042 l 307 1026 z "},"Ū":{"ha":1088,"x_min":101,"x_max":986,"o":"m 543 -17 q 306 26 406 -17 q 154 156 207 69 q 101 369 101 242 l 101 954 l 351 954 l 351 375 q 400 231 351 283 q 543 178 449 178 q 688 231 638 178 q 738 375 738 283 l 738 954 l 986 954 l 986 369 q 933 156 986 242 q 782 26 881 69 q 543 -17 683 -17 m 328 1043 l 328 1171 l 761 1171 l 761 1043 l 328 1043 z "},"Ų":{"ha":1088,"x_min":101,"x_max":986,"o":"m 543 -17 q 306 26 406 -17 q 154 156 207 69 q 101 369 101 242 l 101 954 l 351 954 l 351 375 q 400 231 351 283 q 543 178 449 178 q 688 231 638 178 q 738 375 738 283 l 738 954 l 986 954 l 986 369 q 933 156 986 242 q 782 26 881 69 q 543 -17 683 -17 m 700 -275 q 624 -261 661 -275 q 563 -216 586 -247 q 539 -132 539 -185 q 562 -46 539 -81 q 610 17 585 -11 l 740 17 l 740 11 q 706 -31 719 -4 q 692 -86 692 -58 q 708 -140 692 -117 q 763 -162 725 -162 l 832 -162 l 832 -254 q 767 -269 803 -264 q 700 -275 731 -275 z "},"Ů":{"ha":1088,"x_min":101,"x_max":986,"o":"m 543 -17 q 306 26 406 -17 q 154 156 207 69 q 101 369 101 242 l 101 954 l 351 954 l 351 375 q 400 231 351 283 q 543 178 449 178 q 688 231 638 178 q 738 375 738 283 l 738 954 l 986 954 l 986 369 q 933 156 986 242 q 782 26 881 69 q 543 -17 683 -17 m 544 1011 q 434 1052 478 1011 q 390 1156 390 1093 q 434 1260 390 1218 q 544 1301 478 1301 q 656 1260 613 1301 q 699 1156 699 1218 q 656 1052 699 1093 q 544 1011 613 1011 m 544 1100 q 588 1116 571 1100 q 604 1156 604 1132 q 588 1196 604 1181 q 544 1211 571 1211 q 503 1195 519 1211 q 486 1154 486 1179 q 503 1115 486 1131 q 544 1100 519 1100 z "},"Ũ":{"ha":1088,"x_min":101,"x_max":986,"o":"m 543 -17 q 306 26 406 -17 q 154 156 207 69 q 101 369 101 242 l 101 954 l 351 954 l 351 375 q 400 231 351 283 q 543 178 449 178 q 688 231 638 178 q 738 375 738 283 l 738 954 l 986 954 l 986 369 q 933 156 986 242 q 782 26 881 69 q 543 -17 683 -17 m 272 1039 q 291 1129 272 1088 q 347 1197 310 1171 q 438 1222 385 1222 q 514 1209 478 1222 q 585 1183 550 1196 q 656 1169 619 1169 q 693 1183 678 1169 q 714 1222 708 1196 l 818 1222 q 799 1133 818 1175 q 742 1065 779 1092 q 653 1039 706 1039 q 576 1052 613 1039 q 504 1079 539 1065 q 435 1093 469 1093 q 397 1079 413 1093 q 376 1039 382 1065 l 272 1039 z "},"V":{"ha":1013,"x_min":19,"x_max":993,"o":"m 363 0 l 19 954 l 286 954 l 461 415 q 475 372 467 399 q 492 316 483 344 q 507 265 501 288 l 517 265 q 531 313 524 286 q 547 367 539 340 q 561 414 556 394 l 736 954 l 993 954 l 651 0 l 363 0 z "},"W":{"ha":1360,"x_min":10,"x_max":1350,"o":"m 250 0 l 10 954 l 271 954 l 388 453 q 394 417 390 440 q 403 367 399 393 q 413 318 408 340 l 418 318 q 424 351 421 332 q 430 388 426 369 q 437 424 433 407 q 442 453 440 440 l 551 954 l 822 954 l 935 453 q 943 415 939 439 q 952 365 947 392 q 961 318 957 339 l 967 318 q 973 351 969 333 q 980 387 976 368 q 987 422 983 406 q 993 453 990 439 l 1106 954 l 1350 954 l 1110 0 l 832 0 l 710 528 q 701 572 707 547 q 691 622 696 597 q 683 667 686 647 l 678 667 q 671 622 675 647 q 662 572 667 597 q 653 528 657 547 l 532 0 l 250 0 z "},"Ẃ":{"ha":1360,"x_min":10,"x_max":1350,"o":"m 250 0 l 10 954 l 271 954 l 388 453 q 394 417 390 440 q 403 367 399 393 q 413 318 408 340 l 418 318 q 424 351 421 332 q 430 388 426 369 q 437 424 433 407 q 442 453 440 440 l 551 954 l 822 954 l 935 453 q 943 415 939 439 q 952 365 947 392 q 961 318 957 339 l 967 318 q 973 351 969 333 q 980 387 976 368 q 987 422 983 406 q 993 453 990 439 l 1106 954 l 1350 954 l 1110 0 l 832 0 l 710 528 q 701 572 707 547 q 691 622 696 597 q 683 667 686 647 l 678 667 q 671 622 675 647 q 662 572 667 597 q 653 528 657 547 l 532 0 l 250 0 m 575 1035 l 696 1218 l 936 1218 l 939 1214 l 749 1035 l 575 1035 z "},"Ŵ":{"ha":1360,"x_min":10,"x_max":1350,"o":"m 250 0 l 10 954 l 271 954 l 388 453 q 394 417 390 440 q 403 367 399 393 q 413 318 408 340 l 418 318 q 424 351 421 332 q 430 388 426 369 q 437 424 433 407 q 442 453 440 440 l 551 954 l 822 954 l 935 453 q 943 415 939 439 q 952 365 947 392 q 961 318 957 339 l 967 318 q 973 351 969 333 q 980 387 976 368 q 987 422 983 406 q 993 453 990 439 l 1106 954 l 1350 954 l 1110 0 l 832 0 l 710 528 q 701 572 707 547 q 691 622 696 597 q 683 667 686 647 l 678 667 q 671 622 675 647 q 662 572 667 597 q 653 528 657 547 l 532 0 l 250 0 m 408 1035 l 576 1218 l 790 1218 l 957 1035 l 772 1035 l 643 1168 l 722 1168 l 592 1035 l 408 1035 z "},"Ẅ":{"ha":1360,"x_min":10,"x_max":1350,"o":"m 250 0 l 10 954 l 271 954 l 388 453 q 394 417 390 440 q 403 367 399 393 q 413 318 408 340 l 418 318 q 424 351 421 332 q 430 388 426 369 q 437 424 433 407 q 442 453 440 440 l 551 954 l 822 954 l 935 453 q 943 415 939 439 q 952 365 947 392 q 961 318 957 339 l 967 318 q 973 351 969 333 q 980 387 976 368 q 987 422 983 406 q 993 453 990 439 l 1106 954 l 1350 954 l 1110 0 l 832 0 l 710 528 q 701 572 707 547 q 691 622 696 597 q 683 667 686 647 l 678 667 q 671 622 675 647 q 662 572 667 597 q 653 528 657 547 l 532 0 l 250 0 m 443 1043 l 443 1218 l 628 1218 l 628 1043 l 443 1043 m 738 1043 l 738 1218 l 922 1218 l 922 1043 l 738 1043 z "},"Ẁ":{"ha":1360,"x_min":10,"x_max":1350,"o":"m 250 0 l 10 954 l 271 954 l 388 453 q 394 417 390 440 q 403 367 399 393 q 413 318 408 340 l 418 318 q 424 351 421 332 q 430 388 426 369 q 437 424 433 407 q 442 453 440 440 l 551 954 l 822 954 l 935 453 q 943 415 939 439 q 952 365 947 392 q 961 318 957 339 l 967 318 q 973 351 969 333 q 980 387 976 368 q 987 422 983 406 q 993 453 990 439 l 1106 954 l 1350 954 l 1110 0 l 832 0 l 710 528 q 701 572 707 547 q 691 622 696 597 q 683 667 686 647 l 678 667 q 671 622 675 647 q 662 572 667 597 q 653 528 657 547 l 532 0 l 250 0 m 808 1035 l 633 1035 l 444 1214 l 446 1218 l 688 1218 l 808 1035 z "},"X":{"ha":1022,"x_min":10,"x_max":1015,"o":"m 10 0 l 353 503 l 43 954 l 344 954 l 519 676 l 526 676 l 701 954 l 983 954 l 672 503 l 1015 0 l 713 0 l 506 329 l 499 329 l 292 0 l 10 0 z "},"Y":{"ha":1017,"x_min":11,"x_max":1004,"o":"m 385 0 l 385 378 l 11 954 l 299 954 l 513 597 l 519 597 l 732 954 l 1004 954 l 635 378 l 635 0 l 385 0 z "},"Ý":{"ha":1017,"x_min":11,"x_max":1004,"o":"m 385 0 l 385 378 l 11 954 l 299 954 l 513 597 l 519 597 l 732 954 l 1004 954 l 635 378 l 635 0 l 385 0 m 407 1035 l 528 1218 l 768 1218 l 771 1214 l 582 1035 l 407 1035 z "},"Ŷ":{"ha":1017,"x_min":11,"x_max":1004,"o":"m 385 0 l 385 378 l 11 954 l 299 954 l 513 597 l 519 597 l 732 954 l 1004 954 l 635 378 l 635 0 l 385 0 m 240 1035 l 408 1218 l 622 1218 l 789 1035 l 604 1035 l 475 1168 l 554 1168 l 424 1035 l 240 1035 z "},"Ÿ":{"ha":1017,"x_min":11,"x_max":1004,"o":"m 385 0 l 385 378 l 11 954 l 299 954 l 513 597 l 519 597 l 732 954 l 1004 954 l 635 378 l 635 0 l 385 0 m 275 1043 l 275 1218 l 460 1218 l 460 1043 l 275 1043 m 569 1043 l 569 1218 l 754 1218 l 754 1043 l 569 1043 z "},"Ỵ":{"ha":1017,"x_min":11,"x_max":1004,"o":"m 385 0 l 385 378 l 11 954 l 299 954 l 513 597 l 519 597 l 732 954 l 1004 954 l 635 378 l 635 0 l 385 0 m 418 -271 l 418 -96 l 608 -96 l 608 -271 l 418 -271 z "},"Ỳ":{"ha":1017,"x_min":11,"x_max":1004,"o":"m 385 0 l 385 378 l 11 954 l 299 954 l 513 597 l 519 597 l 732 954 l 1004 954 l 635 378 l 635 0 l 385 0 m 640 1035 l 465 1035 l 276 1214 l 278 1218 l 519 1218 l 640 1035 z "},"Ỷ":{"ha":1017,"x_min":11,"x_max":1004,"o":"m 385 0 l 385 378 l 11 954 l 299 954 l 513 597 l 519 597 l 732 954 l 1004 954 l 635 378 l 635 0 l 385 0 m 465 1032 l 465 1110 l 482 1110 q 515 1115 506 1110 q 524 1133 524 1119 q 511 1153 524 1149 q 476 1158 499 1158 l 394 1158 l 394 1224 q 433 1230 411 1228 q 478 1233 456 1232 q 517 1235 500 1235 q 569 1231 540 1235 q 623 1217 597 1226 q 665 1190 649 1207 q 681 1147 681 1174 q 664 1103 681 1119 q 621 1078 647 1086 q 565 1067 594 1069 l 565 1032 l 465 1032 z "},"Ȳ":{"ha":1017,"x_min":11,"x_max":1004,"o":"m 385 0 l 385 378 l 11 954 l 299 954 l 513 597 l 519 597 l 732 954 l 1004 954 l 635 378 l 635 0 l 385 0 m 297 1043 l 297 1171 l 731 1171 l 731 1043 l 297 1043 z "},"Ỹ":{"ha":1017,"x_min":11,"x_max":1004,"o":"m 385 0 l 385 378 l 11 954 l 299 954 l 513 597 l 519 597 l 732 954 l 1004 954 l 635 378 l 635 0 l 385 0 m 242 1039 q 260 1129 242 1088 q 317 1197 279 1171 q 407 1222 354 1222 q 483 1209 447 1222 q 554 1183 519 1196 q 625 1169 589 1169 q 663 1183 647 1169 q 683 1222 678 1196 l 788 1222 q 768 1133 788 1175 q 712 1065 749 1092 q 622 1039 675 1039 q 545 1052 582 1039 q 474 1079 508 1065 q 404 1093 440 1093 q 367 1079 382 1093 q 346 1039 351 1065 l 242 1039 z "},"Z":{"ha":947,"x_min":36,"x_max":900,"o":"m 36 0 l 36 93 l 510 760 l 71 760 l 71 954 l 889 954 l 889 861 l 415 194 l 900 194 l 900 0 l 36 0 z "},"Ź":{"ha":947,"x_min":36,"x_max":900,"o":"m 36 0 l 36 93 l 510 760 l 71 760 l 71 954 l 889 954 l 889 861 l 415 194 l 900 194 l 900 0 l 36 0 m 368 1035 l 489 1218 l 729 1218 l 732 1214 l 543 1035 l 368 1035 z "},"Ž":{"ha":947,"x_min":36,"x_max":900,"o":"m 36 0 l 36 93 l 510 760 l 71 760 l 71 954 l 889 954 l 889 861 l 415 194 l 900 194 l 900 0 l 36 0 m 201 1218 l 385 1218 l 515 1085 l 436 1085 l 565 1218 l 751 1218 l 583 1035 l 369 1035 l 201 1218 z "},"Ż":{"ha":947,"x_min":36,"x_max":900,"o":"m 36 0 l 36 93 l 510 760 l 71 760 l 71 954 l 889 954 l 889 861 l 415 194 l 900 194 l 900 0 l 36 0 m 382 1043 l 382 1224 l 572 1224 l 572 1043 l 382 1043 z "},"a":{"ha":856,"x_min":44,"x_max":849,"o":"m 290 -17 q 201 -8 244 -17 q 122 24 157 1 q 65 88 86 47 q 44 189 44 128 q 78 318 44 268 q 174 397 111 368 q 327 436 238 425 q 528 447 417 447 l 528 493 q 515 547 528 525 q 478 580 503 568 q 414 592 454 592 q 351 583 378 592 q 310 559 324 575 q 296 521 296 543 l 296 508 l 74 508 q 72 520 72 515 q 72 533 72 525 q 113 647 72 599 q 231 722 154 696 q 415 749 307 749 q 592 724 517 749 q 712 647 668 699 q 756 513 756 596 l 756 200 q 769 163 756 176 q 801 149 782 149 l 849 149 l 849 8 q 801 -8 833 1 q 722 -17 768 -17 q 640 -5 675 -17 q 581 28 604 7 q 550 79 558 50 l 540 79 q 478 29 514 51 q 397 -5 443 7 q 290 -17 350 -17 m 375 140 q 436 150 408 140 q 484 177 464 160 q 516 219 504 194 q 528 274 528 244 l 528 322 q 392 311 449 322 q 304 276 335 300 q 274 217 274 253 q 287 173 274 190 q 322 148 300 156 q 375 140 344 140 z "},"á":{"ha":856,"x_min":44,"x_max":849,"o":"m 290 -17 q 201 -8 244 -17 q 122 24 157 1 q 65 88 86 47 q 44 189 44 128 q 78 318 44 268 q 174 397 111 368 q 327 436 238 425 q 528 447 417 447 l 528 493 q 515 547 528 525 q 478 580 503 568 q 414 592 454 592 q 351 583 378 592 q 310 559 324 575 q 296 521 296 543 l 296 508 l 74 508 q 72 520 72 515 q 72 533 72 525 q 113 647 72 599 q 231 722 154 696 q 415 749 307 749 q 592 724 517 749 q 712 647 668 699 q 756 513 756 596 l 756 200 q 769 163 756 176 q 801 149 782 149 l 849 149 l 849 8 q 801 -8 833 1 q 722 -17 768 -17 q 640 -5 675 -17 q 581 28 604 7 q 550 79 558 50 l 540 79 q 478 29 514 51 q 397 -5 443 7 q 290 -17 350 -17 m 375 140 q 436 150 408 140 q 484 177 464 160 q 516 219 504 194 q 528 274 528 244 l 528 322 q 392 311 449 322 q 304 276 335 300 q 274 217 274 253 q 287 173 274 190 q 322 148 300 156 q 375 140 344 140 m 299 819 l 418 1004 l 653 1004 l 654 999 l 465 819 l 299 819 z "},"ă":{"ha":856,"x_min":44,"x_max":849,"o":"m 290 -17 q 201 -8 244 -17 q 122 24 157 1 q 65 88 86 47 q 44 189 44 128 q 78 318 44 268 q 174 397 111 368 q 327 436 238 425 q 528 447 417 447 l 528 493 q 515 547 528 525 q 478 580 503 568 q 414 592 454 592 q 351 583 378 592 q 310 559 324 575 q 296 521 296 543 l 296 508 l 74 508 q 72 520 72 515 q 72 533 72 525 q 113 647 72 599 q 231 722 154 696 q 415 749 307 749 q 592 724 517 749 q 712 647 668 699 q 756 513 756 596 l 756 200 q 769 163 756 176 q 801 149 782 149 l 849 149 l 849 8 q 801 -8 833 1 q 722 -17 768 -17 q 640 -5 675 -17 q 581 28 604 7 q 550 79 558 50 l 540 79 q 478 29 514 51 q 397 -5 443 7 q 290 -17 350 -17 m 375 140 q 436 150 408 140 q 484 177 464 160 q 516 219 504 194 q 528 274 528 244 l 528 322 q 392 311 449 322 q 304 276 335 300 q 274 217 274 253 q 287 173 274 190 q 322 148 300 156 q 375 140 344 140 m 414 813 q 281 842 335 813 q 201 915 228 871 q 175 1004 175 960 l 299 1004 q 319 971 303 988 q 359 944 335 954 q 414 935 383 935 q 474 946 449 935 q 513 974 499 957 q 529 1004 528 990 l 653 1004 q 626 915 653 960 q 546 842 599 871 q 414 813 493 813 z "},"ắ":{"ha":856,"x_min":44,"x_max":849,"o":"m 290 -17 q 201 -8 244 -17 q 122 24 157 1 q 65 88 86 47 q 44 189 44 128 q 78 318 44 268 q 174 397 111 368 q 327 436 238 425 q 528 447 417 447 l 528 493 q 515 547 528 525 q 478 580 503 568 q 414 592 454 592 q 351 583 378 592 q 310 559 324 575 q 296 521 296 543 l 296 508 l 74 508 q 72 520 72 515 q 72 533 72 525 q 113 647 72 599 q 231 722 154 696 q 415 749 307 749 q 592 724 517 749 q 712 647 668 699 q 756 513 756 596 l 756 200 q 769 163 756 176 q 801 149 782 149 l 849 149 l 849 8 q 801 -8 833 1 q 722 -17 768 -17 q 640 -5 675 -17 q 581 28 604 7 q 550 79 558 50 l 540 79 q 478 29 514 51 q 397 -5 443 7 q 290 -17 350 -17 m 375 140 q 436 150 408 140 q 484 177 464 160 q 516 219 504 194 q 528 274 528 244 l 528 322 q 392 311 449 322 q 304 276 335 300 q 274 217 274 253 q 287 173 274 190 q 322 148 300 156 q 375 140 344 140 m 414 813 q 281 842 335 813 q 201 915 228 871 q 175 1004 175 960 l 299 1004 q 319 971 303 988 q 359 944 335 954 q 414 935 383 935 q 474 946 449 935 q 513 974 499 957 q 529 1004 528 990 l 653 1004 q 626 915 653 960 q 546 842 599 871 q 414 813 493 813 m 299 1074 l 418 1258 l 653 1258 l 654 1253 l 465 1074 l 299 1074 z "},"ặ":{"ha":856,"x_min":44,"x_max":849,"o":"m 290 -17 q 201 -8 244 -17 q 122 24 157 1 q 65 88 86 47 q 44 189 44 128 q 78 318 44 268 q 174 397 111 368 q 327 436 238 425 q 528 447 417 447 l 528 493 q 515 547 528 525 q 478 580 503 568 q 414 592 454 592 q 351 583 378 592 q 310 559 324 575 q 296 521 296 543 l 296 508 l 74 508 q 72 520 72 515 q 72 533 72 525 q 113 647 72 599 q 231 722 154 696 q 415 749 307 749 q 592 724 517 749 q 712 647 668 699 q 756 513 756 596 l 756 200 q 769 163 756 176 q 801 149 782 149 l 849 149 l 849 8 q 801 -8 833 1 q 722 -17 768 -17 q 640 -5 675 -17 q 581 28 604 7 q 550 79 558 50 l 540 79 q 478 29 514 51 q 397 -5 443 7 q 290 -17 350 -17 m 375 140 q 436 150 408 140 q 484 177 464 160 q 516 219 504 194 q 528 274 528 244 l 528 322 q 392 311 449 322 q 304 276 335 300 q 274 217 274 253 q 287 173 274 190 q 322 148 300 156 q 375 140 344 140 m 318 -271 l 318 -96 l 508 -96 l 508 -271 l 318 -271 m 414 813 q 281 842 335 813 q 201 915 228 871 q 175 1004 175 960 l 299 1004 q 319 971 303 988 q 359 944 335 954 q 414 935 383 935 q 474 946 449 935 q 513 974 499 957 q 529 1004 528 990 l 653 1004 q 626 915 653 960 q 546 842 599 871 q 414 813 493 813 z "},"ằ":{"ha":856,"x_min":44,"x_max":849,"o":"m 290 -17 q 201 -8 244 -17 q 122 24 157 1 q 65 88 86 47 q 44 189 44 128 q 78 318 44 268 q 174 397 111 368 q 327 436 238 425 q 528 447 417 447 l 528 493 q 515 547 528 525 q 478 580 503 568 q 414 592 454 592 q 351 583 378 592 q 310 559 324 575 q 296 521 296 543 l 296 508 l 74 508 q 72 520 72 515 q 72 533 72 525 q 113 647 72 599 q 231 722 154 696 q 415 749 307 749 q 592 724 517 749 q 712 647 668 699 q 756 513 756 596 l 756 200 q 769 163 756 176 q 801 149 782 149 l 849 149 l 849 8 q 801 -8 833 1 q 722 -17 768 -17 q 640 -5 675 -17 q 581 28 604 7 q 550 79 558 50 l 540 79 q 478 29 514 51 q 397 -5 443 7 q 290 -17 350 -17 m 375 140 q 436 150 408 140 q 484 177 464 160 q 516 219 504 194 q 528 274 528 244 l 528 322 q 392 311 449 322 q 304 276 335 300 q 274 217 274 253 q 287 173 274 190 q 322 148 300 156 q 375 140 344 140 m 414 813 q 281 842 335 813 q 201 915 228 871 q 175 1004 175 960 l 299 1004 q 319 971 303 988 q 359 944 335 954 q 414 935 383 935 q 474 946 449 935 q 513 974 499 957 q 529 1004 528 990 l 653 1004 q 626 915 653 960 q 546 842 599 871 q 414 813 493 813 m 532 1074 l 365 1074 l 176 1253 l 178 1258 l 411 1258 l 532 1074 z "},"ẳ":{"ha":856,"x_min":44,"x_max":849,"o":"m 290 -17 q 201 -8 244 -17 q 122 24 157 1 q 65 88 86 47 q 44 189 44 128 q 78 318 44 268 q 174 397 111 368 q 327 436 238 425 q 528 447 417 447 l 528 493 q 515 547 528 525 q 478 580 503 568 q 414 592 454 592 q 351 583 378 592 q 310 559 324 575 q 296 521 296 543 l 296 508 l 74 508 q 72 520 72 515 q 72 533 72 525 q 113 647 72 599 q 231 722 154 696 q 415 749 307 749 q 592 724 517 749 q 712 647 668 699 q 756 513 756 596 l 756 200 q 769 163 756 176 q 801 149 782 149 l 849 149 l 849 8 q 801 -8 833 1 q 722 -17 768 -17 q 640 -5 675 -17 q 581 28 604 7 q 550 79 558 50 l 540 79 q 478 29 514 51 q 397 -5 443 7 q 290 -17 350 -17 m 375 140 q 436 150 408 140 q 484 177 464 160 q 516 219 504 194 q 528 274 528 244 l 528 322 q 392 311 449 322 q 304 276 335 300 q 274 217 274 253 q 287 173 274 190 q 322 148 300 156 q 375 140 344 140 m 414 813 q 281 842 335 813 q 201 915 228 871 q 175 1004 175 960 l 299 1004 q 319 971 303 988 q 359 944 335 954 q 414 935 383 935 q 474 946 449 935 q 513 974 499 957 q 529 1004 528 990 l 653 1004 q 626 915 653 960 q 546 842 599 871 q 414 813 493 813 m 367 1074 l 367 1151 l 383 1151 q 416 1157 407 1151 q 425 1176 425 1163 q 413 1196 425 1192 q 378 1200 400 1200 l 296 1200 l 296 1267 q 335 1273 313 1271 q 379 1276 357 1275 q 418 1278 401 1278 q 470 1273 442 1278 q 524 1258 499 1268 q 566 1232 550 1249 q 582 1189 582 1215 q 565 1145 582 1163 q 522 1119 549 1128 q 467 1108 496 1111 l 467 1074 l 367 1074 z "},"ẵ":{"ha":856,"x_min":44,"x_max":849,"o":"m 290 -17 q 201 -8 244 -17 q 122 24 157 1 q 65 88 86 47 q 44 189 44 128 q 78 318 44 268 q 174 397 111 368 q 327 436 238 425 q 528 447 417 447 l 528 493 q 515 547 528 525 q 478 580 503 568 q 414 592 454 592 q 351 583 378 592 q 310 559 324 575 q 296 521 296 543 l 296 508 l 74 508 q 72 520 72 515 q 72 533 72 525 q 113 647 72 599 q 231 722 154 696 q 415 749 307 749 q 592 724 517 749 q 712 647 668 699 q 756 513 756 596 l 756 200 q 769 163 756 176 q 801 149 782 149 l 849 149 l 849 8 q 801 -8 833 1 q 722 -17 768 -17 q 640 -5 675 -17 q 581 28 604 7 q 550 79 558 50 l 540 79 q 478 29 514 51 q 397 -5 443 7 q 290 -17 350 -17 m 375 140 q 436 150 408 140 q 484 177 464 160 q 516 219 504 194 q 528 274 528 244 l 528 322 q 392 311 449 322 q 304 276 335 300 q 274 217 274 253 q 287 173 274 190 q 322 148 300 156 q 375 140 344 140 m 414 813 q 281 842 335 813 q 201 915 228 871 q 175 1004 175 960 l 299 1004 q 319 971 303 988 q 359 944 335 954 q 414 935 383 935 q 474 946 449 935 q 513 974 499 957 q 529 1004 528 990 l 653 1004 q 626 915 653 960 q 546 842 599 871 q 414 813 493 813 m 142 1076 q 160 1165 142 1124 q 217 1233 179 1207 q 307 1258 254 1258 q 384 1245 347 1258 q 455 1219 421 1232 q 525 1206 489 1206 q 563 1219 547 1206 q 583 1258 578 1233 l 688 1258 q 668 1170 688 1211 q 612 1103 649 1129 q 522 1076 575 1076 q 445 1090 482 1076 q 374 1116 408 1103 q 304 1129 340 1129 q 267 1115 282 1129 q 246 1076 251 1101 l 142 1076 z "},"ǎ":{"ha":856,"x_min":44,"x_max":849,"o":"m 290 -17 q 201 -8 244 -17 q 122 24 157 1 q 65 88 86 47 q 44 189 44 128 q 78 318 44 268 q 174 397 111 368 q 327 436 238 425 q 528 447 417 447 l 528 493 q 515 547 528 525 q 478 580 503 568 q 414 592 454 592 q 351 583 378 592 q 310 559 324 575 q 296 521 296 543 l 296 508 l 74 508 q 72 520 72 515 q 72 533 72 525 q 113 647 72 599 q 231 722 154 696 q 415 749 307 749 q 592 724 517 749 q 712 647 668 699 q 756 513 756 596 l 756 200 q 769 163 756 176 q 801 149 782 149 l 849 149 l 849 8 q 801 -8 833 1 q 722 -17 768 -17 q 640 -5 675 -17 q 581 28 604 7 q 550 79 558 50 l 540 79 q 478 29 514 51 q 397 -5 443 7 q 290 -17 350 -17 m 375 140 q 436 150 408 140 q 484 177 464 160 q 516 219 504 194 q 528 274 528 244 l 528 322 q 392 311 449 322 q 304 276 335 300 q 274 217 274 253 q 287 173 274 190 q 322 148 300 156 q 375 140 344 140 m 147 1004 l 324 1004 l 454 871 l 375 871 l 504 1004 l 683 1004 l 515 819 l 315 819 l 147 1004 z "},"â":{"ha":856,"x_min":44,"x_max":849,"o":"m 290 -17 q 201 -8 244 -17 q 122 24 157 1 q 65 88 86 47 q 44 189 44 128 q 78 318 44 268 q 174 397 111 368 q 327 436 238 425 q 528 447 417 447 l 528 493 q 515 547 528 525 q 478 580 503 568 q 414 592 454 592 q 351 583 378 592 q 310 559 324 575 q 296 521 296 543 l 296 508 l 74 508 q 72 520 72 515 q 72 533 72 525 q 113 647 72 599 q 231 722 154 696 q 415 749 307 749 q 592 724 517 749 q 712 647 668 699 q 756 513 756 596 l 756 200 q 769 163 756 176 q 801 149 782 149 l 849 149 l 849 8 q 801 -8 833 1 q 722 -17 768 -17 q 640 -5 675 -17 q 581 28 604 7 q 550 79 558 50 l 540 79 q 478 29 514 51 q 397 -5 443 7 q 290 -17 350 -17 m 375 140 q 436 150 408 140 q 484 177 464 160 q 516 219 504 194 q 528 274 528 244 l 528 322 q 392 311 449 322 q 304 276 335 300 q 274 217 274 253 q 287 173 274 190 q 322 148 300 156 q 375 140 344 140 m 147 819 l 315 1004 l 515 1004 l 683 819 l 504 819 l 375 954 l 454 953 l 324 819 l 147 819 z "},"ấ":{"ha":856,"x_min":44,"x_max":849,"o":"m 290 -17 q 201 -8 244 -17 q 122 24 157 1 q 65 88 86 47 q 44 189 44 128 q 78 318 44 268 q 174 397 111 368 q 327 436 238 425 q 528 447 417 447 l 528 493 q 515 547 528 525 q 478 580 503 568 q 414 592 454 592 q 351 583 378 592 q 310 559 324 575 q 296 521 296 543 l 296 508 l 74 508 q 72 520 72 515 q 72 533 72 525 q 113 647 72 599 q 231 722 154 696 q 415 749 307 749 q 592 724 517 749 q 712 647 668 699 q 756 513 756 596 l 756 200 q 769 163 756 176 q 801 149 782 149 l 849 149 l 849 8 q 801 -8 833 1 q 722 -17 768 -17 q 640 -5 675 -17 q 581 28 604 7 q 550 79 558 50 l 540 79 q 478 29 514 51 q 397 -5 443 7 q 290 -17 350 -17 m 375 140 q 436 150 408 140 q 484 177 464 160 q 516 219 504 194 q 528 274 528 244 l 528 322 q 392 311 449 322 q 304 276 335 300 q 274 217 274 253 q 287 173 274 190 q 322 148 300 156 q 375 140 344 140 m 147 819 l 315 1004 l 515 1004 l 683 819 l 504 819 l 375 954 l 454 953 l 324 819 l 147 819 m 299 1074 l 418 1258 l 653 1258 l 654 1253 l 465 1074 l 299 1074 z "},"ậ":{"ha":856,"x_min":44,"x_max":849,"o":"m 290 -17 q 201 -8 244 -17 q 122 24 157 1 q 65 88 86 47 q 44 189 44 128 q 78 318 44 268 q 174 397 111 368 q 327 436 238 425 q 528 447 417 447 l 528 493 q 515 547 528 525 q 478 580 503 568 q 414 592 454 592 q 351 583 378 592 q 310 559 324 575 q 296 521 296 543 l 296 508 l 74 508 q 72 520 72 515 q 72 533 72 525 q 113 647 72 599 q 231 722 154 696 q 415 749 307 749 q 592 724 517 749 q 712 647 668 699 q 756 513 756 596 l 756 200 q 769 163 756 176 q 801 149 782 149 l 849 149 l 849 8 q 801 -8 833 1 q 722 -17 768 -17 q 640 -5 675 -17 q 581 28 604 7 q 550 79 558 50 l 540 79 q 478 29 514 51 q 397 -5 443 7 q 290 -17 350 -17 m 375 140 q 436 150 408 140 q 484 177 464 160 q 516 219 504 194 q 528 274 528 244 l 528 322 q 392 311 449 322 q 304 276 335 300 q 274 217 274 253 q 287 173 274 190 q 322 148 300 156 q 375 140 344 140 m 318 -271 l 318 -96 l 508 -96 l 508 -271 l 318 -271 m 147 819 l 315 1004 l 515 1004 l 683 819 l 504 819 l 375 954 l 454 953 l 324 819 l 147 819 z "},"ầ":{"ha":856,"x_min":44,"x_max":849,"o":"m 290 -17 q 201 -8 244 -17 q 122 24 157 1 q 65 88 86 47 q 44 189 44 128 q 78 318 44 268 q 174 397 111 368 q 327 436 238 425 q 528 447 417 447 l 528 493 q 515 547 528 525 q 478 580 503 568 q 414 592 454 592 q 351 583 378 592 q 310 559 324 575 q 296 521 296 543 l 296 508 l 74 508 q 72 520 72 515 q 72 533 72 525 q 113 647 72 599 q 231 722 154 696 q 415 749 307 749 q 592 724 517 749 q 712 647 668 699 q 756 513 756 596 l 756 200 q 769 163 756 176 q 801 149 782 149 l 849 149 l 849 8 q 801 -8 833 1 q 722 -17 768 -17 q 640 -5 675 -17 q 581 28 604 7 q 550 79 558 50 l 540 79 q 478 29 514 51 q 397 -5 443 7 q 290 -17 350 -17 m 375 140 q 436 150 408 140 q 484 177 464 160 q 516 219 504 194 q 528 274 528 244 l 528 322 q 392 311 449 322 q 304 276 335 300 q 274 217 274 253 q 287 173 274 190 q 322 148 300 156 q 375 140 344 140 m 147 819 l 315 1004 l 515 1004 l 683 819 l 504 819 l 375 954 l 454 953 l 324 819 l 147 819 m 532 1074 l 365 1074 l 176 1253 l 178 1258 l 411 1258 l 532 1074 z "},"ẩ":{"ha":856,"x_min":44,"x_max":849,"o":"m 290 -17 q 201 -8 244 -17 q 122 24 157 1 q 65 88 86 47 q 44 189 44 128 q 78 318 44 268 q 174 397 111 368 q 327 436 238 425 q 528 447 417 447 l 528 493 q 515 547 528 525 q 478 580 503 568 q 414 592 454 592 q 351 583 378 592 q 310 559 324 575 q 296 521 296 543 l 296 508 l 74 508 q 72 520 72 515 q 72 533 72 525 q 113 647 72 599 q 231 722 154 696 q 415 749 307 749 q 592 724 517 749 q 712 647 668 699 q 756 513 756 596 l 756 200 q 769 163 756 176 q 801 149 782 149 l 849 149 l 849 8 q 801 -8 833 1 q 722 -17 768 -17 q 640 -5 675 -17 q 581 28 604 7 q 550 79 558 50 l 540 79 q 478 29 514 51 q 397 -5 443 7 q 290 -17 350 -17 m 375 140 q 436 150 408 140 q 484 177 464 160 q 516 219 504 194 q 528 274 528 244 l 528 322 q 392 311 449 322 q 304 276 335 300 q 274 217 274 253 q 287 173 274 190 q 322 148 300 156 q 375 140 344 140 m 147 819 l 315 1004 l 515 1004 l 683 819 l 504 819 l 375 954 l 454 953 l 324 819 l 147 819 m 367 1074 l 367 1151 l 383 1151 q 416 1157 407 1151 q 425 1176 425 1163 q 413 1196 425 1192 q 378 1200 400 1200 l 296 1200 l 296 1267 q 335 1273 313 1271 q 379 1276 357 1275 q 418 1278 401 1278 q 470 1273 442 1278 q 524 1258 499 1268 q 566 1232 550 1249 q 582 1189 582 1215 q 565 1145 582 1163 q 522 1119 549 1128 q 467 1108 496 1111 l 467 1074 l 367 1074 z "},"ẫ":{"ha":856,"x_min":44,"x_max":849,"o":"m 290 -17 q 201 -8 244 -17 q 122 24 157 1 q 65 88 86 47 q 44 189 44 128 q 78 318 44 268 q 174 397 111 368 q 327 436 238 425 q 528 447 417 447 l 528 493 q 515 547 528 525 q 478 580 503 568 q 414 592 454 592 q 351 583 378 592 q 310 559 324 575 q 296 521 296 543 l 296 508 l 74 508 q 72 520 72 515 q 72 533 72 525 q 113 647 72 599 q 231 722 154 696 q 415 749 307 749 q 592 724 517 749 q 712 647 668 699 q 756 513 756 596 l 756 200 q 769 163 756 176 q 801 149 782 149 l 849 149 l 849 8 q 801 -8 833 1 q 722 -17 768 -17 q 640 -5 675 -17 q 581 28 604 7 q 550 79 558 50 l 540 79 q 478 29 514 51 q 397 -5 443 7 q 290 -17 350 -17 m 375 140 q 436 150 408 140 q 484 177 464 160 q 516 219 504 194 q 528 274 528 244 l 528 322 q 392 311 449 322 q 304 276 335 300 q 274 217 274 253 q 287 173 274 190 q 322 148 300 156 q 375 140 344 140 m 147 819 l 315 1004 l 515 1004 l 683 819 l 504 819 l 375 954 l 454 953 l 324 819 l 147 819 m 142 1076 q 160 1165 142 1124 q 217 1233 179 1207 q 307 1258 254 1258 q 384 1245 347 1258 q 455 1219 421 1232 q 525 1206 489 1206 q 563 1219 547 1206 q 583 1258 578 1233 l 688 1258 q 668 1170 688 1211 q 612 1103 649 1129 q 522 1076 575 1076 q 445 1090 482 1076 q 374 1116 408 1103 q 304 1129 340 1129 q 267 1115 282 1129 q 246 1076 251 1101 l 142 1076 z "},"ȁ":{"ha":856,"x_min":44,"x_max":849,"o":"m 290 -17 q 201 -8 244 -17 q 122 24 157 1 q 65 88 86 47 q 44 189 44 128 q 78 318 44 268 q 174 397 111 368 q 327 436 238 425 q 528 447 417 447 l 528 493 q 515 547 528 525 q 478 580 503 568 q 414 592 454 592 q 351 583 378 592 q 310 559 324 575 q 296 521 296 543 l 296 508 l 74 508 q 72 520 72 515 q 72 533 72 525 q 113 647 72 599 q 231 722 154 696 q 415 749 307 749 q 592 724 517 749 q 712 647 668 699 q 756 513 756 596 l 756 200 q 769 163 756 176 q 801 149 782 149 l 849 149 l 849 8 q 801 -8 833 1 q 722 -17 768 -17 q 640 -5 675 -17 q 581 28 604 7 q 550 79 558 50 l 540 79 q 478 29 514 51 q 397 -5 443 7 q 290 -17 350 -17 m 375 140 q 436 150 408 140 q 484 177 464 160 q 516 219 504 194 q 528 274 528 244 l 528 322 q 392 311 449 322 q 304 276 335 300 q 274 217 274 253 q 287 173 274 190 q 322 148 300 156 q 375 140 344 140 m 486 819 l 318 1000 l 319 1006 l 532 1006 l 636 819 l 486 819 m 224 819 l 54 1000 l 57 1006 l 268 1006 l 372 819 l 224 819 z "},"ä":{"ha":856,"x_min":44,"x_max":849,"o":"m 290 -17 q 201 -8 244 -17 q 122 24 157 1 q 65 88 86 47 q 44 189 44 128 q 78 318 44 268 q 174 397 111 368 q 327 436 238 425 q 528 447 417 447 l 528 493 q 515 547 528 525 q 478 580 503 568 q 414 592 454 592 q 351 583 378 592 q 310 559 324 575 q 296 521 296 543 l 296 508 l 74 508 q 72 520 72 515 q 72 533 72 525 q 113 647 72 599 q 231 722 154 696 q 415 749 307 749 q 592 724 517 749 q 712 647 668 699 q 756 513 756 596 l 756 200 q 769 163 756 176 q 801 149 782 149 l 849 149 l 849 8 q 801 -8 833 1 q 722 -17 768 -17 q 640 -5 675 -17 q 581 28 604 7 q 550 79 558 50 l 540 79 q 478 29 514 51 q 397 -5 443 7 q 290 -17 350 -17 m 375 140 q 436 150 408 140 q 484 177 464 160 q 516 219 504 194 q 528 274 528 244 l 528 322 q 392 311 449 322 q 304 276 335 300 q 274 217 274 253 q 287 173 274 190 q 322 148 300 156 q 375 140 344 140 m 175 829 l 175 1004 l 358 1004 l 358 829 l 175 829 m 469 829 l 469 1004 l 654 1004 l 654 829 l 469 829 z "},"ạ":{"ha":856,"x_min":44,"x_max":849,"o":"m 290 -17 q 201 -8 244 -17 q 122 24 157 1 q 65 88 86 47 q 44 189 44 128 q 78 318 44 268 q 174 397 111 368 q 327 436 238 425 q 528 447 417 447 l 528 493 q 515 547 528 525 q 478 580 503 568 q 414 592 454 592 q 351 583 378 592 q 310 559 324 575 q 296 521 296 543 l 296 508 l 74 508 q 72 520 72 515 q 72 533 72 525 q 113 647 72 599 q 231 722 154 696 q 415 749 307 749 q 592 724 517 749 q 712 647 668 699 q 756 513 756 596 l 756 200 q 769 163 756 176 q 801 149 782 149 l 849 149 l 849 8 q 801 -8 833 1 q 722 -17 768 -17 q 640 -5 675 -17 q 581 28 604 7 q 550 79 558 50 l 540 79 q 478 29 514 51 q 397 -5 443 7 q 290 -17 350 -17 m 375 140 q 436 150 408 140 q 484 177 464 160 q 516 219 504 194 q 528 274 528 244 l 528 322 q 392 311 449 322 q 304 276 335 300 q 274 217 274 253 q 287 173 274 190 q 322 148 300 156 q 375 140 344 140 m 318 -271 l 318 -96 l 508 -96 l 508 -271 l 318 -271 z "},"à":{"ha":856,"x_min":44,"x_max":849,"o":"m 290 -17 q 201 -8 244 -17 q 122 24 157 1 q 65 88 86 47 q 44 189 44 128 q 78 318 44 268 q 174 397 111 368 q 327 436 238 425 q 528 447 417 447 l 528 493 q 515 547 528 525 q 478 580 503 568 q 414 592 454 592 q 351 583 378 592 q 310 559 324 575 q 296 521 296 543 l 296 508 l 74 508 q 72 520 72 515 q 72 533 72 525 q 113 647 72 599 q 231 722 154 696 q 415 749 307 749 q 592 724 517 749 q 712 647 668 699 q 756 513 756 596 l 756 200 q 769 163 756 176 q 801 149 782 149 l 849 149 l 849 8 q 801 -8 833 1 q 722 -17 768 -17 q 640 -5 675 -17 q 581 28 604 7 q 550 79 558 50 l 540 79 q 478 29 514 51 q 397 -5 443 7 q 290 -17 350 -17 m 375 140 q 436 150 408 140 q 484 177 464 160 q 516 219 504 194 q 528 274 528 244 l 528 322 q 392 311 449 322 q 304 276 335 300 q 274 217 274 253 q 287 173 274 190 q 322 148 300 156 q 375 140 344 140 m 532 819 l 365 819 l 176 999 l 178 1004 l 411 1004 l 532 819 z "},"ả":{"ha":856,"x_min":44,"x_max":849,"o":"m 290 -17 q 201 -8 244 -17 q 122 24 157 1 q 65 88 86 47 q 44 189 44 128 q 78 318 44 268 q 174 397 111 368 q 327 436 238 425 q 528 447 417 447 l 528 493 q 515 547 528 525 q 478 580 503 568 q 414 592 454 592 q 351 583 378 592 q 310 559 324 575 q 296 521 296 543 l 296 508 l 74 508 q 72 520 72 515 q 72 533 72 525 q 113 647 72 599 q 231 722 154 696 q 415 749 307 749 q 592 724 517 749 q 712 647 668 699 q 756 513 756 596 l 756 200 q 769 163 756 176 q 801 149 782 149 l 849 149 l 849 8 q 801 -8 833 1 q 722 -17 768 -17 q 640 -5 675 -17 q 581 28 604 7 q 550 79 558 50 l 540 79 q 478 29 514 51 q 397 -5 443 7 q 290 -17 350 -17 m 375 140 q 436 150 408 140 q 484 177 464 160 q 516 219 504 194 q 528 274 528 244 l 528 322 q 392 311 449 322 q 304 276 335 300 q 274 217 274 253 q 287 173 274 190 q 322 148 300 156 q 375 140 344 140 m 367 819 l 367 897 l 383 897 q 416 903 407 897 q 425 922 425 908 q 413 942 425 938 q 378 946 400 946 l 296 946 l 296 1013 q 335 1019 313 1017 q 379 1022 357 1021 q 418 1024 401 1024 q 470 1019 442 1024 q 524 1005 499 1015 q 566 978 550 994 q 582 935 582 961 q 565 891 582 908 q 522 865 549 874 q 467 854 496 857 l 467 819 l 367 819 z "},"ȃ":{"ha":856,"x_min":44,"x_max":849,"o":"m 290 -17 q 201 -8 244 -17 q 122 24 157 1 q 65 88 86 47 q 44 189 44 128 q 78 318 44 268 q 174 397 111 368 q 327 436 238 425 q 528 447 417 447 l 528 493 q 515 547 528 525 q 478 580 503 568 q 414 592 454 592 q 351 583 378 592 q 310 559 324 575 q 296 521 296 543 l 296 508 l 74 508 q 72 520 72 515 q 72 533 72 525 q 113 647 72 599 q 231 722 154 696 q 415 749 307 749 q 592 724 517 749 q 712 647 668 699 q 756 513 756 596 l 756 200 q 769 163 756 176 q 801 149 782 149 l 849 149 l 849 8 q 801 -8 833 1 q 722 -17 768 -17 q 640 -5 675 -17 q 581 28 604 7 q 550 79 558 50 l 540 79 q 478 29 514 51 q 397 -5 443 7 q 290 -17 350 -17 m 375 140 q 436 150 408 140 q 484 177 464 160 q 516 219 504 194 q 528 274 528 244 l 528 322 q 392 311 449 322 q 304 276 335 300 q 274 217 274 253 q 287 173 274 190 q 322 148 300 156 q 375 140 344 140 m 414 1004 q 546 975 493 1004 q 626 902 599 946 q 653 813 653 858 l 529 813 q 513 844 528 828 q 474 871 499 860 q 414 882 449 882 q 359 872 383 882 q 319 847 335 863 q 299 813 303 831 l 175 813 q 201 902 175 858 q 281 975 228 946 q 414 1004 335 1004 z "},"ā":{"ha":856,"x_min":44,"x_max":849,"o":"m 290 -17 q 201 -8 244 -17 q 122 24 157 1 q 65 88 86 47 q 44 189 44 128 q 78 318 44 268 q 174 397 111 368 q 327 436 238 425 q 528 447 417 447 l 528 493 q 515 547 528 525 q 478 580 503 568 q 414 592 454 592 q 351 583 378 592 q 310 559 324 575 q 296 521 296 543 l 296 508 l 74 508 q 72 520 72 515 q 72 533 72 525 q 113 647 72 599 q 231 722 154 696 q 415 749 307 749 q 592 724 517 749 q 712 647 668 699 q 756 513 756 596 l 756 200 q 769 163 756 176 q 801 149 782 149 l 849 149 l 849 8 q 801 -8 833 1 q 722 -17 768 -17 q 640 -5 675 -17 q 581 28 604 7 q 550 79 558 50 l 540 79 q 478 29 514 51 q 397 -5 443 7 q 290 -17 350 -17 m 375 140 q 436 150 408 140 q 484 177 464 160 q 516 219 504 194 q 528 274 528 244 l 528 322 q 392 311 449 322 q 304 276 335 300 q 274 217 274 253 q 287 173 274 190 q 322 148 300 156 q 375 140 344 140 m 199 843 l 199 971 l 631 971 l 631 843 l 199 843 z "},"ą":{"ha":856,"x_min":44,"x_max":849,"o":"m 290 -17 q 201 -8 244 -17 q 122 24 157 1 q 65 88 86 47 q 44 189 44 128 q 78 318 44 268 q 174 397 111 368 q 327 436 238 425 q 528 447 417 447 l 528 493 q 515 547 528 525 q 478 580 503 568 q 414 592 454 592 q 351 583 378 592 q 310 559 324 575 q 296 521 296 543 l 296 508 l 74 508 q 72 520 72 515 q 72 533 72 525 q 113 647 72 599 q 231 722 154 696 q 415 749 307 749 q 592 724 517 749 q 712 647 668 699 q 756 513 756 596 l 756 200 q 769 163 756 176 q 801 149 782 149 l 849 149 l 849 8 q 801 -8 833 1 q 722 -17 768 -17 q 640 -5 675 -17 q 581 28 604 7 q 550 79 558 50 l 540 79 q 478 29 514 51 q 397 -5 443 7 q 290 -17 350 -17 m 375 140 q 436 150 408 140 q 484 177 464 160 q 516 219 504 194 q 528 274 528 244 l 528 322 q 392 311 449 322 q 304 276 335 300 q 274 217 274 253 q 287 173 274 190 q 322 148 300 156 q 375 140 344 140 m 718 -275 q 640 -261 678 -275 q 579 -216 603 -247 q 556 -132 556 -185 q 578 -46 556 -81 q 628 17 601 -11 l 757 17 l 757 11 q 723 -31 738 -4 q 708 -86 708 -58 q 725 -140 708 -117 q 779 -162 742 -162 l 849 -162 l 849 -254 q 784 -269 821 -264 q 718 -275 747 -275 z "},"å":{"ha":856,"x_min":44,"x_max":849,"o":"m 290 -17 q 201 -8 244 -17 q 122 24 157 1 q 65 88 86 47 q 44 189 44 128 q 78 318 44 268 q 174 397 111 368 q 327 436 238 425 q 528 447 417 447 l 528 493 q 515 547 528 525 q 478 580 503 568 q 414 592 454 592 q 351 583 378 592 q 310 559 324 575 q 296 521 296 543 l 296 508 l 74 508 q 72 520 72 515 q 72 533 72 525 q 113 647 72 599 q 231 722 154 696 q 415 749 307 749 q 592 724 517 749 q 712 647 668 699 q 756 513 756 596 l 756 200 q 769 163 756 176 q 801 149 782 149 l 849 149 l 849 8 q 801 -8 833 1 q 722 -17 768 -17 q 640 -5 675 -17 q 581 28 604 7 q 550 79 558 50 l 540 79 q 478 29 514 51 q 397 -5 443 7 q 290 -17 350 -17 m 375 140 q 436 150 408 140 q 484 177 464 160 q 516 219 504 194 q 528 274 528 244 l 528 322 q 392 311 449 322 q 304 276 335 300 q 274 217 274 253 q 287 173 274 190 q 322 148 300 156 q 375 140 344 140 m 415 801 q 310 842 351 801 q 269 946 269 883 q 310 1050 269 1008 q 415 1092 351 1092 q 519 1050 478 1092 q 560 946 560 1008 q 519 842 560 883 q 415 801 478 801 m 415 885 q 457 902 440 885 q 474 946 474 919 q 457 990 474 972 q 415 1007 440 1007 q 372 990 389 1007 q 356 944 356 972 q 372 901 356 918 q 415 885 389 885 z "},"ǻ":{"ha":856,"x_min":44,"x_max":849,"o":"m 290 -17 q 201 -8 244 -17 q 122 24 157 1 q 65 88 86 47 q 44 189 44 128 q 78 318 44 268 q 174 397 111 368 q 327 436 238 425 q 528 447 417 447 l 528 493 q 515 547 528 525 q 478 580 503 568 q 414 592 454 592 q 351 583 378 592 q 310 559 324 575 q 296 521 296 543 l 296 508 l 74 508 q 72 520 72 515 q 72 533 72 525 q 113 647 72 599 q 231 722 154 696 q 415 749 307 749 q 592 724 517 749 q 712 647 668 699 q 756 513 756 596 l 756 200 q 769 163 756 176 q 801 149 782 149 l 849 149 l 849 8 q 801 -8 833 1 q 722 -17 768 -17 q 640 -5 675 -17 q 581 28 604 7 q 550 79 558 50 l 540 79 q 478 29 514 51 q 397 -5 443 7 q 290 -17 350 -17 m 375 140 q 436 150 408 140 q 484 177 464 160 q 516 219 504 194 q 528 274 528 244 l 528 322 q 392 311 449 322 q 304 276 335 300 q 274 217 274 253 q 287 173 274 190 q 322 148 300 156 q 375 140 344 140 m 415 801 q 310 842 351 801 q 269 946 269 883 q 310 1050 269 1008 q 415 1092 351 1092 q 519 1050 478 1092 q 560 946 560 1008 q 519 842 560 883 q 415 801 478 801 m 415 885 q 457 902 440 885 q 474 946 474 919 q 457 990 474 972 q 415 1007 440 1007 q 372 990 389 1007 q 356 944 356 972 q 372 901 356 918 q 415 885 389 885 m 299 1140 l 418 1325 l 653 1325 l 654 1319 l 465 1140 l 299 1140 z "},"ã":{"ha":856,"x_min":44,"x_max":849,"o":"m 290 -17 q 201 -8 244 -17 q 122 24 157 1 q 65 88 86 47 q 44 189 44 128 q 78 318 44 268 q 174 397 111 368 q 327 436 238 425 q 528 447 417 447 l 528 493 q 515 547 528 525 q 478 580 503 568 q 414 592 454 592 q 351 583 378 592 q 310 559 324 575 q 296 521 296 543 l 296 508 l 74 508 q 72 520 72 515 q 72 533 72 525 q 113 647 72 599 q 231 722 154 696 q 415 749 307 749 q 592 724 517 749 q 712 647 668 699 q 756 513 756 596 l 756 200 q 769 163 756 176 q 801 149 782 149 l 849 149 l 849 8 q 801 -8 833 1 q 722 -17 768 -17 q 640 -5 675 -17 q 581 28 604 7 q 550 79 558 50 l 540 79 q 478 29 514 51 q 397 -5 443 7 q 290 -17 350 -17 m 375 140 q 436 150 408 140 q 484 177 464 160 q 516 219 504 194 q 528 274 528 244 l 528 322 q 392 311 449 322 q 304 276 335 300 q 274 217 274 253 q 287 173 274 190 q 322 148 300 156 q 375 140 344 140 m 142 822 q 160 911 142 869 q 217 978 179 953 q 307 1004 254 1004 q 384 991 347 1004 q 455 965 421 978 q 525 951 489 951 q 563 965 547 951 q 583 1004 578 979 l 688 1004 q 668 916 688 957 q 612 849 649 875 q 522 822 575 822 q 445 835 482 822 q 374 862 408 849 q 304 875 340 875 q 267 861 282 875 q 246 822 251 847 l 142 822 z "},"æ":{"ha":1328,"x_min":44,"x_max":1276,"o":"m 340 -17 q 231 -8 283 -17 q 135 24 178 1 q 69 90 93 47 q 44 196 44 132 q 78 322 44 274 q 177 398 113 371 q 333 436 242 425 q 539 447 425 447 l 539 493 q 527 547 539 525 q 489 580 515 568 q 421 592 463 592 q 354 583 382 592 q 311 559 326 575 q 296 521 296 543 l 296 508 l 74 508 q 72 520 72 515 q 72 533 72 525 q 113 647 72 599 q 232 722 154 696 q 419 749 310 749 q 568 731 501 749 q 679 676 635 713 q 787 731 726 713 q 921 749 847 749 q 1115 708 1036 749 q 1235 585 1194 668 q 1276 369 1276 501 l 1276 321 l 768 321 q 785 222 769 263 q 833 161 800 182 q 921 140 867 140 q 978 149 953 140 q 1020 173 1003 157 q 1046 211 1038 189 q 1054 261 1054 233 l 1276 261 q 1253 142 1276 194 q 1184 55 1229 90 q 1075 1 1139 19 q 929 -17 1011 -17 q 756 8 832 -17 q 632 85 681 33 q 556 34 599 57 q 459 -3 513 11 q 340 -17 406 -17 m 379 139 q 443 148 414 139 q 494 175 472 157 q 527 218 515 193 q 539 274 539 243 l 539 321 q 397 310 457 321 q 306 276 338 300 q 274 217 274 253 q 288 172 274 189 q 325 147 301 154 q 379 139 349 139 m 771 447 l 1044 447 q 1035 510 1044 483 q 1010 556 1026 538 q 969 583 993 574 q 917 592 946 592 q 840 575 871 592 q 792 526 808 558 q 771 447 775 494 z "},"ǽ":{"ha":1328,"x_min":44,"x_max":1276,"o":"m 340 -17 q 231 -8 283 -17 q 135 24 178 1 q 69 90 93 47 q 44 196 44 132 q 78 322 44 274 q 177 398 113 371 q 333 436 242 425 q 539 447 425 447 l 539 493 q 527 547 539 525 q 489 580 515 568 q 421 592 463 592 q 354 583 382 592 q 311 559 326 575 q 296 521 296 543 l 296 508 l 74 508 q 72 520 72 515 q 72 533 72 525 q 113 647 72 599 q 232 722 154 696 q 419 749 310 749 q 568 731 501 749 q 679 676 635 713 q 787 731 726 713 q 921 749 847 749 q 1115 708 1036 749 q 1235 585 1194 668 q 1276 369 1276 501 l 1276 321 l 768 321 q 785 222 769 263 q 833 161 800 182 q 921 140 867 140 q 978 149 953 140 q 1020 173 1003 157 q 1046 211 1038 189 q 1054 261 1054 233 l 1276 261 q 1253 142 1276 194 q 1184 55 1229 90 q 1075 1 1139 19 q 929 -17 1011 -17 q 756 8 832 -17 q 632 85 681 33 q 556 34 599 57 q 459 -3 513 11 q 340 -17 406 -17 m 379 139 q 443 148 414 139 q 494 175 472 157 q 527 218 515 193 q 539 274 539 243 l 539 321 q 397 310 457 321 q 306 276 338 300 q 274 217 274 253 q 288 172 274 189 q 325 147 301 154 q 379 139 349 139 m 771 447 l 1044 447 q 1035 510 1044 483 q 1010 556 1026 538 q 969 583 993 574 q 917 592 946 592 q 840 575 871 592 q 792 526 808 558 q 771 447 775 494 m 561 822 l 682 1006 l 915 1006 l 917 1001 l 728 822 l 561 822 z "},"b":{"ha":879,"x_min":88,"x_max":826,"o":"m 526 -17 q 396 13 456 -17 q 300 101 336 42 l 290 101 l 274 0 l 88 0 l 88 1006 l 315 1006 l 315 657 l 324 657 q 377 707 346 686 q 447 738 408 728 q 531 749 486 749 q 688 707 621 749 q 790 581 754 665 q 826 368 826 497 q 790 151 826 236 q 687 25 754 67 q 526 -17 619 -17 m 456 161 q 538 181 507 161 q 583 242 569 201 q 597 340 597 282 l 597 389 q 583 489 597 449 q 538 550 569 529 q 456 571 507 571 q 391 557 418 571 q 347 518 364 543 q 322 458 329 493 q 314 382 314 424 l 314 349 q 328 249 314 292 q 374 184 343 207 q 456 161 406 161 z "},"c":{"ha":850,"x_min":51,"x_max":793,"o":"m 432 -17 q 226 25 311 -17 q 97 152 142 67 q 51 367 51 238 q 97 581 51 496 q 228 708 143 667 q 432 750 313 750 q 576 732 510 750 q 691 676 642 714 q 767 582 740 639 q 793 446 793 525 l 569 446 q 553 524 569 493 q 507 569 538 554 q 431 585 476 585 q 345 563 378 585 q 297 497 313 540 q 282 390 282 454 l 282 340 q 297 235 282 278 q 347 170 313 192 q 436 149 382 149 q 515 163 483 149 q 563 209 546 178 q 579 288 579 240 l 793 288 q 767 153 793 211 q 692 58 740 96 q 576 2 643 21 q 432 -17 510 -17 z "},"ć":{"ha":850,"x_min":51,"x_max":793,"o":"m 432 -17 q 226 25 311 -17 q 97 152 142 67 q 51 367 51 238 q 97 581 51 496 q 228 708 143 667 q 432 750 313 750 q 576 732 510 750 q 691 676 642 714 q 767 582 740 639 q 793 446 793 525 l 569 446 q 553 524 569 493 q 507 569 538 554 q 431 585 476 585 q 345 563 378 585 q 297 497 313 540 q 282 390 282 454 l 282 340 q 297 235 282 278 q 347 170 313 192 q 436 149 382 149 q 515 163 483 149 q 563 209 546 178 q 579 288 579 240 l 793 288 q 767 153 793 211 q 692 58 740 96 q 576 2 643 21 q 432 -17 510 -17 m 314 819 l 435 1004 l 668 1004 l 671 999 l 482 819 l 314 819 z "},"č":{"ha":850,"x_min":51,"x_max":793,"o":"m 432 -17 q 226 25 311 -17 q 97 152 142 67 q 51 367 51 238 q 97 581 51 496 q 228 708 143 667 q 432 750 313 750 q 576 732 510 750 q 691 676 642 714 q 767 582 740 639 q 793 446 793 525 l 569 446 q 553 524 569 493 q 507 569 538 554 q 431 585 476 585 q 345 563 378 585 q 297 497 313 540 q 282 390 282 454 l 282 340 q 297 235 282 278 q 347 170 313 192 q 436 149 382 149 q 515 163 483 149 q 563 209 546 178 q 579 288 579 240 l 793 288 q 767 153 793 211 q 692 58 740 96 q 576 2 643 21 q 432 -17 510 -17 m 164 1004 l 340 1004 l 471 871 l 392 871 l 521 1004 l 699 1004 l 531 819 l 332 819 l 164 1004 z "},"ç":{"ha":850,"x_min":51,"x_max":793,"o":"m 432 -17 q 226 25 311 -17 q 97 152 142 67 q 51 367 51 238 q 97 581 51 496 q 228 708 143 667 q 432 750 313 750 q 576 732 510 750 q 691 676 642 714 q 767 582 740 639 q 793 446 793 525 l 569 446 q 553 524 569 493 q 507 569 538 554 q 431 585 476 585 q 345 563 378 585 q 297 497 313 540 q 282 390 282 454 l 282 340 q 297 235 282 278 q 347 170 313 192 q 436 149 382 149 q 515 163 483 149 q 563 209 546 178 q 579 288 579 240 l 793 288 q 767 153 793 211 q 692 58 740 96 q 576 2 643 21 q 432 -17 510 -17 m 428 -275 q 340 -270 386 -275 q 264 -257 294 -265 l 264 -183 l 401 -183 q 443 -178 428 -183 q 458 -151 458 -172 q 447 -126 458 -133 q 404 -118 436 -118 l 346 -118 l 369 36 l 492 36 l 479 -43 q 538 -58 510 -46 q 585 -92 567 -69 q 603 -153 603 -115 q 585 -215 603 -190 q 541 -251 568 -239 q 484 -269 514 -264 q 428 -275 454 -275 z "},"ĉ":{"ha":850,"x_min":51,"x_max":793,"o":"m 432 -17 q 226 25 311 -17 q 97 152 142 67 q 51 367 51 238 q 97 581 51 496 q 228 708 143 667 q 432 750 313 750 q 576 732 510 750 q 691 676 642 714 q 767 582 740 639 q 793 446 793 525 l 569 446 q 553 524 569 493 q 507 569 538 554 q 431 585 476 585 q 345 563 378 585 q 297 497 313 540 q 282 390 282 454 l 282 340 q 297 235 282 278 q 347 170 313 192 q 436 149 382 149 q 515 163 483 149 q 563 209 546 178 q 579 288 579 240 l 793 288 q 767 153 793 211 q 692 58 740 96 q 576 2 643 21 q 432 -17 510 -17 m 164 819 l 332 1004 l 531 1004 l 699 819 l 521 819 l 392 954 l 471 953 l 340 819 l 164 819 z "},"ċ":{"ha":850,"x_min":51,"x_max":793,"o":"m 432 -17 q 226 25 311 -17 q 97 152 142 67 q 51 367 51 238 q 97 581 51 496 q 228 708 143 667 q 432 750 313 750 q 576 732 510 750 q 691 676 642 714 q 767 582 740 639 q 793 446 793 525 l 569 446 q 553 524 569 493 q 507 569 538 554 q 431 585 476 585 q 345 563 378 585 q 297 497 313 540 q 282 390 282 454 l 282 340 q 297 235 282 278 q 347 170 313 192 q 436 149 382 149 q 515 163 483 149 q 563 209 546 178 q 579 288 579 240 l 793 288 q 767 153 793 211 q 692 58 740 96 q 576 2 643 21 q 432 -17 510 -17 m 336 824 l 336 999 l 526 999 l 526 824 l 336 824 z "},"d":{"ha":879,"x_min":51,"x_max":792,"o":"m 353 -17 q 192 25 260 -17 q 88 151 124 67 q 51 368 51 236 q 88 581 51 497 q 192 707 125 665 q 349 749 258 749 q 431 739 392 749 q 502 708 471 729 q 556 657 533 688 l 564 657 l 564 1006 l 792 1006 l 792 0 l 606 0 l 589 101 l 579 101 q 483 13 542 42 q 353 -17 425 -17 m 424 161 q 505 184 474 161 q 551 249 536 207 q 565 349 565 292 l 565 382 q 557 458 565 424 q 532 518 549 493 q 488 557 515 543 q 424 571 461 571 q 341 550 372 571 q 296 489 310 529 q 282 389 282 449 l 282 340 q 296 242 282 282 q 341 181 310 201 q 424 161 372 161 z "},"ð":{"ha":893,"x_min":57,"x_max":836,"o":"m 446 -17 q 237 25 324 -17 q 103 151 150 67 q 57 364 57 236 q 98 560 57 478 q 214 688 139 643 q 394 732 289 732 q 448 726 421 732 q 497 711 475 721 l 504 719 q 466 772 486 746 q 424 822 446 797 l 196 801 l 196 903 l 333 917 q 278 964 306 943 q 229 1000 251 985 l 233 1006 l 472 1006 q 498 988 483 999 q 528 966 513 978 q 561 939 544 954 l 765 958 l 765 856 l 656 846 q 748 713 707 786 q 813 553 789 640 q 836 364 836 467 q 790 151 836 236 q 656 25 743 67 q 446 -17 569 -17 m 446 149 q 538 171 503 149 q 590 235 574 193 q 606 338 606 276 l 606 389 q 590 494 606 451 q 538 558 574 536 q 446 579 503 579 q 354 558 389 579 q 303 494 319 536 q 288 390 288 451 l 288 339 q 303 235 288 278 q 354 171 319 193 q 446 149 389 149 z "},"ď":{"ha":879,"x_min":51,"x_max":1042,"o":"m 353 -17 q 192 25 260 -17 q 88 151 124 67 q 51 368 51 236 q 88 581 51 497 q 192 707 125 665 q 349 749 258 749 q 431 739 392 749 q 502 708 471 729 q 556 657 533 688 l 564 657 l 564 1006 l 792 1006 l 792 0 l 606 0 l 589 101 l 579 101 q 483 13 542 42 q 353 -17 425 -17 m 424 161 q 505 184 474 161 q 551 249 536 207 q 565 349 565 292 l 565 382 q 557 458 565 424 q 532 518 549 493 q 488 557 515 543 q 424 571 461 571 q 341 550 372 571 q 296 489 310 529 q 282 389 282 449 l 282 340 q 296 242 282 282 q 341 181 310 201 q 424 161 372 161 m 847 771 l 847 1006 l 1042 1006 l 989 771 l 847 771 z "},"đ":{"ha":879,"x_min":51,"x_max":879,"o":"m 353 -17 q 192 25 260 -17 q 88 151 124 67 q 51 368 51 236 q 88 581 51 497 q 192 707 125 665 q 349 749 258 749 q 431 739 392 749 q 502 708 471 729 q 556 657 533 688 l 564 657 l 564 1006 l 792 1006 l 792 0 l 606 0 l 589 101 l 579 101 q 483 13 542 42 q 353 -17 425 -17 m 424 161 q 505 184 474 161 q 551 249 536 207 q 565 349 565 292 l 565 382 q 557 458 565 424 q 532 518 549 493 q 488 557 515 543 q 424 571 461 571 q 341 550 372 571 q 296 489 310 529 q 282 389 282 449 l 282 340 q 296 242 282 282 q 341 181 310 201 q 424 161 372 161 m 339 796 l 339 928 l 879 928 l 879 796 l 339 796 z "},"ǆ":{"ha":1621,"x_min":51,"x_max":1586,"o":"m 353 -17 q 192 25 260 -17 q 88 151 124 67 q 51 368 51 236 q 88 581 51 497 q 192 707 125 665 q 349 749 258 749 q 431 739 392 749 q 502 708 471 729 q 556 657 533 688 l 564 657 l 564 1006 l 792 1006 l 792 0 l 606 0 l 589 101 l 579 101 q 483 13 542 42 q 353 -17 425 -17 m 424 161 q 505 184 474 161 q 551 249 536 207 q 565 349 565 292 l 565 382 q 557 458 565 424 q 532 518 549 493 q 488 557 515 543 q 424 571 461 571 q 341 550 372 571 q 296 489 310 529 q 282 389 282 449 l 282 340 q 296 242 282 282 q 341 181 310 201 q 424 161 372 161 m 910 0 l 910 85 l 1246 567 l 929 567 l 929 732 l 1572 732 l 1572 650 l 1235 165 l 1586 165 l 1586 0 l 910 0 m 983 1006 l 1160 1006 l 1290 872 l 1211 872 l 1340 1006 l 1518 1006 l 1350 822 l 1151 822 l 983 1006 z "},"e":{"ha":860,"x_min":51,"x_max":807,"o":"m 444 -17 q 232 24 319 -17 q 98 150 144 65 q 51 367 51 235 q 97 581 51 496 q 229 707 143 665 q 436 749 315 749 q 638 708 556 749 q 764 585 721 668 q 807 369 807 501 l 807 321 l 282 321 q 299 222 282 263 q 350 161 315 182 q 443 140 385 140 q 504 149 478 140 q 549 173 531 157 q 576 211 567 189 q 586 261 586 233 l 807 261 q 783 142 807 194 q 711 55 758 90 q 597 1 664 19 q 444 -17 529 -17 m 283 447 l 575 447 q 566 510 575 483 q 540 556 557 538 q 498 583 522 574 q 442 592 474 592 q 358 575 392 592 q 307 526 325 558 q 283 447 289 494 z "},"é":{"ha":860,"x_min":51,"x_max":807,"o":"m 444 -17 q 232 24 319 -17 q 98 150 144 65 q 51 367 51 235 q 97 581 51 496 q 229 707 143 665 q 436 749 315 749 q 638 708 556 749 q 764 585 721 668 q 807 369 807 501 l 807 321 l 282 321 q 299 222 282 263 q 350 161 315 182 q 443 140 385 140 q 504 149 478 140 q 549 173 531 157 q 576 211 567 189 q 586 261 586 233 l 807 261 q 783 142 807 194 q 711 55 758 90 q 597 1 664 19 q 444 -17 529 -17 m 283 447 l 575 447 q 566 510 575 483 q 540 556 557 538 q 498 583 522 574 q 442 592 474 592 q 358 575 392 592 q 307 526 325 558 q 283 447 289 494 m 318 822 l 439 1006 l 672 1006 l 675 1001 l 485 822 l 318 822 z "},"ĕ":{"ha":860,"x_min":51,"x_max":807,"o":"m 444 -17 q 232 24 319 -17 q 98 150 144 65 q 51 367 51 235 q 97 581 51 496 q 229 707 143 665 q 436 749 315 749 q 638 708 556 749 q 764 585 721 668 q 807 369 807 501 l 807 321 l 282 321 q 299 222 282 263 q 350 161 315 182 q 443 140 385 140 q 504 149 478 140 q 549 173 531 157 q 576 211 567 189 q 586 261 586 233 l 807 261 q 783 142 807 194 q 711 55 758 90 q 597 1 664 19 q 444 -17 529 -17 m 283 447 l 575 447 q 566 510 575 483 q 540 556 557 538 q 498 583 522 574 q 442 592 474 592 q 358 575 392 592 q 307 526 325 558 q 283 447 289 494 m 433 814 q 301 843 354 814 q 222 917 247 872 q 196 1006 196 961 l 319 1006 q 338 972 322 989 q 378 946 354 956 q 433 936 403 936 q 494 947 468 936 q 533 975 519 958 q 549 1006 547 992 l 672 1006 q 645 917 672 961 q 565 843 618 872 q 433 814 513 814 z "},"ě":{"ha":860,"x_min":51,"x_max":807,"o":"m 444 -17 q 232 24 319 -17 q 98 150 144 65 q 51 367 51 235 q 97 581 51 496 q 229 707 143 665 q 436 749 315 749 q 638 708 556 749 q 764 585 721 668 q 807 369 807 501 l 807 321 l 282 321 q 299 222 282 263 q 350 161 315 182 q 443 140 385 140 q 504 149 478 140 q 549 173 531 157 q 576 211 567 189 q 586 261 586 233 l 807 261 q 783 142 807 194 q 711 55 758 90 q 597 1 664 19 q 444 -17 529 -17 m 283 447 l 575 447 q 566 510 575 483 q 540 556 557 538 q 498 583 522 574 q 442 592 474 592 q 358 575 392 592 q 307 526 325 558 q 283 447 289 494 m 167 1006 l 344 1006 l 474 872 l 394 872 l 525 1006 l 703 1006 l 535 822 l 336 822 l 167 1006 z "},"ê":{"ha":860,"x_min":51,"x_max":807,"o":"m 444 -17 q 232 24 319 -17 q 98 150 144 65 q 51 367 51 235 q 97 581 51 496 q 229 707 143 665 q 436 749 315 749 q 638 708 556 749 q 764 585 721 668 q 807 369 807 501 l 807 321 l 282 321 q 299 222 282 263 q 350 161 315 182 q 443 140 385 140 q 504 149 478 140 q 549 173 531 157 q 576 211 567 189 q 586 261 586 233 l 807 261 q 783 142 807 194 q 711 55 758 90 q 597 1 664 19 q 444 -17 529 -17 m 283 447 l 575 447 q 566 510 575 483 q 540 556 557 538 q 498 583 522 574 q 442 592 474 592 q 358 575 392 592 q 307 526 325 558 q 283 447 289 494 m 167 822 l 336 1006 l 535 1006 l 703 822 l 525 822 l 394 956 l 474 954 l 344 822 l 167 822 z "},"ế":{"ha":860,"x_min":51,"x_max":807,"o":"m 444 -17 q 232 24 319 -17 q 98 150 144 65 q 51 367 51 235 q 97 581 51 496 q 229 707 143 665 q 436 749 315 749 q 638 708 556 749 q 764 585 721 668 q 807 369 807 501 l 807 321 l 282 321 q 299 222 282 263 q 350 161 315 182 q 443 140 385 140 q 504 149 478 140 q 549 173 531 157 q 576 211 567 189 q 586 261 586 233 l 807 261 q 783 142 807 194 q 711 55 758 90 q 597 1 664 19 q 444 -17 529 -17 m 283 447 l 575 447 q 566 510 575 483 q 540 556 557 538 q 498 583 522 574 q 442 592 474 592 q 358 575 392 592 q 307 526 325 558 q 283 447 289 494 m 167 822 l 336 1006 l 535 1006 l 703 822 l 525 822 l 394 956 l 474 954 l 344 822 l 167 822 m 318 1075 l 439 1260 l 672 1260 l 675 1254 l 485 1075 l 318 1075 z "},"ệ":{"ha":860,"x_min":51,"x_max":807,"o":"m 444 -17 q 232 24 319 -17 q 98 150 144 65 q 51 367 51 235 q 97 581 51 496 q 229 707 143 665 q 436 749 315 749 q 638 708 556 749 q 764 585 721 668 q 807 369 807 501 l 807 321 l 282 321 q 299 222 282 263 q 350 161 315 182 q 443 140 385 140 q 504 149 478 140 q 549 173 531 157 q 576 211 567 189 q 586 261 586 233 l 807 261 q 783 142 807 194 q 711 55 758 90 q 597 1 664 19 q 444 -17 529 -17 m 283 447 l 575 447 q 566 510 575 483 q 540 556 557 538 q 498 583 522 574 q 442 592 474 592 q 358 575 392 592 q 307 526 325 558 q 283 447 289 494 m 342 -271 l 342 -96 l 533 -96 l 533 -271 l 342 -271 m 167 822 l 336 1006 l 535 1006 l 703 822 l 525 822 l 394 956 l 474 954 l 344 822 l 167 822 z "},"ề":{"ha":860,"x_min":51,"x_max":807,"o":"m 444 -17 q 232 24 319 -17 q 98 150 144 65 q 51 367 51 235 q 97 581 51 496 q 229 707 143 665 q 436 749 315 749 q 638 708 556 749 q 764 585 721 668 q 807 369 807 501 l 807 321 l 282 321 q 299 222 282 263 q 350 161 315 182 q 443 140 385 140 q 504 149 478 140 q 549 173 531 157 q 576 211 567 189 q 586 261 586 233 l 807 261 q 783 142 807 194 q 711 55 758 90 q 597 1 664 19 q 444 -17 529 -17 m 283 447 l 575 447 q 566 510 575 483 q 540 556 557 538 q 498 583 522 574 q 442 592 474 592 q 358 575 392 592 q 307 526 325 558 q 283 447 289 494 m 167 822 l 336 1006 l 535 1006 l 703 822 l 525 822 l 394 956 l 474 954 l 344 822 l 167 822 m 553 1075 l 385 1075 l 196 1254 l 197 1260 l 432 1260 l 553 1075 z "},"ể":{"ha":860,"x_min":51,"x_max":807,"o":"m 444 -17 q 232 24 319 -17 q 98 150 144 65 q 51 367 51 235 q 97 581 51 496 q 229 707 143 665 q 436 749 315 749 q 638 708 556 749 q 764 585 721 668 q 807 369 807 501 l 807 321 l 282 321 q 299 222 282 263 q 350 161 315 182 q 443 140 385 140 q 504 149 478 140 q 549 173 531 157 q 576 211 567 189 q 586 261 586 233 l 807 261 q 783 142 807 194 q 711 55 758 90 q 597 1 664 19 q 444 -17 529 -17 m 283 447 l 575 447 q 566 510 575 483 q 540 556 557 538 q 498 583 522 574 q 442 592 474 592 q 358 575 392 592 q 307 526 325 558 q 283 447 289 494 m 167 822 l 336 1006 l 535 1006 l 703 822 l 525 822 l 394 956 l 474 954 l 344 822 l 167 822 m 386 1075 l 386 1153 l 403 1153 q 435 1158 426 1153 q 444 1178 444 1164 q 433 1197 444 1193 q 397 1201 421 1201 l 317 1201 l 317 1268 q 355 1274 333 1272 q 399 1278 376 1276 q 438 1279 421 1279 q 490 1275 461 1279 q 544 1260 519 1271 q 586 1233 569 1250 q 603 1190 603 1217 q 585 1147 603 1164 q 542 1121 568 1129 q 486 1110 517 1113 l 486 1075 l 386 1075 z "},"ễ":{"ha":860,"x_min":51,"x_max":807,"o":"m 444 -17 q 232 24 319 -17 q 98 150 144 65 q 51 367 51 235 q 97 581 51 496 q 229 707 143 665 q 436 749 315 749 q 638 708 556 749 q 764 585 721 668 q 807 369 807 501 l 807 321 l 282 321 q 299 222 282 263 q 350 161 315 182 q 443 140 385 140 q 504 149 478 140 q 549 173 531 157 q 576 211 567 189 q 586 261 586 233 l 807 261 q 783 142 807 194 q 711 55 758 90 q 597 1 664 19 q 444 -17 529 -17 m 283 447 l 575 447 q 566 510 575 483 q 540 556 557 538 q 498 583 522 574 q 442 592 474 592 q 358 575 392 592 q 307 526 325 558 q 283 447 289 494 m 167 822 l 336 1006 l 535 1006 l 703 822 l 525 822 l 394 956 l 474 954 l 344 822 l 167 822 m 161 1078 q 181 1167 161 1125 q 237 1234 200 1208 q 326 1260 274 1260 q 403 1247 367 1260 q 475 1220 440 1233 q 544 1207 510 1207 q 583 1221 568 1207 q 603 1260 599 1235 l 707 1260 q 688 1172 707 1213 q 633 1104 669 1131 q 542 1078 596 1078 q 465 1091 501 1078 q 394 1117 428 1104 q 325 1131 360 1131 q 286 1117 301 1131 q 265 1078 271 1103 l 161 1078 z "},"ȅ":{"ha":860,"x_min":51,"x_max":807,"o":"m 444 -17 q 232 24 319 -17 q 98 150 144 65 q 51 367 51 235 q 97 581 51 496 q 229 707 143 665 q 436 749 315 749 q 638 708 556 749 q 764 585 721 668 q 807 369 807 501 l 807 321 l 282 321 q 299 222 282 263 q 350 161 315 182 q 443 140 385 140 q 504 149 478 140 q 549 173 531 157 q 576 211 567 189 q 586 261 586 233 l 807 261 q 783 142 807 194 q 711 55 758 90 q 597 1 664 19 q 444 -17 529 -17 m 283 447 l 575 447 q 566 510 575 483 q 540 556 557 538 q 498 583 522 574 q 442 592 474 592 q 358 575 392 592 q 307 526 325 558 q 283 447 289 494 m 507 822 l 338 1001 l 340 1007 l 551 1007 l 656 822 l 507 822 m 243 822 l 75 1001 l 76 1007 l 288 1007 l 393 822 l 243 822 z "},"ë":{"ha":860,"x_min":51,"x_max":807,"o":"m 444 -17 q 232 24 319 -17 q 98 150 144 65 q 51 367 51 235 q 97 581 51 496 q 229 707 143 665 q 436 749 315 749 q 638 708 556 749 q 764 585 721 668 q 807 369 807 501 l 807 321 l 282 321 q 299 222 282 263 q 350 161 315 182 q 443 140 385 140 q 504 149 478 140 q 549 173 531 157 q 576 211 567 189 q 586 261 586 233 l 807 261 q 783 142 807 194 q 711 55 758 90 q 597 1 664 19 q 444 -17 529 -17 m 283 447 l 575 447 q 566 510 575 483 q 540 556 557 538 q 498 583 522 574 q 442 592 474 592 q 358 575 392 592 q 307 526 325 558 q 283 447 289 494 m 194 831 l 194 1006 l 378 1006 l 378 831 l 194 831 m 489 831 l 489 1006 l 674 1006 l 674 831 l 489 831 z "},"ė":{"ha":860,"x_min":51,"x_max":807,"o":"m 444 -17 q 232 24 319 -17 q 98 150 144 65 q 51 367 51 235 q 97 581 51 496 q 229 707 143 665 q 436 749 315 749 q 638 708 556 749 q 764 585 721 668 q 807 369 807 501 l 807 321 l 282 321 q 299 222 282 263 q 350 161 315 182 q 443 140 385 140 q 504 149 478 140 q 549 173 531 157 q 576 211 567 189 q 586 261 586 233 l 807 261 q 783 142 807 194 q 711 55 758 90 q 597 1 664 19 q 444 -17 529 -17 m 283 447 l 575 447 q 566 510 575 483 q 540 556 557 538 q 498 583 522 574 q 442 592 474 592 q 358 575 392 592 q 307 526 325 558 q 283 447 289 494 m 340 825 l 340 1000 l 531 1000 l 531 825 l 340 825 z "},"ẹ":{"ha":860,"x_min":51,"x_max":807,"o":"m 444 -17 q 232 24 319 -17 q 98 150 144 65 q 51 367 51 235 q 97 581 51 496 q 229 707 143 665 q 436 749 315 749 q 638 708 556 749 q 764 585 721 668 q 807 369 807 501 l 807 321 l 282 321 q 299 222 282 263 q 350 161 315 182 q 443 140 385 140 q 504 149 478 140 q 549 173 531 157 q 576 211 567 189 q 586 261 586 233 l 807 261 q 783 142 807 194 q 711 55 758 90 q 597 1 664 19 q 444 -17 529 -17 m 283 447 l 575 447 q 566 510 575 483 q 540 556 557 538 q 498 583 522 574 q 442 592 474 592 q 358 575 392 592 q 307 526 325 558 q 283 447 289 494 m 342 -271 l 342 -96 l 533 -96 l 533 -271 l 342 -271 z "},"è":{"ha":860,"x_min":51,"x_max":807,"o":"m 444 -17 q 232 24 319 -17 q 98 150 144 65 q 51 367 51 235 q 97 581 51 496 q 229 707 143 665 q 436 749 315 749 q 638 708 556 749 q 764 585 721 668 q 807 369 807 501 l 807 321 l 282 321 q 299 222 282 263 q 350 161 315 182 q 443 140 385 140 q 504 149 478 140 q 549 173 531 157 q 576 211 567 189 q 586 261 586 233 l 807 261 q 783 142 807 194 q 711 55 758 90 q 597 1 664 19 q 444 -17 529 -17 m 283 447 l 575 447 q 566 510 575 483 q 540 556 557 538 q 498 583 522 574 q 442 592 474 592 q 358 575 392 592 q 307 526 325 558 q 283 447 289 494 m 553 822 l 385 822 l 196 1001 l 197 1006 l 432 1006 l 553 822 z "},"ẻ":{"ha":860,"x_min":51,"x_max":807,"o":"m 444 -17 q 232 24 319 -17 q 98 150 144 65 q 51 367 51 235 q 97 581 51 496 q 229 707 143 665 q 436 749 315 749 q 638 708 556 749 q 764 585 721 668 q 807 369 807 501 l 807 321 l 282 321 q 299 222 282 263 q 350 161 315 182 q 443 140 385 140 q 504 149 478 140 q 549 173 531 157 q 576 211 567 189 q 586 261 586 233 l 807 261 q 783 142 807 194 q 711 55 758 90 q 597 1 664 19 q 444 -17 529 -17 m 283 447 l 575 447 q 566 510 575 483 q 540 556 557 538 q 498 583 522 574 q 442 592 474 592 q 358 575 392 592 q 307 526 325 558 q 283 447 289 494 m 386 821 l 386 899 l 403 899 q 435 904 426 899 q 444 924 444 910 q 433 943 444 939 q 397 947 421 947 l 317 947 l 317 1014 q 355 1020 333 1018 q 399 1024 376 1022 q 438 1025 421 1025 q 490 1021 461 1025 q 544 1007 519 1017 q 586 980 569 997 q 603 936 603 963 q 585 892 603 910 q 542 867 568 875 q 486 856 517 858 l 486 821 l 386 821 z "},"ȇ":{"ha":860,"x_min":51,"x_max":807,"o":"m 444 -17 q 232 24 319 -17 q 98 150 144 65 q 51 367 51 235 q 97 581 51 496 q 229 707 143 665 q 436 749 315 749 q 638 708 556 749 q 764 585 721 668 q 807 369 807 501 l 807 321 l 282 321 q 299 222 282 263 q 350 161 315 182 q 443 140 385 140 q 504 149 478 140 q 549 173 531 157 q 576 211 567 189 q 586 261 586 233 l 807 261 q 783 142 807 194 q 711 55 758 90 q 597 1 664 19 q 444 -17 529 -17 m 283 447 l 575 447 q 566 510 575 483 q 540 556 557 538 q 498 583 522 574 q 442 592 474 592 q 358 575 392 592 q 307 526 325 558 q 283 447 289 494 m 433 1006 q 565 976 513 1006 q 645 903 618 947 q 672 814 672 860 l 549 814 q 533 845 547 829 q 494 872 519 861 q 433 883 468 883 q 378 874 403 883 q 338 848 354 864 q 319 814 322 832 l 196 814 q 222 903 196 860 q 301 976 247 947 q 433 1006 354 1006 z "},"ē":{"ha":860,"x_min":51,"x_max":807,"o":"m 444 -17 q 232 24 319 -17 q 98 150 144 65 q 51 367 51 235 q 97 581 51 496 q 229 707 143 665 q 436 749 315 749 q 638 708 556 749 q 764 585 721 668 q 807 369 807 501 l 807 321 l 282 321 q 299 222 282 263 q 350 161 315 182 q 443 140 385 140 q 504 149 478 140 q 549 173 531 157 q 576 211 567 189 q 586 261 586 233 l 807 261 q 783 142 807 194 q 711 55 758 90 q 597 1 664 19 q 444 -17 529 -17 m 283 447 l 575 447 q 566 510 575 483 q 540 556 557 538 q 498 583 522 574 q 442 592 474 592 q 358 575 392 592 q 307 526 325 558 q 283 447 289 494 m 218 844 l 218 972 l 650 972 l 650 844 l 218 844 z "},"ę":{"ha":860,"x_min":51,"x_max":807,"o":"m 444 -17 q 232 24 319 -17 q 98 150 144 65 q 51 367 51 235 q 97 581 51 496 q 229 707 143 665 q 436 749 315 749 q 638 708 556 749 q 764 585 721 668 q 807 369 807 501 l 807 321 l 282 321 q 299 222 282 263 q 350 161 315 182 q 443 140 385 140 q 504 149 478 140 q 549 173 531 157 q 576 211 567 189 q 586 261 586 233 l 807 261 q 783 142 807 194 q 711 55 758 90 q 597 1 664 19 q 444 -17 529 -17 m 283 447 l 575 447 q 566 510 575 483 q 540 556 557 538 q 498 583 522 574 q 442 592 474 592 q 358 575 392 592 q 307 526 325 558 q 283 447 289 494 m 588 -275 q 510 -261 547 -275 q 450 -216 474 -247 q 426 -132 426 -185 q 449 -46 426 -81 q 497 17 472 -11 l 626 17 l 626 11 q 592 -31 607 -4 q 578 -86 578 -58 q 595 -140 578 -117 q 649 -162 613 -162 l 719 -162 l 719 -254 q 653 -269 690 -264 q 588 -275 617 -275 z "},"ẽ":{"ha":860,"x_min":51,"x_max":807,"o":"m 444 -17 q 232 24 319 -17 q 98 150 144 65 q 51 367 51 235 q 97 581 51 496 q 229 707 143 665 q 436 749 315 749 q 638 708 556 749 q 764 585 721 668 q 807 369 807 501 l 807 321 l 282 321 q 299 222 282 263 q 350 161 315 182 q 443 140 385 140 q 504 149 478 140 q 549 173 531 157 q 576 211 567 189 q 586 261 586 233 l 807 261 q 783 142 807 194 q 711 55 758 90 q 597 1 664 19 q 444 -17 529 -17 m 283 447 l 575 447 q 566 510 575 483 q 540 556 557 538 q 498 583 522 574 q 442 592 474 592 q 358 575 392 592 q 307 526 325 558 q 283 447 289 494 m 161 824 q 181 913 161 871 q 237 980 200 954 q 326 1006 274 1006 q 403 992 367 1006 q 475 966 440 979 q 544 953 510 953 q 583 967 568 953 q 603 1006 599 981 l 707 1006 q 688 917 707 958 q 633 850 669 876 q 542 824 596 824 q 465 837 501 824 q 394 863 428 850 q 325 876 360 876 q 286 863 301 876 q 265 824 271 849 l 161 824 z "},"ə":{"ha":871,"x_min":57,"x_max":811,"o":"m 428 -17 q 225 24 308 -17 q 99 148 142 64 q 57 363 57 232 l 57 411 l 583 411 q 565 511 582 471 q 513 572 549 551 q 421 592 478 592 q 360 583 386 592 q 315 559 333 575 q 287 521 296 543 q 278 471 278 499 l 57 471 q 81 590 57 538 q 153 677 106 642 q 267 731 200 713 q 418 749 333 749 q 632 708 544 749 q 765 583 719 667 q 811 367 811 499 q 766 152 811 238 q 635 25 721 67 q 428 -17 549 -17 m 422 140 q 506 157 472 140 q 558 206 539 174 q 581 285 576 239 l 289 285 q 298 222 289 249 q 324 176 307 194 q 367 149 342 158 q 422 140 392 140 z "},"f":{"ha":489,"x_min":15,"x_max":483,"o":"m 119 0 l 119 567 l 15 567 l 15 732 l 119 732 l 119 792 q 145 919 119 868 q 222 994 171 969 q 349 1019 274 1019 q 394 1017 369 1019 q 444 1008 419 1014 q 483 997 468 1003 l 483 854 l 417 854 q 362 838 378 854 q 346 786 346 821 l 346 732 l 483 732 l 483 567 l 346 567 l 346 0 l 119 0 z "},"g":{"ha":878,"x_min":18,"x_max":864,"o":"m 204 -274 q 113 -252 156 -274 q 44 -191 69 -231 q 18 -99 18 -151 q 53 -1 18 -40 q 133 58 89 39 q 81 110 101 79 q 61 181 61 142 q 101 272 61 235 q 196 322 142 310 q 115 401 146 354 q 83 507 83 449 q 128 644 83 592 q 253 723 174 697 q 433 749 332 749 q 506 745 474 749 q 565 735 539 742 q 642 804 621 768 q 664 863 663 840 l 863 863 q 843 769 863 807 q 788 707 824 731 q 701 671 751 683 q 760 598 739 640 q 781 507 781 556 q 741 374 781 428 q 632 293 701 321 q 472 265 563 265 l 364 265 q 306 253 325 265 q 288 222 288 242 q 304 191 288 204 q 361 178 321 178 l 643 178 q 807 117 750 178 q 864 -36 864 57 q 825 -160 864 -107 q 722 -244 786 -214 q 578 -274 657 -274 l 204 -274 m 314 -135 l 554 -135 q 596 -126 578 -135 q 624 -101 614 -117 q 635 -64 635 -85 q 613 -11 635 -29 q 558 7 590 7 l 314 7 q 260 -12 282 7 q 239 -62 239 -31 q 260 -115 239 -94 q 314 -135 282 -135 m 432 399 q 524 426 492 399 q 557 507 557 454 q 524 588 557 561 q 432 615 492 615 q 342 588 375 615 q 308 507 308 561 q 322 448 308 472 q 364 411 336 424 q 432 399 392 399 z "},"ğ":{"ha":878,"x_min":18,"x_max":864,"o":"m 204 -274 q 113 -252 156 -274 q 44 -191 69 -231 q 18 -99 18 -151 q 53 -1 18 -40 q 133 58 89 39 q 81 110 101 79 q 61 181 61 142 q 101 272 61 235 q 196 322 142 310 q 115 401 146 354 q 83 507 83 449 q 128 644 83 592 q 253 723 174 697 q 433 749 332 749 q 506 745 474 749 q 565 735 539 742 q 642 804 621 768 q 664 863 663 840 l 863 863 q 843 769 863 807 q 788 707 824 731 q 701 671 751 683 q 760 598 739 640 q 781 507 781 556 q 741 374 781 428 q 632 293 701 321 q 472 265 563 265 l 364 265 q 306 253 325 265 q 288 222 288 242 q 304 191 288 204 q 361 178 321 178 l 643 178 q 807 117 750 178 q 864 -36 864 57 q 825 -160 864 -107 q 722 -244 786 -214 q 578 -274 657 -274 l 204 -274 m 314 -135 l 554 -135 q 596 -126 578 -135 q 624 -101 614 -117 q 635 -64 635 -85 q 613 -11 635 -29 q 558 7 590 7 l 314 7 q 260 -12 282 7 q 239 -62 239 -31 q 260 -115 239 -94 q 314 -135 282 -135 m 432 399 q 524 426 492 399 q 557 507 557 454 q 524 588 557 561 q 432 615 492 615 q 342 588 375 615 q 308 507 308 561 q 322 448 308 472 q 364 411 336 424 q 432 399 392 399 m 425 814 q 292 843 346 814 q 213 917 239 872 q 186 1006 186 961 l 311 1006 q 330 972 314 989 q 370 946 346 956 q 425 936 394 936 q 485 947 460 936 q 524 975 510 958 q 540 1006 539 992 l 664 1006 q 637 917 664 961 q 557 843 610 872 q 425 814 504 814 z "},"ǧ":{"ha":878,"x_min":18,"x_max":864,"o":"m 204 -274 q 113 -252 156 -274 q 44 -191 69 -231 q 18 -99 18 -151 q 53 -1 18 -40 q 133 58 89 39 q 81 110 101 79 q 61 181 61 142 q 101 272 61 235 q 196 322 142 310 q 115 401 146 354 q 83 507 83 449 q 128 644 83 592 q 253 723 174 697 q 433 749 332 749 q 506 745 474 749 q 565 735 539 742 q 642 804 621 768 q 664 863 663 840 l 863 863 q 843 769 863 807 q 788 707 824 731 q 701 671 751 683 q 760 598 739 640 q 781 507 781 556 q 741 374 781 428 q 632 293 701 321 q 472 265 563 265 l 364 265 q 306 253 325 265 q 288 222 288 242 q 304 191 288 204 q 361 178 321 178 l 643 178 q 807 117 750 178 q 864 -36 864 57 q 825 -160 864 -107 q 722 -244 786 -214 q 578 -274 657 -274 l 204 -274 m 314 -135 l 554 -135 q 596 -126 578 -135 q 624 -101 614 -117 q 635 -64 635 -85 q 613 -11 635 -29 q 558 7 590 7 l 314 7 q 260 -12 282 7 q 239 -62 239 -31 q 260 -115 239 -94 q 314 -135 282 -135 m 432 399 q 524 426 492 399 q 557 507 557 454 q 524 588 557 561 q 432 615 492 615 q 342 588 375 615 q 308 507 308 561 q 322 448 308 472 q 364 411 336 424 q 432 399 392 399 m 158 1006 l 335 1006 l 465 872 l 386 872 l 515 1006 l 694 1006 l 526 822 l 328 822 l 158 1006 z "},"ĝ":{"ha":878,"x_min":18,"x_max":864,"o":"m 204 -274 q 113 -252 156 -274 q 44 -191 69 -231 q 18 -99 18 -151 q 53 -1 18 -40 q 133 58 89 39 q 81 110 101 79 q 61 181 61 142 q 101 272 61 235 q 196 322 142 310 q 115 401 146 354 q 83 507 83 449 q 128 644 83 592 q 253 723 174 697 q 433 749 332 749 q 506 745 474 749 q 565 735 539 742 q 642 804 621 768 q 664 863 663 840 l 863 863 q 843 769 863 807 q 788 707 824 731 q 701 671 751 683 q 760 598 739 640 q 781 507 781 556 q 741 374 781 428 q 632 293 701 321 q 472 265 563 265 l 364 265 q 306 253 325 265 q 288 222 288 242 q 304 191 288 204 q 361 178 321 178 l 643 178 q 807 117 750 178 q 864 -36 864 57 q 825 -160 864 -107 q 722 -244 786 -214 q 578 -274 657 -274 l 204 -274 m 314 -135 l 554 -135 q 596 -126 578 -135 q 624 -101 614 -117 q 635 -64 635 -85 q 613 -11 635 -29 q 558 7 590 7 l 314 7 q 260 -12 282 7 q 239 -62 239 -31 q 260 -115 239 -94 q 314 -135 282 -135 m 432 399 q 524 426 492 399 q 557 507 557 454 q 524 588 557 561 q 432 615 492 615 q 342 588 375 615 q 308 507 308 561 q 322 448 308 472 q 364 411 336 424 q 432 399 392 399 m 158 822 l 328 1006 l 526 1006 l 694 822 l 515 822 l 386 956 l 465 954 l 335 822 l 158 822 z "},"ģ":{"ha":878,"x_min":18,"x_max":864,"o":"m 204 -274 q 113 -252 156 -274 q 44 -191 69 -231 q 18 -99 18 -151 q 53 -1 18 -40 q 133 58 89 39 q 81 110 101 79 q 61 181 61 142 q 101 272 61 235 q 196 322 142 310 q 115 401 146 354 q 83 507 83 449 q 128 644 83 592 q 253 723 174 697 q 433 749 332 749 q 506 745 474 749 q 565 735 539 742 q 642 804 621 768 q 664 863 663 840 l 863 863 q 843 769 863 807 q 788 707 824 731 q 701 671 751 683 q 760 598 739 640 q 781 507 781 556 q 741 374 781 428 q 632 293 701 321 q 472 265 563 265 l 364 265 q 306 253 325 265 q 288 222 288 242 q 304 191 288 204 q 361 178 321 178 l 643 178 q 807 117 750 178 q 864 -36 864 57 q 825 -160 864 -107 q 722 -244 786 -214 q 578 -274 657 -274 l 204 -274 m 314 -135 l 554 -135 q 596 -126 578 -135 q 624 -101 614 -117 q 635 -64 635 -85 q 613 -11 635 -29 q 558 7 590 7 l 314 7 q 260 -12 282 7 q 239 -62 239 -31 q 260 -115 239 -94 q 314 -135 282 -135 m 432 399 q 524 426 492 399 q 557 507 557 454 q 524 588 557 561 q 432 615 492 615 q 342 588 375 615 q 308 507 308 561 q 322 448 308 472 q 364 411 336 424 q 432 399 392 399 m 526 1193 l 526 1111 q 455 1087 476 1111 q 433 1018 433 1063 l 521 1018 l 521 836 l 331 836 l 331 981 q 353 1105 331 1058 q 419 1172 375 1151 q 526 1193 463 1193 z "},"ġ":{"ha":878,"x_min":18,"x_max":864,"o":"m 204 -274 q 113 -252 156 -274 q 44 -191 69 -231 q 18 -99 18 -151 q 53 -1 18 -40 q 133 58 89 39 q 81 110 101 79 q 61 181 61 142 q 101 272 61 235 q 196 322 142 310 q 115 401 146 354 q 83 507 83 449 q 128 644 83 592 q 253 723 174 697 q 433 749 332 749 q 506 745 474 749 q 565 735 539 742 q 642 804 621 768 q 664 863 663 840 l 863 863 q 843 769 863 807 q 788 707 824 731 q 701 671 751 683 q 760 598 739 640 q 781 507 781 556 q 741 374 781 428 q 632 293 701 321 q 472 265 563 265 l 364 265 q 306 253 325 265 q 288 222 288 242 q 304 191 288 204 q 361 178 321 178 l 643 178 q 807 117 750 178 q 864 -36 864 57 q 825 -160 864 -107 q 722 -244 786 -214 q 578 -274 657 -274 l 204 -274 m 314 -135 l 554 -135 q 596 -126 578 -135 q 624 -101 614 -117 q 635 -64 635 -85 q 613 -11 635 -29 q 558 7 590 7 l 314 7 q 260 -12 282 7 q 239 -62 239 -31 q 260 -115 239 -94 q 314 -135 282 -135 m 432 399 q 524 426 492 399 q 557 507 557 454 q 524 588 557 561 q 432 615 492 615 q 342 588 375 615 q 308 507 308 561 q 322 448 308 472 q 364 411 336 424 q 432 399 392 399 m 331 825 l 331 1000 l 522 1000 l 522 825 l 331 825 z "},"h":{"ha":874,"x_min":86,"x_max":790,"o":"m 86 0 l 86 1006 l 314 1006 l 314 653 l 324 653 q 381 703 347 682 q 457 737 415 725 q 543 749 499 749 q 677 719 622 749 q 761 632 732 690 q 790 483 790 574 l 790 0 l 563 0 l 563 451 q 555 503 563 482 q 533 540 547 525 q 499 563 519 556 q 451 569 478 569 q 381 551 411 569 q 332 501 350 532 q 314 428 314 469 l 314 0 l 86 0 z "},"ħ":{"ha":874,"x_min":0,"x_max":790,"o":"m 86 0 l 86 1006 l 314 1006 l 314 653 l 324 653 q 381 703 347 682 q 457 737 415 725 q 543 749 499 749 q 677 719 622 749 q 761 632 732 690 q 790 483 790 574 l 790 0 l 563 0 l 563 451 q 555 503 563 482 q 533 540 547 525 q 499 563 519 556 q 451 569 478 569 q 381 551 411 569 q 332 501 350 532 q 314 428 314 469 l 314 0 l 86 0 m 0 796 l 0 928 l 539 928 l 539 796 l 0 796 z "},"ĥ":{"ha":874,"x_min":-75,"x_max":790,"o":"m 86 0 l 86 1006 l 314 1006 l 314 653 l 324 653 q 381 703 347 682 q 457 737 415 725 q 543 749 499 749 q 677 719 622 749 q 761 632 732 690 q 790 483 790 574 l 790 0 l 563 0 l 563 451 q 555 503 563 482 q 533 540 547 525 q 499 563 519 556 q 451 569 478 569 q 381 551 411 569 q 332 501 350 532 q 314 428 314 469 l 314 0 l 86 0 m -75 1035 l 93 1218 l 306 1218 l 474 1035 l 289 1035 l 158 1168 l 238 1168 l 108 1035 l -75 1035 z "},"ḥ":{"ha":874,"x_min":86,"x_max":790,"o":"m 86 0 l 86 1006 l 314 1006 l 314 653 l 324 653 q 381 703 347 682 q 457 737 415 725 q 543 749 499 749 q 677 719 622 749 q 761 632 732 690 q 790 483 790 574 l 790 0 l 563 0 l 563 451 q 555 503 563 482 q 533 540 547 525 q 499 563 519 556 q 451 569 478 569 q 381 551 411 569 q 332 501 350 532 q 314 428 314 469 l 314 0 l 86 0 m 343 -271 l 343 -96 l 533 -96 l 533 -271 l 343 -271 z "},"i":{"ha":400,"x_min":86,"x_max":314,"o":"m 86 831 l 86 1006 l 314 1006 l 314 831 l 86 831 m 86 0 l 86 732 l 314 732 l 314 0 l 86 0 z "},"ı":{"ha":400,"x_min":86,"x_max":314,"o":"m 86 0 l 86 732 l 314 732 l 314 0 l 86 0 z "},"í":{"ha":400,"x_min":83,"x_max":440,"o":"m 86 0 l 86 732 l 314 732 l 314 0 l 86 0 m 83 822 l 204 1006 l 438 1006 l 440 1001 l 251 822 l 83 822 z "},"ĭ":{"ha":400,"x_min":-39,"x_max":438,"o":"m 86 0 l 86 732 l 314 732 l 314 0 l 86 0 m 199 814 q 66 843 119 814 q -13 917 13 872 q -39 1006 -39 961 l 85 1006 q 103 972 88 989 q 144 946 119 956 q 199 936 168 936 q 259 947 233 936 q 299 975 285 958 q 315 1006 313 992 l 438 1006 q 411 917 438 961 q 331 843 385 872 q 199 814 278 814 z "},"ǐ":{"ha":400,"x_min":-67,"x_max":468,"o":"m 86 0 l 86 732 l 314 732 l 314 0 l 86 0 m -67 1006 l 110 1006 l 240 872 l 160 872 l 290 1006 l 468 1006 l 300 822 l 101 822 l -67 1006 z "},"î":{"ha":400,"x_min":-67,"x_max":468,"o":"m 86 0 l 86 732 l 314 732 l 314 0 l 86 0 m -67 822 l 101 1006 l 300 1006 l 468 822 l 290 822 l 160 956 l 240 954 l 110 822 l -67 822 z "},"ȉ":{"ha":400,"x_min":-160,"x_max":421,"o":"m 86 0 l 86 732 l 314 732 l 314 0 l 86 0 m 272 822 l 103 1001 l 106 1007 l 317 1007 l 421 822 l 272 822 m 8 822 l -160 1001 l -158 1007 l 54 1007 l 158 822 l 8 822 z "},"ï":{"ha":400,"x_min":-40,"x_max":439,"o":"m 86 0 l 86 732 l 314 732 l 314 0 l 86 0 m -40 831 l -40 1006 l 144 1006 l 144 831 l -40 831 m 254 831 l 254 1006 l 439 1006 l 439 831 l 254 831 z "},"ị":{"ha":400,"x_min":86,"x_max":314,"o":"m 86 831 l 86 1006 l 314 1006 l 314 831 l 86 831 m 86 0 l 86 732 l 314 732 l 314 0 l 86 0 m 104 -271 l 104 -96 l 296 -96 l 296 -271 l 104 -271 z "},"ì":{"ha":400,"x_min":-39,"x_max":318,"o":"m 86 0 l 86 732 l 314 732 l 314 0 l 86 0 m 318 822 l 150 822 l -39 1001 l -36 1006 l 197 1006 l 318 822 z "},"ỉ":{"ha":400,"x_min":82,"x_max":368,"o":"m 86 0 l 86 732 l 314 732 l 314 0 l 86 0 m 151 821 l 151 899 l 168 899 q 201 904 193 899 q 210 924 210 910 q 198 943 210 939 q 163 947 186 947 l 82 947 l 82 1014 q 120 1020 99 1018 q 164 1024 142 1022 q 203 1025 186 1025 q 256 1021 228 1025 q 310 1007 285 1017 q 351 980 335 997 q 368 936 368 963 q 351 892 368 910 q 308 867 335 875 q 251 857 282 860 l 251 821 l 151 821 z "},"ȋ":{"ha":400,"x_min":-39,"x_max":438,"o":"m 86 0 l 86 732 l 314 732 l 314 0 l 86 0 m 199 1006 q 331 976 278 1006 q 411 903 385 947 q 438 814 438 860 l 315 814 q 299 845 313 829 q 259 872 285 861 q 199 883 233 883 q 144 874 168 883 q 103 848 119 864 q 85 814 88 832 l -39 814 q -13 903 -39 860 q 66 976 13 947 q 199 1006 119 1006 z "},"ĳ":{"ha":797,"x_min":86,"x_max":715,"o":"m 86 831 l 86 1006 l 314 1006 l 314 831 l 86 831 m 86 0 l 86 732 l 314 732 l 314 0 l 86 0 m 488 831 l 488 1006 l 715 1006 l 715 831 l 488 831 m 494 -274 q 446 -271 474 -274 q 391 -262 418 -268 q 346 -251 364 -257 l 346 -108 l 417 -108 q 470 -88 453 -108 q 488 -31 488 -68 l 488 732 l 715 732 l 715 -51 q 693 -171 715 -121 q 623 -247 671 -221 q 494 -274 575 -274 z "},"ī":{"ha":400,"x_min":-17,"x_max":415,"o":"m 86 0 l 86 732 l 314 732 l 314 0 l 86 0 m -17 844 l -17 972 l 415 972 l 415 844 l -17 844 z "},"į":{"ha":400,"x_min":22,"x_max":315,"o":"m 86 831 l 86 1006 l 314 1006 l 314 831 l 86 831 m 86 0 l 86 732 l 314 732 l 314 0 l 86 0 m 185 -275 q 107 -261 144 -275 q 46 -216 69 -247 q 22 -132 22 -185 q 45 -46 22 -81 q 94 17 68 -11 l 224 17 l 224 11 q 189 -31 203 -4 q 175 -86 175 -58 q 192 -140 175 -117 q 246 -162 208 -162 l 315 -162 l 315 -254 q 251 -269 288 -264 q 185 -275 214 -275 z "},"ĩ":{"ha":400,"x_min":-74,"x_max":472,"o":"m 86 0 l 86 732 l 314 732 l 314 0 l 86 0 m -74 824 q -54 913 -74 871 q 2 980 -35 954 q 92 1006 39 1006 q 169 992 132 1006 q 240 966 206 979 q 310 953 275 953 q 349 967 333 953 q 368 1006 364 981 l 472 1006 q 453 917 472 958 q 398 850 435 876 q 307 824 361 824 q 231 837 268 824 q 160 863 194 850 q 90 876 125 876 q 52 863 68 876 q 32 824 36 849 l -74 824 z "},"j":{"ha":397,"x_min":-54,"x_max":314,"o":"m 86 831 l 86 1006 l 314 1006 l 314 831 l 86 831 m 93 -274 q 45 -271 72 -274 q -9 -262 18 -268 q -54 -251 -36 -257 l -54 -108 l 17 -108 q 69 -88 53 -108 q 86 -31 86 -68 l 86 732 l 314 732 l 314 -51 q 292 -171 314 -121 q 222 -247 271 -221 q 93 -274 174 -274 z "},"ȷ":{"ha":397,"x_min":-54,"x_max":314,"o":"m 93 -274 q 45 -271 72 -274 q -9 -262 18 -268 q -54 -251 -36 -257 l -54 -108 l 17 -108 q 69 -88 53 -108 q 86 -31 86 -68 l 86 732 l 314 732 l 314 -51 q 292 -171 314 -121 q 222 -247 271 -221 q 93 -274 174 -274 z "},"ĵ":{"ha":397,"x_min":-67,"x_max":468,"o":"m 93 -274 q 45 -271 72 -274 q -9 -262 18 -268 q -54 -251 -36 -257 l -54 -108 l 17 -108 q 69 -88 53 -108 q 86 -31 86 -68 l 86 732 l 314 732 l 314 -51 q 292 -171 314 -121 q 222 -247 271 -221 q 93 -274 174 -274 m -67 822 l 101 1006 l 300 1006 l 468 822 l 290 822 l 160 956 l 240 954 l 110 822 l -67 822 z "},"k":{"ha":847,"x_min":86,"x_max":838,"o":"m 86 0 l 86 1007 l 314 1007 l 314 438 l 561 732 l 828 732 l 568 442 l 838 0 l 578 0 l 415 285 l 314 186 l 314 0 l 86 0 z "},"ķ":{"ha":847,"x_min":86,"x_max":838,"o":"m 86 0 l 86 1007 l 314 1007 l 314 438 l 561 732 l 828 732 l 568 442 l 838 0 l 578 0 l 415 285 l 314 186 l 314 0 l 86 0 m 338 -446 l 338 -364 q 409 -340 388 -364 q 431 -271 431 -317 l 343 -271 l 343 -90 l 533 -90 l 533 -233 q 511 -358 533 -311 q 445 -425 489 -404 q 338 -446 401 -446 z "},"ĸ":{"ha":847,"x_min":86,"x_max":838,"o":"m 86 0 l 86 732 l 314 732 l 314 438 l 561 732 l 828 732 l 568 442 l 838 0 l 578 0 l 415 285 l 314 186 l 314 0 l 86 0 z "},"l":{"ha":400,"x_min":86,"x_max":314,"o":"m 86 0 l 86 1006 l 314 1006 l 314 0 l 86 0 z "},"ĺ":{"ha":400,"x_min":86,"x_max":457,"o":"m 86 0 l 86 1006 l 314 1006 l 314 0 l 86 0 m 93 1035 l 214 1218 l 454 1218 l 457 1214 l 267 1035 l 93 1035 z "},"ľ":{"ha":400,"x_min":86,"x_max":564,"o":"m 86 0 l 86 1006 l 314 1006 l 314 0 l 86 0 m 369 771 l 369 1006 l 564 1006 l 511 771 l 369 771 z "},"ļ":{"ha":400,"x_min":86,"x_max":314,"o":"m 86 0 l 86 1006 l 314 1006 l 314 0 l 86 0 m 100 -446 l 100 -364 q 172 -340 150 -364 q 193 -271 193 -317 l 106 -271 l 106 -90 l 296 -90 l 296 -235 q 274 -358 296 -311 q 208 -425 251 -404 q 100 -446 164 -446 z "},"ŀ":{"ha":400,"x_min":86,"x_max":524,"o":"m 86 0 l 86 1006 l 314 1006 l 314 0 l 86 0 m 349 438 l 349 614 l 524 614 l 524 438 l 349 438 z "},"ǉ":{"ha":797,"x_min":86,"x_max":715,"o":"m 86 0 l 86 1006 l 314 1006 l 314 0 l 86 0 m 488 831 l 488 1006 l 715 1006 l 715 831 l 488 831 m 494 -274 q 446 -271 474 -274 q 391 -262 418 -268 q 346 -251 364 -257 l 346 -108 l 417 -108 q 470 -88 453 -108 q 488 -31 488 -68 l 488 732 l 715 732 l 715 -51 q 693 -171 715 -121 q 623 -247 671 -221 q 494 -274 575 -274 z "},"ł":{"ha":400,"x_min":-25,"x_max":425,"o":"m 86 0 l 86 1006 l 314 1006 l 314 0 l 86 0 m -25 293 l -25 428 l 425 717 l 425 582 l -25 293 z "},"m":{"ha":1301,"x_min":86,"x_max":1218,"o":"m 86 0 l 86 732 l 274 732 l 290 628 l 300 628 q 360 693 325 665 q 439 735 396 721 q 531 749 482 749 q 658 719 606 749 q 739 628 711 689 l 749 628 q 809 693 774 665 q 888 735 844 721 q 979 749 932 749 q 1108 720 1056 749 q 1190 634 1161 692 q 1218 488 1218 576 l 1218 0 l 990 0 l 990 453 q 983 505 990 483 q 964 541 976 526 q 932 563 951 556 q 890 569 913 569 q 826 551 854 569 q 782 501 797 532 q 767 428 767 469 l 767 0 l 539 0 l 539 453 q 532 505 539 483 q 513 541 525 526 q 481 563 500 556 q 439 569 461 569 q 374 551 403 569 q 330 501 346 532 q 314 428 314 469 l 314 0 l 86 0 z "},"n":{"ha":874,"x_min":86,"x_max":790,"o":"m 86 0 l 86 732 l 274 732 l 290 628 l 300 628 q 364 693 328 665 q 446 735 400 721 q 543 749 492 749 q 677 719 622 749 q 761 632 732 690 q 790 483 790 574 l 790 0 l 563 0 l 563 451 q 555 503 563 482 q 533 540 547 525 q 499 563 519 556 q 451 569 478 569 q 381 551 411 569 q 332 501 350 532 q 314 428 314 469 l 314 0 l 86 0 z "},"ń":{"ha":874,"x_min":86,"x_max":790,"o":"m 86 0 l 86 732 l 274 732 l 290 628 l 300 628 q 364 693 328 665 q 446 735 400 721 q 543 749 492 749 q 677 719 622 749 q 761 632 732 690 q 790 483 790 574 l 790 0 l 563 0 l 563 451 q 555 503 563 482 q 533 540 547 525 q 499 563 519 556 q 451 569 478 569 q 381 551 411 569 q 332 501 350 532 q 314 428 314 469 l 314 0 l 86 0 m 322 822 l 443 1006 l 678 1006 l 679 1001 l 490 822 l 322 822 z "},"ŉ":{"ha":874,"x_min":-4,"x_max":790,"o":"m 86 0 l 86 732 l 274 732 l 290 628 l 300 628 q 364 693 328 665 q 446 735 400 721 q 543 749 492 749 q 677 719 622 749 q 761 632 732 690 q 790 483 790 574 l 790 0 l 563 0 l 563 451 q 555 503 563 482 q 533 540 547 525 q 499 563 519 556 q 451 569 478 569 q 381 551 411 569 q 332 501 350 532 q 314 428 314 469 l 314 0 l 86 0 m -4 769 l -4 850 q 67 874 46 850 q 89 944 89 899 l 0 944 l 0 1125 l 192 1125 l 192 981 q 169 857 192 904 q 103 790 147 810 q -4 769 60 769 z "},"ň":{"ha":874,"x_min":86,"x_max":790,"o":"m 86 0 l 86 732 l 274 732 l 290 628 l 300 628 q 364 693 328 665 q 446 735 400 721 q 543 749 492 749 q 677 719 622 749 q 761 632 732 690 q 790 483 790 574 l 790 0 l 563 0 l 563 451 q 555 503 563 482 q 533 540 547 525 q 499 563 519 556 q 451 569 478 569 q 381 551 411 569 q 332 501 350 532 q 314 428 314 469 l 314 0 l 86 0 m 172 1006 l 349 1006 l 479 872 l 400 872 l 529 1006 l 707 1006 l 539 822 l 340 822 l 172 1006 z "},"ņ":{"ha":874,"x_min":86,"x_max":790,"o":"m 86 0 l 86 732 l 274 732 l 290 628 l 300 628 q 364 693 328 665 q 446 735 400 721 q 543 749 492 749 q 677 719 622 749 q 761 632 732 690 q 790 483 790 574 l 790 0 l 563 0 l 563 451 q 555 503 563 482 q 533 540 547 525 q 499 563 519 556 q 451 569 478 569 q 381 551 411 569 q 332 501 350 532 q 314 428 314 469 l 314 0 l 86 0 m 339 -446 l 339 -364 q 412 -340 390 -364 q 433 -271 433 -317 l 344 -271 l 344 -90 l 536 -90 l 536 -233 q 513 -358 536 -311 q 447 -425 490 -404 q 339 -446 403 -446 z "},"ŋ":{"ha":874,"x_min":86,"x_max":790,"o":"m 569 -274 q 521 -271 549 -274 q 467 -262 493 -268 q 422 -251 440 -257 l 422 -108 l 492 -108 q 546 -88 529 -108 q 563 -31 563 -68 l 563 451 q 555 503 563 482 q 533 540 547 525 q 499 563 519 556 q 451 569 478 569 q 381 551 411 569 q 332 501 350 532 q 314 428 314 469 l 314 0 l 86 0 l 86 732 l 274 732 l 290 628 l 300 628 q 364 693 328 665 q 446 735 400 721 q 543 749 492 749 q 677 719 622 749 q 761 632 732 690 q 790 483 790 574 l 790 -51 q 778 -145 790 -104 q 740 -215 765 -186 q 672 -258 714 -243 q 569 -274 629 -274 z "},"ɲ":{"ha":874,"x_min":-54,"x_max":790,"o":"m 93 -274 q 45 -271 72 -274 q -9 -262 18 -268 q -54 -251 -36 -257 l -54 -108 l 17 -108 q 69 -88 53 -108 q 86 -31 86 -68 l 86 732 l 274 732 l 290 628 l 300 628 q 364 693 328 665 q 446 735 400 721 q 543 749 492 749 q 677 719 622 749 q 761 632 732 690 q 790 483 790 574 l 790 0 l 563 0 l 563 451 q 555 503 563 482 q 533 540 547 525 q 499 563 519 556 q 451 569 478 569 q 381 551 411 569 q 332 501 350 532 q 314 428 314 469 l 314 -51 q 302 -145 314 -104 q 264 -215 290 -186 q 196 -258 238 -243 q 93 -274 154 -274 z "},"ǌ":{"ha":1271,"x_min":86,"x_max":1188,"o":"m 86 0 l 86 732 l 274 732 l 290 628 l 300 628 q 364 693 328 665 q 446 735 400 721 q 543 749 492 749 q 677 719 622 749 q 761 632 732 690 q 790 483 790 574 l 790 0 l 563 0 l 563 451 q 555 503 563 482 q 533 540 547 525 q 499 563 519 556 q 451 569 478 569 q 381 551 411 569 q 332 501 350 532 q 314 428 314 469 l 314 0 l 86 0 m 960 831 l 960 1006 l 1188 1006 l 1188 831 l 960 831 m 967 -274 q 919 -271 946 -274 q 865 -262 892 -268 q 819 -251 838 -257 l 819 -108 l 890 -108 q 943 -88 926 -108 q 960 -31 960 -68 l 960 732 l 1188 732 l 1188 -51 q 1166 -171 1188 -121 q 1096 -247 1144 -221 q 967 -274 1047 -274 z "},"ñ":{"ha":874,"x_min":86,"x_max":790,"o":"m 86 0 l 86 732 l 274 732 l 290 628 l 300 628 q 364 693 328 665 q 446 735 400 721 q 543 749 492 749 q 677 719 622 749 q 761 632 732 690 q 790 483 790 574 l 790 0 l 563 0 l 563 451 q 555 503 563 482 q 533 540 547 525 q 499 563 519 556 q 451 569 478 569 q 381 551 411 569 q 332 501 350 532 q 314 428 314 469 l 314 0 l 86 0 m 165 824 q 185 913 165 871 q 241 980 204 954 q 331 1006 278 1006 q 408 992 372 1006 q 479 966 444 979 q 549 953 514 953 q 588 967 572 953 q 608 1006 603 981 l 713 1006 q 693 917 713 958 q 637 850 674 876 q 547 824 600 824 q 470 837 507 824 q 399 863 433 850 q 329 876 364 876 q 292 863 307 876 q 271 824 276 849 l 165 824 z "},"o":{"ha":882,"x_min":51,"x_max":831,"o":"m 440 -17 q 231 25 318 -17 q 98 152 144 67 q 51 367 51 238 q 98 581 51 496 q 231 707 144 665 q 440 749 318 749 q 651 707 564 749 q 784 581 738 665 q 831 367 831 496 q 784 152 831 238 q 651 25 738 67 q 440 -17 564 -17 m 440 149 q 533 171 497 149 q 584 235 568 193 q 600 340 600 278 l 600 392 q 584 497 600 454 q 533 562 568 540 q 440 583 497 583 q 349 562 385 583 q 298 497 314 540 q 282 392 282 454 l 282 340 q 298 235 282 278 q 349 171 314 193 q 440 149 385 149 z "},"ó":{"ha":882,"x_min":51,"x_max":831,"o":"m 440 -17 q 231 25 318 -17 q 98 152 144 67 q 51 367 51 238 q 98 581 51 496 q 231 707 144 665 q 440 749 318 749 q 651 707 564 749 q 784 581 738 665 q 831 367 831 496 q 784 152 831 238 q 651 25 738 67 q 440 -17 564 -17 m 440 149 q 533 171 497 149 q 584 235 568 193 q 600 340 600 278 l 600 392 q 584 497 600 454 q 533 562 568 540 q 440 583 497 583 q 349 562 385 583 q 298 497 314 540 q 282 392 282 454 l 282 340 q 298 235 282 278 q 349 171 314 193 q 440 149 385 149 m 325 822 l 446 1006 l 679 1006 l 682 1001 l 493 822 l 325 822 z "},"ŏ":{"ha":882,"x_min":51,"x_max":831,"o":"m 440 -17 q 231 25 318 -17 q 98 152 144 67 q 51 367 51 238 q 98 581 51 496 q 231 707 144 665 q 440 749 318 749 q 651 707 564 749 q 784 581 738 665 q 831 367 831 496 q 784 152 831 238 q 651 25 738 67 q 440 -17 564 -17 m 440 149 q 533 171 497 149 q 584 235 568 193 q 600 340 600 278 l 600 392 q 584 497 600 454 q 533 562 568 540 q 440 583 497 583 q 349 562 385 583 q 298 497 314 540 q 282 392 282 454 l 282 340 q 298 235 282 278 q 349 171 314 193 q 440 149 385 149 m 440 814 q 308 843 361 814 q 228 917 254 872 q 203 1006 203 961 l 326 1006 q 345 972 329 989 q 385 946 361 956 q 440 936 410 936 q 501 947 475 936 q 540 975 526 958 q 557 1006 554 992 l 679 1006 q 653 917 679 961 q 573 843 626 872 q 440 814 519 814 z "},"ǒ":{"ha":882,"x_min":51,"x_max":831,"o":"m 440 -17 q 231 25 318 -17 q 98 152 144 67 q 51 367 51 238 q 98 581 51 496 q 231 707 144 665 q 440 749 318 749 q 651 707 564 749 q 784 581 738 665 q 831 367 831 496 q 784 152 831 238 q 651 25 738 67 q 440 -17 564 -17 m 440 149 q 533 171 497 149 q 584 235 568 193 q 600 340 600 278 l 600 392 q 584 497 600 454 q 533 562 568 540 q 440 583 497 583 q 349 562 385 583 q 298 497 314 540 q 282 392 282 454 l 282 340 q 298 235 282 278 q 349 171 314 193 q 440 149 385 149 m 175 1006 l 351 1006 l 482 872 l 401 872 l 532 1006 l 710 1006 l 542 822 l 343 822 l 175 1006 z "},"ô":{"ha":882,"x_min":51,"x_max":831,"o":"m 440 -17 q 231 25 318 -17 q 98 152 144 67 q 51 367 51 238 q 98 581 51 496 q 231 707 144 665 q 440 749 318 749 q 651 707 564 749 q 784 581 738 665 q 831 367 831 496 q 784 152 831 238 q 651 25 738 67 q 440 -17 564 -17 m 440 149 q 533 171 497 149 q 584 235 568 193 q 600 340 600 278 l 600 392 q 584 497 600 454 q 533 562 568 540 q 440 583 497 583 q 349 562 385 583 q 298 497 314 540 q 282 392 282 454 l 282 340 q 298 235 282 278 q 349 171 314 193 q 440 149 385 149 m 175 822 l 343 1006 l 542 1006 l 710 822 l 532 822 l 401 956 l 482 954 l 351 822 l 175 822 z "},"ố":{"ha":882,"x_min":51,"x_max":831,"o":"m 440 -17 q 231 25 318 -17 q 98 152 144 67 q 51 367 51 238 q 98 581 51 496 q 231 707 144 665 q 440 749 318 749 q 651 707 564 749 q 784 581 738 665 q 831 367 831 496 q 784 152 831 238 q 651 25 738 67 q 440 -17 564 -17 m 440 149 q 533 171 497 149 q 584 235 568 193 q 600 340 600 278 l 600 392 q 584 497 600 454 q 533 562 568 540 q 440 583 497 583 q 349 562 385 583 q 298 497 314 540 q 282 392 282 454 l 282 340 q 298 235 282 278 q 349 171 314 193 q 440 149 385 149 m 175 822 l 343 1006 l 542 1006 l 710 822 l 532 822 l 401 956 l 482 954 l 351 822 l 175 822 m 325 1075 l 446 1260 l 679 1260 l 682 1254 l 493 1075 l 325 1075 z "},"ộ":{"ha":882,"x_min":51,"x_max":831,"o":"m 440 -17 q 231 25 318 -17 q 98 152 144 67 q 51 367 51 238 q 98 581 51 496 q 231 707 144 665 q 440 749 318 749 q 651 707 564 749 q 784 581 738 665 q 831 367 831 496 q 784 152 831 238 q 651 25 738 67 q 440 -17 564 -17 m 440 149 q 533 171 497 149 q 584 235 568 193 q 600 340 600 278 l 600 392 q 584 497 600 454 q 533 562 568 540 q 440 583 497 583 q 349 562 385 583 q 298 497 314 540 q 282 392 282 454 l 282 340 q 298 235 282 278 q 349 171 314 193 q 440 149 385 149 m 346 -271 l 346 -96 l 538 -96 l 538 -271 l 346 -271 m 175 822 l 343 1006 l 542 1006 l 710 822 l 532 822 l 401 956 l 482 954 l 351 822 l 175 822 z "},"ồ":{"ha":882,"x_min":51,"x_max":831,"o":"m 440 -17 q 231 25 318 -17 q 98 152 144 67 q 51 367 51 238 q 98 581 51 496 q 231 707 144 665 q 440 749 318 749 q 651 707 564 749 q 784 581 738 665 q 831 367 831 496 q 784 152 831 238 q 651 25 738 67 q 440 -17 564 -17 m 440 149 q 533 171 497 149 q 584 235 568 193 q 600 340 600 278 l 600 392 q 584 497 600 454 q 533 562 568 540 q 440 583 497 583 q 349 562 385 583 q 298 497 314 540 q 282 392 282 454 l 282 340 q 298 235 282 278 q 349 171 314 193 q 440 149 385 149 m 175 822 l 343 1006 l 542 1006 l 710 822 l 532 822 l 401 956 l 482 954 l 351 822 l 175 822 m 560 1075 l 392 1075 l 203 1254 l 206 1260 l 439 1260 l 560 1075 z "},"ổ":{"ha":882,"x_min":51,"x_max":831,"o":"m 440 -17 q 231 25 318 -17 q 98 152 144 67 q 51 367 51 238 q 98 581 51 496 q 231 707 144 665 q 440 749 318 749 q 651 707 564 749 q 784 581 738 665 q 831 367 831 496 q 784 152 831 238 q 651 25 738 67 q 440 -17 564 -17 m 440 149 q 533 171 497 149 q 584 235 568 193 q 600 340 600 278 l 600 392 q 584 497 600 454 q 533 562 568 540 q 440 583 497 583 q 349 562 385 583 q 298 497 314 540 q 282 392 282 454 l 282 340 q 298 235 282 278 q 349 171 314 193 q 440 149 385 149 m 175 822 l 343 1006 l 542 1006 l 710 822 l 532 822 l 401 956 l 482 954 l 351 822 l 175 822 m 393 1075 l 393 1153 l 410 1153 q 443 1158 435 1153 q 451 1178 451 1164 q 440 1197 451 1193 q 404 1201 428 1201 l 324 1201 l 324 1268 q 362 1274 340 1272 q 406 1278 383 1276 q 444 1279 428 1279 q 498 1275 469 1279 q 551 1260 526 1271 q 593 1233 576 1250 q 610 1190 610 1217 q 593 1147 610 1164 q 550 1121 576 1129 q 493 1110 524 1113 l 493 1075 l 393 1075 z "},"ỗ":{"ha":882,"x_min":51,"x_max":831,"o":"m 440 -17 q 231 25 318 -17 q 98 152 144 67 q 51 367 51 238 q 98 581 51 496 q 231 707 144 665 q 440 749 318 749 q 651 707 564 749 q 784 581 738 665 q 831 367 831 496 q 784 152 831 238 q 651 25 738 67 q 440 -17 564 -17 m 440 149 q 533 171 497 149 q 584 235 568 193 q 600 340 600 278 l 600 392 q 584 497 600 454 q 533 562 568 540 q 440 583 497 583 q 349 562 385 583 q 298 497 314 540 q 282 392 282 454 l 282 340 q 298 235 282 278 q 349 171 314 193 q 440 149 385 149 m 175 822 l 343 1006 l 542 1006 l 710 822 l 532 822 l 401 956 l 482 954 l 351 822 l 175 822 m 168 1078 q 188 1167 168 1125 q 244 1234 207 1208 q 333 1260 281 1260 q 410 1247 374 1260 q 482 1220 447 1233 q 551 1207 517 1207 q 590 1221 575 1207 q 610 1260 606 1235 l 714 1260 q 695 1172 714 1213 q 640 1104 676 1131 q 549 1078 603 1078 q 473 1091 510 1078 q 401 1117 436 1104 q 332 1131 367 1131 q 294 1117 310 1131 q 274 1078 278 1103 l 168 1078 z "},"ȍ":{"ha":882,"x_min":51,"x_max":831,"o":"m 440 -17 q 231 25 318 -17 q 98 152 144 67 q 51 367 51 238 q 98 581 51 496 q 231 707 144 665 q 440 749 318 749 q 651 707 564 749 q 784 581 738 665 q 831 367 831 496 q 784 152 831 238 q 651 25 738 67 q 440 -17 564 -17 m 440 149 q 533 171 497 149 q 584 235 568 193 q 600 340 600 278 l 600 392 q 584 497 600 454 q 533 562 568 540 q 440 583 497 583 q 349 562 385 583 q 298 497 314 540 q 282 392 282 454 l 282 340 q 298 235 282 278 q 349 171 314 193 q 440 149 385 149 m 514 822 l 344 1001 l 347 1007 l 558 1007 l 663 822 l 514 822 m 250 822 l 82 1001 l 83 1007 l 296 1007 l 400 822 l 250 822 z "},"ö":{"ha":882,"x_min":51,"x_max":831,"o":"m 440 -17 q 231 25 318 -17 q 98 152 144 67 q 51 367 51 238 q 98 581 51 496 q 231 707 144 665 q 440 749 318 749 q 651 707 564 749 q 784 581 738 665 q 831 367 831 496 q 784 152 831 238 q 651 25 738 67 q 440 -17 564 -17 m 440 149 q 533 171 497 149 q 584 235 568 193 q 600 340 600 278 l 600 392 q 584 497 600 454 q 533 562 568 540 q 440 583 497 583 q 349 562 385 583 q 298 497 314 540 q 282 392 282 454 l 282 340 q 298 235 282 278 q 349 171 314 193 q 440 149 385 149 m 201 831 l 201 1006 l 386 1006 l 386 831 l 201 831 m 496 831 l 496 1006 l 681 1006 l 681 831 l 496 831 z "},"ȫ":{"ha":882,"x_min":51,"x_max":831,"o":"m 440 -17 q 231 25 318 -17 q 98 152 144 67 q 51 367 51 238 q 98 581 51 496 q 231 707 144 665 q 440 749 318 749 q 651 707 564 749 q 784 581 738 665 q 831 367 831 496 q 784 152 831 238 q 651 25 738 67 q 440 -17 564 -17 m 440 149 q 533 171 497 149 q 584 235 568 193 q 600 340 600 278 l 600 392 q 584 497 600 454 q 533 562 568 540 q 440 583 497 583 q 349 562 385 583 q 298 497 314 540 q 282 392 282 454 l 282 340 q 298 235 282 278 q 349 171 314 193 q 440 149 385 149 m 201 831 l 201 1006 l 386 1006 l 386 831 l 201 831 m 496 831 l 496 1006 l 681 1006 l 681 831 l 496 831 m 225 1085 l 225 1213 l 657 1213 l 657 1085 l 225 1085 z "},"ȱ":{"ha":882,"x_min":51,"x_max":831,"o":"m 440 -17 q 231 25 318 -17 q 98 152 144 67 q 51 367 51 238 q 98 581 51 496 q 231 707 144 665 q 440 749 318 749 q 651 707 564 749 q 784 581 738 665 q 831 367 831 496 q 784 152 831 238 q 651 25 738 67 q 440 -17 564 -17 m 440 149 q 533 171 497 149 q 584 235 568 193 q 600 340 600 278 l 600 392 q 584 497 600 454 q 533 562 568 540 q 440 583 497 583 q 349 562 385 583 q 298 497 314 540 q 282 392 282 454 l 282 340 q 298 235 282 278 q 349 171 314 193 q 440 149 385 149 m 347 825 l 347 1000 l 538 1000 l 538 825 l 347 825 m 226 1085 l 226 1213 l 658 1213 l 658 1085 l 226 1085 z "},"ọ":{"ha":882,"x_min":51,"x_max":831,"o":"m 440 -17 q 231 25 318 -17 q 98 152 144 67 q 51 367 51 238 q 98 581 51 496 q 231 707 144 665 q 440 749 318 749 q 651 707 564 749 q 784 581 738 665 q 831 367 831 496 q 784 152 831 238 q 651 25 738 67 q 440 -17 564 -17 m 440 149 q 533 171 497 149 q 584 235 568 193 q 600 340 600 278 l 600 392 q 584 497 600 454 q 533 562 568 540 q 440 583 497 583 q 349 562 385 583 q 298 497 314 540 q 282 392 282 454 l 282 340 q 298 235 282 278 q 349 171 314 193 q 440 149 385 149 m 346 -271 l 346 -96 l 538 -96 l 538 -271 l 346 -271 z "},"ò":{"ha":882,"x_min":51,"x_max":831,"o":"m 440 -17 q 231 25 318 -17 q 98 152 144 67 q 51 367 51 238 q 98 581 51 496 q 231 707 144 665 q 440 749 318 749 q 651 707 564 749 q 784 581 738 665 q 831 367 831 496 q 784 152 831 238 q 651 25 738 67 q 440 -17 564 -17 m 440 149 q 533 171 497 149 q 584 235 568 193 q 600 340 600 278 l 600 392 q 584 497 600 454 q 533 562 568 540 q 440 583 497 583 q 349 562 385 583 q 298 497 314 540 q 282 392 282 454 l 282 340 q 298 235 282 278 q 349 171 314 193 q 440 149 385 149 m 560 822 l 392 822 l 203 1001 l 206 1006 l 439 1006 l 560 822 z "}}}
